<svg width="500" height="500" fill="none" xmlns="http://www.w3.org/2000/svg"><path d="M482.327 357.466c0 .144-97.1.261-216.856.261-119.8 0-216.877-.117-216.877-.261 0-.144 97.081-.26 216.877-.26 119.754 0 216.856.117 216.856.26z" fill="#E0E0E0"/><path d="M414.594 281.586c.324-.313 2.551 1.283 5.473 4.573a51.603 51.603 0 014.644 6.168 58.434 58.434 0 017.507 17.33 51.601 51.601 0 011.325 7.607c.4 4.382.042 7.1-.408 7.12-1.051.075-2.007-10.532-7.19-22.3-5.045-11.828-12.126-19.784-11.351-20.498zM436.609 333.19c-.456.062-1.716-5.744-2.884-15.257-1.188-9.508-2.163-22.717-2.547-37.31-.384-14.593-.23-27.8.056-37.357.286-9.557.747-15.457 1.23-15.458.483-.001.919 5.907 1.255 15.452.336 9.545.576 22.727.972 37.267.396 14.54.959 27.675 1.509 37.186.529 9.512.915 15.41.409 15.477z" fill="#EBEBEB"/><path d="M457.9 250.235c.452.258-1.385 4.316-3.792 11.09-2.462 6.752-5.485 16.229-8.454 26.8-2.91 10.592-5.207 20.271-6.58 27.326-1.431 7.045-1.95 11.468-2.471 11.456-.449 0-.806-4.566.015-11.834a200.473 200.473 0 0115.191-54.692c3.05-6.649 5.71-10.381 6.091-10.146z" fill="#EBEBEB"/><path d="M409.2 321.055v11.617a24.784 24.784 0 007.264 17.534 24.792 24.792 0 0017.536 7.26 24.795 24.795 0 0024.794-24.794v-11.617H409.2z" fill="#E0E0E0"/><path d="M459.239 330.884c0 .194-11.2.351-25.018.351-13.818 0-25.019-.157-25.019-.351 0-.194 11.2-.351 25.019-.351 13.819 0 25.018.157 25.018.351zM459.239 334.109c0 .194-11.2.351-25.018.351-13.818 0-25.019-.157-25.019-.351 0-.194 11.2-.351 25.019-.351 13.819 0 25.018.157 25.018.351z" fill="#FAFAFA"/><path d="M456.574 52.271h-94.838v98.861h94.838V52.271z" fill="#E0E0E0"/><path d="M450.151 52.271h-94.838v98.861h94.838V52.271z" fill="#EBEBEB"/><path d="M437.403 65.561h-69.341v72.282h69.341V65.561z" fill="#FAFAFA"/><path d="M368.062 138.323a13.273 13.273 0 01-1.733 1.965 230.891 230.891 0 01-4.417 4.459 219.354 219.354 0 01-4.522 4.346 12.947 12.947 0 01-1.981 1.693 12.887 12.887 0 011.725-1.957 226.373 226.373 0 014.426-4.467 225.075 225.075 0 014.529-4.353 12.755 12.755 0 011.973-1.686zM437.4 138.146c.711.51 1.369 1.091 1.965 1.732a228.477 228.477 0 014.459 4.418 222.482 222.482 0 014.347 4.522c.63.601 1.197 1.265 1.693 1.981a13.005 13.005 0 01-1.958-1.725 229.497 229.497 0 01-4.466-4.426 225.505 225.505 0 01-4.354-4.529 12.85 12.85 0 01-1.686-1.973zM437.213 65.754a13.21 13.21 0 011.732-1.965 231.703 231.703 0 014.418-4.458 225.268 225.268 0 014.522-4.347 12.868 12.868 0 011.981-1.693 13.017 13.017 0 01-1.725 1.957 226.373 226.373 0 01-4.426 4.467 225.075 225.075 0 01-4.529 4.353 12.81 12.81 0 01-1.973 1.686zM367.872 65.93a13.112 13.112 0 01-1.964-1.731 222.938 222.938 0 01-4.459-4.418 255.064 255.064 0 01-4.349-4.521 12.988 12.988 0 01-1.693-1.981 12.976 12.976 0 011.96 1.72 227.09 227.09 0 014.466 4.428 225.272 225.272 0 014.353 4.528c.627.6 1.192 1.262 1.686 1.976z" fill="#E0E0E0"/><path d="M437.213 137.843s-.009-.122-.013-.349c-.004-.227-.007-.574-.013-1.007l-.026-3.9-.06-14.727-.115-52.3.227.227-69.144.033h-.007l.26-.26-.036 72.282-.224-.224 50.082.114 14.06.059 3.717.026.959.012c.217 0 .333.013.333.013s-.1.008-.308.012l-.935.013-3.674.026-14.009.058-50.225.114h-.223v-.224l-.036-72.282v-.26h.268l69.144.034h.227v.227l-.116 52.446-.059 14.676-.026 3.854-.013.982c-.007.22-.015.325-.015.325z" fill="#E0E0E0"/><path d="M386.362 95.758s-1.484 17.9 17.9 17.9c-.003-9.558-7.882-17.093-17.9-17.9z" fill="#EBEBEB"/><path d="M421.827 95.77s-17.9-1.484-17.9 17.901c9.554-.004 17.093-7.883 17.9-17.9z" fill="#EBEBEB"/><path d="M403.4 85.976s-14.62 13.125.8 27.678c7.171-7.598 6.563-19.514-.8-27.678zM165.941 84.754h-80.42v83.831h80.42V84.754z" fill="#E0E0E0"/><path d="M160.494 84.754h-80.42v83.831h80.42V84.754z" fill="#FAFAFA"/><path d="M160.519 168.61h-80.47V84.729h80.47v83.881zm-80.42-.05h80.37V84.779h-80.37v83.781z" fill="#E0E0E0"/><path d="M149.684 96.023h-58.8v61.293h58.8V96.023z" fill="#FAFAFA"/><path d="M90.885 157.723a9.598 9.598 0 01-1.451 1.687c-.94.991-2.26 2.332-3.738 3.789a162.82 162.82 0 01-3.841 3.677 9.38 9.38 0 01-1.7 1.415 9.358 9.358 0 011.443-1.68 171.87 171.87 0 013.746-3.8 158.947 158.947 0 013.848-3.684 9.226 9.226 0 011.693-1.404zM149.684 157.573a9.531 9.531 0 011.687 1.451c.991.939 2.332 2.258 3.789 3.737a164.805 164.805 0 013.677 3.841 9.405 9.405 0 011.415 1.7 9.366 9.366 0 01-1.68-1.443 169.694 169.694 0 01-3.8-3.746 156.902 156.902 0 01-3.684-3.849 9.14 9.14 0 01-1.404-1.691zM149.523 96.187a9.639 9.639 0 011.451-1.688c.939-.99 2.258-2.332 3.737-3.788a162.601 162.601 0 013.842-3.677 9.301 9.301 0 011.7-1.416 9.356 9.356 0 01-1.443 1.68c-.939.991-2.262 2.335-3.746 3.8a156.72 156.72 0 01-3.848 3.683 9.228 9.228 0 01-1.693 1.406zM90.724 96.337a9.619 9.619 0 01-1.687-1.451 163.601 163.601 0 01-3.79-3.738 162.82 162.82 0 01-3.676-3.841 9.418 9.418 0 01-1.415-1.7c.615.413 1.179.897 1.68 1.443.99.939 2.335 2.262 3.8 3.746a158.947 158.947 0 013.684 3.848 9.233 9.233 0 011.404 1.693z" fill="#E0E0E0"/><path d="M149.523 157.316c-.01-.1-.014-.2-.013-.3 0-.209-.007-.491-.013-.856l-.026-3.308-.06-12.492-.115-44.34.227.228-58.632.033h-.006l.26-.26-.036 61.292-.224-.223 42.458.114 11.925.059 3.156.026.815.012c.095-.002.19.002.284.013a2.245 2.245 0 01-.259.012l-.791.013-3.113.026-11.875.058-42.6.114h-.223v-.225l-.036-61.292v-.26h.267l58.632.033h.227v.227l-.115 44.484-.06 12.441-.026 3.264-.013.831c.001.092-.004.184-.015.276z" fill="#E0E0E0"/><path d="M130.094 116.859h-19.62v19.62h19.62v-19.62zM251.944 459.963c116.936 0 211.732-17.365 211.732-38.785 0-21.42-94.796-38.785-211.732-38.785-116.936 0-211.732 17.365-211.732 38.785 0 21.42 94.796 38.785 211.732 38.785z" fill="#EBEBEB"/><path d="M332.738 421.179a1.192 1.192 0 00-.366-.735 5.98 5.98 0 00-2.128-1.221 49.823 49.823 0 00-9.287-2.174 330.467 330.467 0 00-35.025-3.068c-14.838-.665-32.534-.944-52.167-.491-9.816.239-20.118.658-30.769 1.472-5.324.414-10.738.92-16.2 1.666-2.729.377-5.473.811-8.2 1.4a38.017 38.017 0 00-4.038 1.08c-.657.215-1.296.483-1.91.8-.578.3-1.212.762-1.241 1.267.016.506.652.965 1.229 1.272a12.76 12.76 0 001.908.8c1.325.435 2.674.796 4.039 1.082 2.725.591 5.469 1.025 8.2 1.4 5.463.747 10.878 1.253 16.2 1.667 10.654.815 20.958 1.234 30.775 1.473 19.636.452 37.333.173 52.171-.491a330.454 330.454 0 0035.023-3.069 49.909 49.909 0 009.286-2.173 5.978 5.978 0 002.127-1.222 1.19 1.19 0 00.366-.734.99.99 0 01-.327.77 5.827 5.827 0 01-2.127 1.283 48.146 48.146 0 01-9.292 2.276 318.841 318.841 0 01-35.039 3.237c-14.845.711-32.55 1.029-52.2.6-9.824-.226-20.136-.635-30.8-1.443-5.333-.412-10.756-.916-16.235-1.663-2.739-.378-5.493-.812-8.24-1.407a38.183 38.183 0 01-4.1-1.1 13.247 13.247 0 01-1.99-.835 4.509 4.509 0 01-.926-.634 1.561 1.561 0 01-.575-1.1c.019-.212.081-.418.183-.605.101-.188.238-.353.405-.486.282-.247.593-.459.927-.63a13.265 13.265 0 011.989-.832 38.419 38.419 0 014.1-1.1c2.746-.6 5.5-1.029 8.237-1.406 5.478-.747 10.9-1.25 16.231-1.662 10.665-.808 20.974-1.217 30.8-1.443 19.646-.426 37.35-.109 52.2.6a318.875 318.875 0 0135.041 3.236 48.156 48.156 0 019.293 2.276c.793.27 1.519.708 2.128 1.284a.998.998 0 01.324.783z" fill="#FAFAFA"/><path d="M380.88 421.179a2.807 2.807 0 00-.418-1.274 8.028 8.028 0 00-3.076-2.462c-3.11-1.642-8.112-3.154-14.639-4.529-13.074-2.745-32.321-4.973-56.161-6.372-23.843-1.38-52.306-1.971-83.873-1.06-15.781.481-32.343 1.332-49.443 2.992-8.545.846-17.231 1.882-25.965 3.409-4.362.776-8.743 1.662-13.061 2.879a47.381 47.381 0 00-6.348 2.227 15.447 15.447 0 00-2.9 1.644 3.598 3.598 0 00-1.723 2.535 3.543 3.543 0 001.7 2.542 15.383 15.383 0 002.9 1.649c2.06.894 4.182 1.64 6.348 2.231 4.319 1.219 8.7 2.105 13.065 2.882 8.736 1.527 17.424 2.564 25.972 3.41 17.1 1.662 33.669 2.513 49.452 2.994 31.572.911 60.036.32 83.879-1.061 23.84-1.4 43.086-3.627 56.158-6.372 6.526-1.375 11.527-2.887 14.636-4.529a7.995 7.995 0 003.076-2.462 2.8 2.8 0 00.418-1.273s0 .115-.02.344a2.737 2.737 0 01-.353.957 7.955 7.955 0 01-3.071 2.527c-3.111 1.681-8.115 3.227-14.644 4.634-13.077 2.809-32.329 5.1-56.178 6.541-23.852 1.429-52.327 2.059-83.916 1.173-15.791-.468-32.366-1.309-49.487-2.965-8.557-.844-17.255-1.879-26.012-3.408-4.375-.778-8.77-1.666-13.117-2.891a47.698 47.698 0 01-6.421-2.258 15.832 15.832 0 01-3-1.708 6.15 6.15 0 01-1.274-1.232 2.632 2.632 0 01.015-3.45c.366-.467.797-.88 1.279-1.226a15.88 15.88 0 013-1.7 47.805 47.805 0 016.42-2.254c4.346-1.224 8.74-2.111 13.114-2.889 8.754-1.528 17.45-2.562 26-3.4 17.116-1.656 33.688-2.5 49.477-2.965 31.585-.885 60.058-.256 83.91 1.173 23.849 1.446 43.1 3.731 56.181 6.541 6.529 1.407 11.534 2.953 14.646 4.635a7.94 7.94 0 013.072 2.526c.177.294.297.619.353.958.027.222.029.337.029.337z" fill="#FAFAFA"/><path d="M440.614 421.179a5.543 5.543 0 00-.477-1.931 10.819 10.819 0 00-4.042-4.165c-4.313-2.894-11.568-5.581-21.094-8.005-19.092-4.845-47.413-8.779-82.527-11.245a1209.144 1209.144 0 00-123.618-1.9c-23.257.838-47.665 2.323-72.824 5.231-12.572 1.485-25.343 3.3-38.138 5.98a163.436 163.436 0 00-19.055 5.07 56.226 56.226 0 00-9.112 3.924A20.425 20.425 0 0065.705 417a5.11 5.11 0 00-1.605 6.51 5.108 5.108 0 001.579 1.826A20.322 20.322 0 0069.7 428.2a56.24 56.24 0 009.113 3.93 163.313 163.313 0 0019.06 5.074c12.8 2.682 25.573 4.5 38.147 5.984 25.166 2.909 49.579 4.394 72.839 5.232 41.214 1.476 82.477.842 123.627-1.9 35.114-2.466 63.432-6.4 82.523-11.246 9.524-2.423 16.778-5.11 21.09-8a10.795 10.795 0 004.041-4.165 5.532 5.532 0 00.477-1.93s-.005.169-.029.506c-.012.21-.05.418-.113.619a3.784 3.784 0 01-.286.827 10.767 10.767 0 01-4.031 4.23c-4.314 2.936-11.572 5.657-21.1 8.113-19.1 4.912-47.422 8.9-82.547 11.417a1200.507 1200.507 0 01-123.67 2.012c-23.271-.826-47.7-2.3-72.881-5.206-12.585-1.483-25.372-3.3-38.195-5.983a163.538 163.538 0 01-19.123-5.09 56.582 56.582 0 01-9.2-3.968 20.821 20.821 0 01-4.124-2.947 5.604 5.604 0 01-2.302-4.549 5.618 5.618 0 012.329-4.536 20.94 20.94 0 014.127-2.939 56.883 56.883 0 019.2-3.962 163.865 163.865 0 0119.118-5.084c12.82-2.683 25.6-4.5 38.186-5.981 25.179-2.9 49.6-4.378 72.866-5.2a1200.555 1200.555 0 01123.658 2.008c35.125 2.513 63.453 6.5 82.552 11.416 9.528 2.457 16.787 5.178 21.1 8.114a10.753 10.753 0 014.031 4.23c.127.264.224.542.287.828.063.201.101.409.113.619.026.336.031.506.031.506z" fill="#FAFAFA"/><path d="M260.573 397.348c-16.4-1.07-32.862-2.141-49.3-1.451-16.438.69-32.956 3.209-47.515 8.953-5.723 2.257-11.6 5.544-12.611 10.324-1.092 5.151 4.106 10.036 10.266 12.481 12.7 5.043 28.393 2.394 41.61-1.845 13.217-4.239 25.958-10.028 40.257-11.174 11.876-.951 23.786 1.417 35 4.489 11.214 3.072 22.12 6.875 33.729 8.995 11.609 2.12 24.29 2.411 35.084-1.415 5.771-2.045 11.207-5.788 11.54-10.558.237-3.384-2.217-6.639-5.614-8.88-3.397-2.241-7.653-3.61-11.92-4.748-27.371-7.3-57.26-6.414-86.288-5.44M56.948 419.488l-6.9 5.04c-.69.5-1.46 1.183-1.344 2.029.144 1.057 1.486 1.4 2.55 1.459 7.407.4 12.467-.39 19.046-3.813a32.128 32.128 0 003.323-1.952c.51-.384 2.668-2.029 2.267-2.527a2.27 2.27 0 00-1.89-.544c-5.9.135-11.148.172-17.05.308" fill="#E0E0E0"/><path d="M329.936 200.765a6.347 6.347 0 00-6.624-6.491 6.331 6.331 0 00-3.252 1.069 11.787 11.787 0 00-4.268 4.678c-2.686 4.917-3.006 10.725-3.566 16.3a39.875 39.875 0 01-4.853 15.774l20.481-24.395a12.022 12.022 0 002.082-6.935z" fill="#0FA6AF"/><path opacity=".2" d="M329.936 200.765a6.347 6.347 0 00-6.624-6.491 6.331 6.331 0 00-3.252 1.069 11.787 11.787 0 00-4.268 4.678c-2.686 4.917-3.006 10.725-3.566 16.3a39.875 39.875 0 01-4.853 15.774l20.481-24.395a12.022 12.022 0 002.082-6.935z" fill="#000"/><path d="M306.483 187.437c1.2 1.032 41.092 46.788 41.092 46.788l-21.592 17.125-27.407-34.15 7.907-29.763zM187.64 202.912c-1.062 1.178-33.28 44.022-33.28 44.022l20.167 21.858 24.754-37.37-11.641-28.51z" fill="#FFBE9D"/><path d="M188.019 231.281c2.355 1.081 3.684 3.593 4.572 6.028.888 2.435 1.55 5.043 3.221 7.022s4.79 3.067 6.892 1.552c2-1.439 2.1-4.455 1.193-6.744a13.764 13.764 0 00-5.852-6.509 29.104 29.104 0 00-8.311-3.115" fill="#0FA6AF"/><path opacity=".2" d="M188.019 231.281c2.355 1.081 3.684 3.593 4.572 6.028.888 2.435 1.55 5.043 3.221 7.022s4.79 3.067 6.892 1.552c2-1.439 2.1-4.455 1.193-6.744a13.764 13.764 0 00-5.852-6.509 29.104 29.104 0 00-8.311-3.115" fill="#000"/><path d="M375.484 317.869a14.073 14.073 0 00-2.2-.422L292.9 283.74h-79.931l-78.8 31.129c-7.992 2.664-19.41 18.269-12.94 36.919.18.518.368 1.023.564 1.514 5.172 12.972 19.548 19.723 33.038 16.116 10.885-2.91 26.529-7.169 42.627-11.576l1.806-.048 50.136-14.227c7.853 2.169 24.351 6.723 42.687 11.76h.007c22.3 6.126 47.3 12.964 62.727 17.089 13.491 3.607 27.866-3.144 33.038-16.115.196-.492.384-.997.564-1.515 6.472-18.648-4.947-34.252-12.939-36.917z" fill="#455A64"/><path d="M248.774 343.745a1.2 1.2 0 01.272-.1l.815-.253 3.181-.933 12-3.414-.135.236-8.006-29.4.278.214-8.237.013c-2.826.039-5.723.251-8.691.379l-18.5 1.009a2617.492 2617.492 0 00-58.469 4.084l-17.7 1.464-4.813.392-1.254.086a2.12 2.12 0 01-.429.008c.138-.039.28-.063.423-.073l1.247-.149 4.8-.512a1383.24 1383.24 0 0117.688-1.667c14.943-1.327 35.609-2.943 58.469-4.271l18.505-.994c2.971-.123 5.879-.329 8.709-.36l8.25.013h.223l.057.214c3.108 11.7 5.8 21.835 7.82 29.449l.05.187-.184.05-12.043 3.239-3.208.835-.829.2c-.094.03-.191.048-.289.054z" fill="#455A64"/><path d="M222.738 310.837c-.09.143-2.311-1.124-4.721-3.14s-4.061-3.966-3.936-4.08c.125-.114 1.962 1.608 4.346 3.589 2.384 1.981 4.412 3.477 4.311 3.631zM366.009 320.775a7.086 7.086 0 01-1.1-.022l-3.151-.19-11.581-.791-38.208-2.572-38.229-2.311-11.587-.687-3.153-.209a7.129 7.129 0 01-1.1-.118 7.088 7.088 0 011.1-.011l3.154.093 11.6.484c9.792.451 23.316 1.172 38.247 2.124 14.931.952 28.43 1.958 38.2 2.755l11.566.995 3.142.309c.37.021.738.072 1.1.151zM250.1 319.238c-.113-.119 1.209-1.329 3.3-1.852 2.085-.542 3.825-.113 3.783.045-.021.189-1.683.066-3.625.575-1.946.483-3.346 1.388-3.458 1.232zM252.283 324.319c-.021-.176 1.439-.494 3.26-.711 1.821-.217 3.315-.25 3.336-.075.021.175-1.439.494-3.26.711-1.821.217-3.319.25-3.336.075zM253.264 330.215c0-.189 1.787-.239 3.862-.852 2.082-.593 3.616-1.506 3.719-1.347.105.127-1.344 1.333-3.54 1.961-2.192.645-4.061.401-4.041.238zM255.22 336.562c-.007-.189 1.707-.326 3.651-1.067 1.952-.72 3.334-1.743 3.453-1.6.118.115-1.156 1.427-3.229 2.2-2.066.782-3.889.631-3.875.467z" fill="#455A64"/><path d="M291.852 307.794c.132.129-1.208 1.688-2.7 3.719-1.492 2.031-2.608 3.761-2.769 3.672-.161-.089.719-1.987 2.255-4.053s3.095-3.459 3.214-3.338z" fill="#455A64"/><path d="M257.464 309.728l-19.151-2.9s-1.746-4.511-4.7-4.738c-2.954-.227-5.675 3.027-7.829 2.823-2.154-.204-27.866-8.841-29.333 2.807l10.694 4.41M320.285 320.279l-57 12.22-5.117-19.568 21.089-1.021s2.526-4.126 5.47-3.821c2.944.305 5.042 3.994 7.2 4.179 2.158.185 29-3.711 28.358 8.011z" fill="#FFBE9D"/><path d="M212.008 285.716s-.163.092-.492.248l-1.466.681c-1.29.6-3.207 1.445-5.687 2.513-4.957 2.14-12.189 5.1-21.158 8.66-8.964 3.579-19.669 7.756-31.425 12.714-5.88 2.468-12.18 4.806-18.18 8.262l-1.116.665a.95.95 0 00-.2.144c-.03.026 0 .012-.006-.026-.007-.067-.018-.065-.018-.065.156.081.325.135.5.161.854.132 1.718.204 2.583.214 1.756.051 3.534.028 5.323-.01 3.58-.084 7.213-.247 10.888-.436 14.705-.782 28.7-1.835 41.423-2.8l33.8-2.7 22.78-1.894 6.194-.505 1.612-.12c.363-.024.551-.023.551-.023s-.185.035-.546.076l-1.608.171-6.186.6-22.766 2.06c-9.615.839-21.067 1.81-33.791 2.811-12.724 1.001-26.718 2.055-41.433 2.838-3.678.189-7.314.352-10.9.434-1.795.037-3.578.06-5.351.007a18.758 18.758 0 01-2.668-.226 1.86 1.86 0 01-.725-.265.432.432 0 01-.173-.339.468.468 0 01.135-.309 1.33 1.33 0 01.321-.241l1.127-.669c6.057-3.48 12.379-5.807 18.253-8.264 11.771-4.936 22.495-9.079 31.474-12.613 8.979-3.534 16.236-6.423 21.215-8.505l5.723-2.422 1.487-.634c.329-.134.506-.193.506-.193zM290.844 285.716c.127.034.251.08.37.136l1.064.449 4.077 1.757 15.024 6.395 49.709 20.759a127.506 127.506 0 0113.987 6.394c.543.3 1.081.612 1.609.932.282.155.553.331.809.526.073.066.14.14.2.219.082.116.114.26.09.4-.016.181-.125.24-.208.342-.083.057-.167.1-.251.147a13.161 13.161 0 01-3.673.45c-2.4.052-4.735-.031-7.015-.128-9.116-.439-17.294-1.193-24.16-1.822a987.545 987.545 0 01-16.246-1.659l-4.41-.511-1.145-.149a2.128 2.128 0 01-.389-.069 2.26 2.26 0 01.394.016l1.151.1 4.42.414 16.258 1.493c6.867.582 15.048 1.3 24.147 1.709 2.274.091 4.608.168 6.982.111a13.163 13.163 0 003.479-.413l.143-.081c0-.022.056-.047.025-.034a.454.454 0 00-.126-.149 6.576 6.576 0 00-.735-.469 47.667 47.667 0 00-1.6-.922 128.342 128.342 0 00-13.936-6.358c-19.417-8.105-36.984-15.46-49.656-20.9-6.335-2.72-11.444-4.964-14.961-6.547l-4.038-1.847-1.043-.5a2.157 2.157 0 01-.346-.191z" fill="#fff"/><path d="M248.726 171.028a16.468 16.468 0 0012.724-4.713 16.462 16.462 0 004.861-12.669c-.244-4.136-.447-7.295-.447-7.295s13.043-2.028 13.2-15.068c.157-13.04-2.1-42.986-2.1-42.986a45.327 45.327 0 00-45.541 5.725l-1.932 1.488 3.959 60.179a16.459 16.459 0 0015.276 15.339z" fill="#FFBE9D"/><path d="M265.885 146.163a30.321 30.321 0 01-17-4.831s4.019 9.385 17.032 8.21l-.032-3.379z" fill="#EB996E"/><path d="M231.1 109.017c-.223-.1-8.961-2.65-8.676 6.266.285 8.916 9.177 6.79 9.184 6.534.007-.256-.508-12.8-.508-12.8z" fill="#FFBE9D"/><path d="M228.779 118.526c-.04-.027-.152.114-.41.243a1.561 1.561 0 01-1.161.061c-.952-.316-1.793-1.786-1.888-3.391a5.126 5.126 0 01.364-2.238 1.798 1.798 0 011.13-1.23.788.788 0 01.93.4c.128.245.077.425.124.439.026.021.187-.155.1-.521a.984.984 0 00-.368-.548 1.169 1.169 0 00-.866-.2 2.187 2.187 0 00-1.579 1.434 5.281 5.281 0 00-.459 2.5c.115 1.794 1.088 3.446 2.389 3.778a1.661 1.661 0 001.413-.282c.272-.229.313-.43.281-.445z" fill="#EB996E"/><path d="M247.621 107.626c.231-.243 1.642.8 3.646.8 2 .023 3.473-1.008 3.69-.762.107.108-.128.546-.769 1.013a5.111 5.111 0 01-2.954.91 4.91 4.91 0 01-2.9-.936c-.618-.477-.827-.917-.713-1.025zM267.32 107.252c.231-.243 1.644.8 3.646.8 2 .023 3.473-1.008 3.69-.762.107.108-.126.546-.769 1.013a5.109 5.109 0 01-2.954.91 4.91 4.91 0 01-2.9-.936c-.616-.477-.826-.917-.713-1.025zM262.075 121.878a13.246 13.246 0 013.255-.587c.511-.053 1-.155 1.082-.5a2.611 2.611 0 00-.342-1.517l-1.513-3.9c-2.1-5.548-3.623-10.11-3.4-10.193.223-.083 2.11 4.347 4.211 9.895.506 1.369.99 2.672 1.45 3.92.322.618.415 1.329.265 2.009a1.284 1.284 0 01-.841.748 3.55 3.55 0 01-.869.121 13.047 13.047 0 01-3.298.004zM256.177 123.264c.326-.018.33 2.157 2.192 3.7 1.862 1.543 4.177 1.3 4.194 1.608.03.137-.516.423-1.495.45a5.423 5.423 0 01-3.5-1.22 4.722 4.722 0 01-1.7-3.1c-.083-.911.16-1.45.309-1.438zM255.319 101.2c-.2.545-2.2.287-4.55.57-2.357.236-4.253.925-4.564.436-.14-.234.191-.746.958-1.274a7.965 7.965 0 016.943-.767c.863.35 1.294.778 1.213 1.035zM273.763 103.115c-.352.456-1.732-.017-3.393-.039-1.659-.08-3.065.306-3.389-.17-.142-.231.079-.687.694-1.118a4.908 4.908 0 015.465.169c.586.468.779.936.623 1.158z" fill="#455A64"/><path d="M283.321 80.065a4.815 4.815 0 00-1.777-4.3 3.415 3.415 0 00-4.424.331 3.99 3.99 0 00-1.856-4.302 3.978 3.978 0 00-1.57-.53c-2.127-.135-3.94 1.472-6 2.035a9.68 9.68 0 01-6.089-.7c-1.929-.777-3.733-1.849-5.687-2.563a16.676 16.676 0 00-21.328 9.792c-2.852-.89-6.093.557-7.852 2.972a12.148 12.148 0 00-1.86 8.556c.279 2 .779 3.963 1.492 5.852 0 .168-.017.332-.014.5.135 7.171.945 15.592 4.005 15.639 5.332.082 4.061-9.964 4.061-9.964 6.544-2.529 4.106-12.333 5.743-13.82 1.637-1.489 5.059-4.944 18.759 2.06 5.32 2.718 12.394 2.633 16.256 1.757.113-.025.228-.042.34-.07.024-.006.056-.01.08-.016.042-.01.072-.034.113-.045a12.357 12.357 0 003.513-1.49 6.936 6.936 0 002.9-3.22 3.802 3.802 0 00-.747-4.083 8.357 8.357 0 001.942-4.39z" fill="#455A64"/><path d="M270.3 62.994c.015-.009.1.111.242.352.213.352.389.723.528 1.11a8.464 8.464 0 01.275 4.49 8.793 8.793 0 01-3.6 5.574c-2.18 1.452-5.162 1.732-8.025 1.3-2.9-.42-5.5-1.363-7.929-1.858a14.45 14.45 0 00-6.491-.162 8.544 8.544 0 00-3.885 1.958c-.759.716-1.047 1.237-1.092 1.207a1.32 1.32 0 01.193-.383c.216-.35.47-.674.757-.969a8.328 8.328 0 013.939-2.17 14.428 14.428 0 016.672.046c2.473.48 5.083 1.405 7.9 1.812a11.2 11.2 0 007.688-1.184 8.523 8.523 0 003.508-5.25 8.71 8.71 0 00-.107-4.35c-.298-.997-.625-1.493-.573-1.523z" fill="#455A64"/><path d="M266.918 65.425a2.793 2.793 0 01.841 2 4.598 4.598 0 01-.441 2.363 5.093 5.093 0 01-2.028 2.134 6.05 6.05 0 01-2.818.81 7.099 7.099 0 01-2.357-.318 4.51 4.51 0 01-1.925-.986c.039-.078.762.326 2.021.63a6.54 6.54 0 004.816-.586 4.835 4.835 0 001.862-1.9 4.498 4.498 0 00.5-2.128 6.685 6.685 0 00-.471-2.02z" fill="#455A64"/><path d="M312.589 280.124a9.884 9.884 0 01-5.436 9.594L292.9 283.74l-17.569 1.181 6.931-18.818s19.742 2.421 22.535 4.656c2.793 2.235 8.016 6.405 7.792 9.365z" fill="#0FA6AF"/><path opacity=".4" d="M312.589 280.124a9.884 9.884 0 01-5.436 9.594L292.9 283.74l-17.569 1.181 6.931-18.818s19.742 2.421 22.535 4.656c2.793 2.235 8.016 6.405 7.792 9.365z" fill="#000"/><path d="M312.589 280.124a9.884 9.884 0 01-5.436 9.594L292.9 283.74l-17.569 1.181 6.931-18.818s19.742 2.421 22.535 4.656c2.793 2.235 8.016 6.405 7.792 9.365z" fill="#0FA6AF"/><path opacity=".4" d="M312.589 280.124a9.884 9.884 0 01-5.436 9.594L292.9 283.74l-17.569 1.181 6.931-18.818s19.742 2.421 22.535 4.656c2.793 2.235 8.016 6.405 7.792 9.365z" fill="#000"/><path d="M327.387 195.559l-1.424-1.236-30.152-23.612c-9.307-9.894-16.078-12.873-29.169-14.419-2.139-.253 1.223.153 0 0-10.045 3.092-23.494 3.388-33.539.283-4.657.2-8.515 1.632-12.477 2.391-12.476 2.39-19.145 11.2-23.95 19.869l-24.136 40.5 1.034 1.6a27.734 27.734 0 0014.257 11.165l1.622.81a37.085 37.085 0 0114.235 11.931l10.633-18.565-2.987 29.762-2.064 29.228a145.859 145.859 0 0043.617 5.564c21.026.094 50.26-25.5 59.7-10.7.136-7.585-9.413-17.969-12.057-23-8.214-15.626-6.67-21.946-7.267-33.672l14.108 8.641 2.529-4.947c2.137-4.181 6.216-13.483 7.737-20.74.002-.004 1.663-13.545 9.75-10.853z" fill="#0FA6AF"/><path d="M214.394 196.279c.088.401.124.812.109 1.223.032.788.059 1.927.079 3.334.04 2.815.055 6.7.035 11-.02 4.3-.071 8.185-.138 11a137.153 137.153 0 01-.11 3.332c.011.411-.03.821-.121 1.222a4.98 4.98 0 01-.109-1.223c-.032-.787-.058-1.926-.079-3.333-.04-2.815-.055-6.7-.035-11 .02-4.3.072-8.183.138-11 .034-1.407.071-2.546.11-3.333-.011-.411.03-.822.121-1.222zM294.978 243.481a11.565 11.565 0 01-.25-1.89l-.461-5.169c-.363-4.366-.824-10.4-1.3-17.068-.476-6.668-.868-12.71-1.125-17.084-.111-2.111-.2-3.858-.273-5.182a11.553 11.553 0 01-.019-1.906c.133.622.216 1.254.249 1.889l.461 5.169c.363 4.366.825 10.4 1.3 17.072.475 6.672.867 12.707 1.124 17.081.111 2.111.2 3.857.273 5.182.059.634.066 1.271.021 1.906z" fill="#455A64"/><path opacity=".2" d="M229.3 157.623a77.498 77.498 0 0024.327 22.119c3.5 2.021 7.271 3.8 11.3 4.124 6.943.564 13.5-3.226 18.886-7.643 2.129-1.746 4.238-3.725 5.145-6.325.907-2.6.2-5.957-2.238-7.242a6.334 6.334 0 00-5.481.181 30.742 30.742 0 00-4.739 3.115 31.828 31.828 0 01-24.23 5.252 31.812 31.812 0 01-20.644-13.729" fill="#000"/><path d="M270.956 229.515a27.368 27.368 0 00-.639-4.195 16.528 16.528 0 00-1.929-4.556 17.087 17.087 0 00-20.52-7.255c-1.547.549-3 1.332-4.308 2.323a19.266 19.266 0 00-1.931 1.644c-.599.62-1.157 1.28-1.668 1.975a16.952 16.952 0 000 20.127 15.6 15.6 0 003.6 3.62 16.01 16.01 0 004.309 2.324 17.142 17.142 0 0020.521-7.256 16.54 16.54 0 001.929-4.556c.321-1.381.535-2.786.638-4.2.016.093.02.187.013.281 0 .215-.01.486-.016.824.001.448-.036.894-.111 1.336a12.224 12.224 0 01-.328 1.8 16.33 16.33 0 01-1.875 4.656A17.424 17.424 0 01256.9 246.7c-3.077.583-6.254.33-9.2-.731a16.45 16.45 0 01-4.442-2.375 16.02 16.02 0 01-3.714-3.717 17.428 17.428 0 010-20.732 16.02 16.02 0 013.714-3.717 16.456 16.456 0 014.441-2.374 17.514 17.514 0 019.2-.731 17.433 17.433 0 0111.735 8.288 16.32 16.32 0 011.876 4.656 12.2 12.2 0 01.328 1.8c.075.442.112.889.111 1.337l.016.824a1.15 1.15 0 01-.009.287z" fill="#fff"/><path d="M253.136 246.776c-.144 0-.261-7.731-.261-17.264s.117-17.266.261-17.266c.144 0 .26 7.729.26 17.266 0 9.537-.117 17.264-.26 17.264z" fill="#fff"/><path d="M267.371 240.039a7.144 7.144 0 01-1.158-.8l-3.038-2.324a937.848 937.848 0 01-9.9-7.824l-.3-.243.341-.014a893.104 893.104 0 01-9.058 8.408l-2.774 2.5a6.83 6.83 0 01-1.064.863c.275-.365.586-.703.927-1.008l2.662-2.616c2.265-2.194 5.424-5.2 8.95-8.521l.165-.155.176.141.3.244a892.358 892.358 0 019.8 7.942l2.934 2.454c.375.284.723.603 1.037.953z" fill="#fff"/><path opacity=".2" d="M238.891 275.713a40.618 40.618 0 0039.38-15.417c1.438-1.928 2.757-4.295 2.162-6.625-.622-2.433-3.282-3.953-5.793-3.887a10.978 10.978 0 00-6.718 3.063c-4.581 4.014-7.2 9.893-11.768 13.926a20.997 20.997 0 01-14.994 5.164 11.48 11.48 0 00-2.506.1 2.272 2.272 0 00-1.918 1.995c0 .994.782 1.416 2.155 1.683M292.025 205.24l1.24 18.214 14.108 8.641 2.943-5.5-18.291-21.355z" fill="#000"/><path d="M327.659 195.853a7.114 7.114 0 00-1.689-.335 6.397 6.397 0 00-4.268 1.6 11.594 11.594 0 00-3.335 5.972c-.691 2.55-1.346 5.427-2.27 8.36a112.056 112.056 0 01-5.635 14.711 91.089 91.089 0 01-2.131 4.273 11.211 11.211 0 01-.887 1.511 11.4 11.4 0 01.706-1.6c.47-1.023 1.172-2.491 1.976-4.334A132.335 132.335 0 00315.6 211.3c.923-2.929 1.581-5.762 2.308-8.343.736-2.563 1.9-4.848 3.564-6.123a6.432 6.432 0 014.514-1.515c.439.036.87.141 1.276.313.143.052.277.127.397.221zM203.688 244.836a11.918 11.918 0 01-1.031-1.235 40.426 40.426 0 00-2.917-3.247 27.46 27.46 0 00-5.05-4c-2.059-1.3-4.47-2.477-6.991-3.761a64.855 64.855 0 01-6.917-4 28.7 28.7 0 01-4.991-4.223 18.001 18.001 0 01-2.582-3.572 9.817 9.817 0 01-.526-1.076 1.254 1.254 0 01-.143-.393 26.542 26.542 0 003.52 4.789 30.012 30.012 0 004.991 4.077 70.542 70.542 0 006.885 3.936c2.511 1.279 4.94 2.479 7.01 3.819A26.292 26.292 0 01200 240.1a31.29 31.29 0 012.816 3.383c.3.422.528.756.671.989.143.233.213.353.201.364zM283.635 250.887a2.742 2.742 0 01-.18.575c-.143.367-.319.925-.631 1.607a37.392 37.392 0 01-2.995 5.6 40.076 40.076 0 01-35.679 18.41 37.313 37.313 0 01-6.3-.8c-.736-.142-1.293-.321-1.675-.416a2.589 2.589 0 01-.572-.187c.202.005.404.033.6.084.389.063.95.21 1.689.32 2.072.367 4.168.579 6.272.634a40.714 40.714 0 0035.358-18.245 42.502 42.502 0 003.118-5.48c.339-.666.545-1.208.719-1.562a2.62 2.62 0 01.276-.54z" fill="#455A64"/><path opacity=".2" d="M204.58 242.745a147.621 147.621 0 019.813-42.454l-.024 25.875-9.789 16.579z" fill="#000"/><path d="M228.788 157.1c4.386 9.391 15.961 14.723 26.139 16.682a33.498 33.498 0 0028.771-8.328c6.406-6.01 10.17-14.329 16.129-20.783a41.049 41.049 0 0141.147-11.171l.788-14.2c-4.859-3.149-17.371-4.293-23.1-3.43a45.509 45.509 0 00-28.816 16.873c-6.282 8.078-9.983 18.462-18.315 24.4-6.021 4.294-13.487 4.326-20.779 3.091-7.292-1.235-12.2-7.9-17.837-12.688l-4.127 9.554z" fill="#455A64"/><path d="M232.868 147.561a23.426 23.426 0 0032.91 3.9c1.3-1.026 2.966-2.264 4.436-1.5 1.136.594 1.418 2.064 1.569 3.337.351 2.94.626 6.193-1.1 8.6-1.658 2.306-4.676 3.126-7.478 3.59-6.647 1.1-13.693 1.026-19.85-1.71-6.157-2.736-9.95-9.5-10.484-16.213" fill="#455A64"/><path d="M274.428 154.751c.013.013-.1.138-.326.366-.226.228-.556.572-1.021.968a23.502 23.502 0 01-4.266 2.931 23.925 23.925 0 01-7.261 2.5 23.122 23.122 0 01-9.393-.294 31.226 31.226 0 01-8.617-3.765 93.542 93.542 0 01-3.481-2.163 26.948 26.948 0 01-2.841-2.184 18.86 18.86 0 01-3.432-3.877 10.365 10.365 0 01-.691-1.229 1.754 1.754 0 01-.18-.458c.043-.021.337.587 1.039 1.573a20.657 20.657 0 003.5 3.712c.901.759 1.85 1.46 2.839 2.1 1.066.684 2.251 1.386 3.486 2.109a31.697 31.697 0 008.5 3.673c3.011.722 6.136.834 9.191.327a24.519 24.519 0 007.169-2.357 26.448 26.448 0 004.307-2.761c.47-.418.964-.809 1.478-1.171zM291.62 154.833a53.439 53.439 0 01-5.842-2.987 53.934 53.934 0 01-5.71-3.235 56.844 56.844 0 0111.552 6.222zM298.593 145.747a49.766 49.766 0 01-6.411-3.242 49.663 49.663 0 01-6.161-3.7 49.972 49.972 0 016.412 3.242 49.578 49.578 0 016.16 3.7zM305.331 138.229a9.73 9.73 0 01-1.659-1.44l-3.828-3.637-3.853-3.611a9.749 9.749 0 01-1.534-1.572 8.722 8.722 0 011.777 1.3 78.312 78.312 0 013.967 3.508 77.365 77.365 0 013.733 3.757 8.775 8.775 0 011.397 1.695zM306.346 119.522a12.833 12.833 0 011.438 2.054l3.277 5.064 3.325 5.035c.503.669.938 1.387 1.3 2.142a11.42 11.42 0 01-1.6-1.93 95.6 95.6 0 01-3.46-4.962 96.12 96.12 0 01-3.156-5.159 11.294 11.294 0 01-1.124-2.244zM322.045 116.556c.273.724.469 1.474.586 2.238l1.225 5.424 1.325 5.4c.236.736.395 1.496.473 2.265a9.538 9.538 0 01-.828-2.164 73.364 73.364 0 01-1.477-5.383 72.82 72.82 0 01-1.079-5.476 9.544 9.544 0 01-.225-2.304zM334.34 116.384c.153.007.091 3.379.3 7.525.209 4.146.59 7.5.439 7.518a8.578 8.578 0 01-.455-2.171c-.2-1.353-.4-3.235-.5-5.322a57.33 57.33 0 01-.019-5.344 8.53 8.53 0 01.235-2.206z" fill="#455A64"/><path d="M282.674 166.212a47.873 47.873 0 01-5.229-4.734 47.737 47.737 0 01-4.867-5.107 47.873 47.873 0 015.23 4.734 47.827 47.827 0 014.866 5.107zM268.554 173.486a43.074 43.074 0 01-2.175-6.327 42.965 42.965 0 01-1.678-6.479 43.102 43.102 0 012.176 6.329 43.176 43.176 0 011.677 6.477zM252.837 173.277c.145-1.981.464-3.945.952-5.87.318-1.961.807-3.89 1.461-5.766a34.116 34.116 0 01-.951 5.872 34.17 34.17 0 01-1.462 5.764zM240.99 168.758a27.433 27.433 0 014.813-9.933c.128.081-1.122 2.212-2.443 4.949-1.321 2.737-2.227 5.033-2.37 4.984zM237.715 153.648a18.54 18.54 0 01-2.292 4.527 18.514 18.514 0 01-3.04 4.063 37.159 37.159 0 012.6-4.337 37.534 37.534 0 012.732-4.253zM250.938 156.658c.143.037.053.832-.047 1.8-.1.968-.183 1.762-.33 1.768-.147.006-.3-.812-.187-1.823.113-1.011.426-1.782.564-1.745zM260.711 161.317a15.143 15.143 0 01-.685-6.482c.307 1.048.478 2.132.508 3.224.198 1.074.258 2.169.177 3.258zM267.727 150.735c.337 1.309.575 2.642.712 3.987.308 1.316.516 2.653.623 4a17.467 17.467 0 01-1.335-7.989v.002z" fill="#455A64"/><path d="M176.959 267.4l62.795-36.378a16.173 16.173 0 005.73-5.619 16.17 16.17 0 002.327-7.681l1.659-38.21a1.96 1.96 0 00-1.784-2.038 1.961 1.961 0 00-2.063 1.424l-8.023 28.67-74.708 31.642a15.787 15.787 0 00-7.949 21.615 15.779 15.779 0 0022.016 6.575z" fill="#FFBE9D"/><path d="M237.6 207.568c-.229.147-.47.274-.719.38l-2.1 1-7.786 3.562c-6.589 2.973-15.728 7-25.888 11.3-10.16 4.3-19.431 8.027-26.169 10.65a509.041 509.041 0 01-8 3.055l-2.187.8a4.712 4.712 0 01-.775.245c.235-.135.482-.25.737-.343l2.152-.888 7.935-3.209c6.7-2.709 15.941-6.494 26.1-10.787a2559.75 2559.75 0 0025.942-11.156l7.852-3.41 2.144-.909c.245-.118.5-.215.762-.29z" fill="#EB996E"/><path d="M156.719 264.129c-.007-.048.837-.143 2.313-.5a13.999 13.999 0 002.587-.935 20.325 20.325 0 003.08-1.958 209.103 209.103 0 003.542-2.7c1.254-.982 2.554-2.109 3.93-3.278a46.779 46.779 0 019.609-6.8 32.578 32.578 0 0111.324-3.214 33.723 33.723 0 019.606.495 31.041 31.041 0 016.189 1.931c.7.3 1.223.6 1.584.773.188.082.367.185.532.307-.2-.049-.394-.12-.578-.212-.374-.147-.9-.41-1.616-.681a33.66 33.66 0 00-15.67-2.135 32.71 32.71 0 00-11.139 3.2 47.728 47.728 0 00-9.532 6.7c-1.383 1.159-2.7 2.264-3.972 3.251-1.272.987-2.482 1.861-3.593 2.664a19.55 19.55 0 01-3.172 1.923c-.855.384-1.748.675-2.665.869-.576.121-1.158.213-1.744.273-.204.032-.41.042-.615.027z" fill="#455A64"/><path d="M168.757 258.233c.088.315.16.633.216.955a5.326 5.326 0 001.246 2.264 7.952 7.952 0 003.2 2.1 6.646 6.646 0 004.59-.175c.153-.061.3-.139.435-.2l-.12.33a8.72 8.72 0 00-2.763-3.568 8.555 8.555 0 00-3.361-1.539 13.383 13.383 0 00-3.444-.164c.287-.137.599-.218.917-.238a8.189 8.189 0 012.6.047 8.54 8.54 0 013.57 1.517 8.92 8.92 0 012.962 3.75l.1.231-.216.1c-.15.069-.308.152-.473.219a7 7 0 01-4.945.15 7.995 7.995 0 01-3.323-2.315 5.114 5.114 0 01-1.167-2.464 2.266 2.266 0 01-.024-1z" fill="#455A64"/><path d="M168.757 258.233a22.82 22.82 0 015.946 3.434 22.732 22.732 0 01-5.946-3.434zM178.213 250.459c.159.285.302.578.429.879a5.349 5.349 0 001.732 1.919 7.963 7.963 0 003.6 1.313 6.656 6.656 0 004.428-1.223c.134-.094.257-.2.377-.3l-.042.349a8.68 8.68 0 00-3.507-2.839 8.569 8.569 0 00-3.622-.733 13.35 13.35 0 00-3.39.631c.248-.2.533-.35.838-.443a8.197 8.197 0 012.539-.549 8.52 8.52 0 013.823.659 8.899 8.899 0 013.742 2.971l.146.2-.188.147c-.13.1-.264.219-.41.322a6.991 6.991 0 01-4.779 1.28 8.008 8.008 0 01-3.765-1.492 5.123 5.123 0 01-1.7-2.131 2.279 2.279 0 01-.251-.96z" fill="#455A64"/><path d="M178.213 250.459a22.73 22.73 0 016.575 1.979 22.761 22.761 0 01-6.575-1.979zM161.617 262.636c.195-.262.403-.514.624-.754a5.366 5.366 0 001.032-2.369 7.98 7.98 0 00-.289-3.816 6.655 6.655 0 00-2.942-3.528c-.142-.083-.291-.151-.425-.222l.335-.106a8.68 8.68 0 00-1.138 4.367 8.53 8.53 0 00.829 3.6 13.252 13.252 0 001.974 2.826 2.507 2.507 0 01-.749-.58 8.182 8.182 0 01-1.549-2.085 8.54 8.54 0 01-.979-3.754 8.909 8.909 0 011.161-4.635l.124-.217.211.111c.146.076.309.15.463.24a7 7 0 013.139 3.824 8.01 8.01 0 01.2 4.045 5.121 5.121 0 01-1.239 2.429 2.284 2.284 0 01-.782.624z" fill="#455A64"/><path d="M161.617 262.636a22.7 22.7 0 01-.913-6.8c.645 2.208.953 4.5.913 6.8zM185.027 247.013c.262-.145.534-.272.813-.381a4.924 4.924 0 001.792-1.547 7.317 7.317 0 001.279-3.262 6.092 6.092 0 00-1.019-4.077c-.083-.126-.179-.24-.262-.352l.348.05a7.968 7.968 0 00-2.68 3.144 7.838 7.838 0 00-.758 3.3 12.82 12.82 0 00.487 3.125 2.147 2.147 0 01-.395-.776 7.399 7.399 0 01-.453-2.345 7.837 7.837 0 01.688-3.5 8.2 8.2 0 012.818-3.376l.206-.141.143.192c.09.122.2.248.287.385a6.441 6.441 0 011.067 4.429 7.352 7.352 0 01-1.463 3.428 4.696 4.696 0 01-2 1.511 2.007 2.007 0 01-.898.193z" fill="#455A64"/><path d="M185.027 247.013c.32-2.091.985-4.115 1.966-5.989a19.254 19.254 0 01-1.966 5.989zM193.076 244.932a6.772 6.772 0 01-.063.9c-.03.8.135 1.596.481 2.318a7.299 7.299 0 002.227 2.705 6.096 6.096 0 004.058 1.093c.15-.012.3-.04.435-.057l-.213.279a7.98 7.98 0 00-1.443-3.872 7.869 7.869 0 00-2.515-2.267 12.915 12.915 0 00-2.967-1.095c.29-.048.586-.037.871.033a7.446 7.446 0 012.268.745 7.82 7.82 0 012.725 2.3 8.187 8.187 0 011.579 4.1l.023.249-.237.031c-.15.02-.312.05-.476.063a6.432 6.432 0 01-4.389-1.222 7.34 7.34 0 01-2.284-2.946 4.699 4.699 0 01-.345-2.484c.02-.308.111-.606.265-.873z" fill="#455A64"/><path d="M193.076 244.932a19.246 19.246 0 014.276 4.631 19.207 19.207 0 01-4.276-4.631zM198.9 244.7a5.32 5.32 0 002.766-.5 6.346 6.346 0 002.254-2.025 5.27 5.27 0 00.8-3.54c-.015-.129-.045-.255-.065-.373l.288.2a6.904 6.904 0 00-3.3 1.38 6.823 6.823 0 00-1.879 2.249 12.413 12.413 0 00-.868 2.6 1.725 1.725 0 01-.014-.76 6.398 6.398 0 01.558-2 6.798 6.798 0 011.908-2.461 7.125 7.125 0 013.524-1.525l.247-.033.041.235c.022.131.055.271.072.414a5.62 5.62 0 01-.915 3.876 6.39 6.39 0 01-2.493 2.091 4.068 4.068 0 01-2.156.379 1.6 1.6 0 01-.768-.207z" fill="#455A64"/><path d="M198.9 244.7a14.52 14.52 0 013.871-3.876 14.565 14.565 0 01-3.871 3.876zM173.494 253.739a9.16 9.16 0 01.624-.753 5.37 5.37 0 001.032-2.37 7.98 7.98 0 00-.289-3.816 6.655 6.655 0 00-2.942-3.528c-.142-.083-.291-.15-.425-.221l.335-.106a8.676 8.676 0 00-1.138 4.366 8.53 8.53 0 00.829 3.6 13.252 13.252 0 001.974 2.826 2.463 2.463 0 01-.749-.58 8.182 8.182 0 01-1.549-2.085 8.54 8.54 0 01-.979-3.754 8.909 8.909 0 011.161-4.635l.124-.217.211.111c.146.076.309.15.463.24a7.003 7.003 0 013.138 3.824 7.991 7.991 0 01.2 4.046 5.112 5.112 0 01-1.238 2.428 2.284 2.284 0 01-.782.624z" fill="#455A64"/><path d="M173.494 253.739a22.7 22.7 0 01-.913-6.8c.645 2.208.953 4.5.913 6.8z" fill="#455A64"/><path d="M328.471 256.711l-63.962-28.594a15.62 15.62 0 01-9.077-11.96l-5.447-36.521a1.89 1.89 0 011.507-2.137 1.897 1.897 0 012.124 1.16l10.6 26.72 74.922 22.847c9.38 3.03 13 11.754 9.813 19.951a15.245 15.245 0 01-14.455 9.861 15.231 15.231 0 01-6.025-1.327z" fill="#FFBE9D"/><path d="M264.212 205.379c.259.044.514.111.761.2l2.15.654 7.884 2.48c6.654 2.1 15.849 5 26.034 8.093 10.185 3.093 19.443 5.8 26.149 7.727l7.942 2.283 2.155.637c.255.063.503.149.743.257a4.49 4.49 0 01-.77-.155l-2.181-.543a506.595 506.595 0 01-7.988-2.125c-6.734-1.837-16.008-4.485-26.2-7.583a1154.577 1154.577 0 01-26-8.241l-7.834-2.637-2.12-.747a4.41 4.41 0 01-.725-.3z" fill="#EB996E"/><path d="M347.575 251.529a2.572 2.572 0 01-.594.034 16.086 16.086 0 01-1.7-.084c-.9-.093-1.788-.282-2.648-.564a19.091 19.091 0 01-3.241-1.526 132.417 132.417 0 01-3.719-2.2c-1.328-.82-2.7-1.747-4.143-2.72a46.02 46.02 0 00-9.826-5.469 31.585 31.585 0 00-11.015-1.952 32.546 32.546 0 00-14.828 3.626c-.656.331-1.139.637-1.484.815a2.676 2.676 0 01-.535.261c.145-.135.306-.253.479-.35.328-.208.8-.543 1.443-.9a29.903 29.903 0 015.747-2.482 32.516 32.516 0 019.175-1.445 31.44 31.44 0 0111.2 1.943 45.195 45.195 0 019.914 5.56c1.438.985 2.8 1.923 4.1 2.752 1.3.829 2.547 1.568 3.673 2.241a19.59 19.59 0 003.153 1.57c.836.297 1.699.511 2.577.638 1.454.197 2.274.204 2.272.252z" fill="#455A64"/><path d="M335.422 247.083c.101.309.131.637.087.959a4.928 4.928 0 01-.87 2.486 7.706 7.706 0 01-2.958 2.562 6.758 6.758 0 01-4.77.356c-.166-.047-.325-.112-.476-.163l-.226-.077.071-.239a8.618 8.618 0 012.468-3.9 8.225 8.225 0 013.279-1.816 7.848 7.848 0 012.49-.306c.306-.012.612.036.9.141-1.113.03-2.218.201-3.288.51a8.248 8.248 0 00-3.065 1.82 8.392 8.392 0 00-2.29 3.7l-.154-.315c.138.046.285.105.437.149a6.416 6.416 0 004.419-.294 7.702 7.702 0 002.857-2.337 5.18 5.18 0 00.97-2.3c.021-.314.061-.626.119-.936z" fill="#455A64"/><path d="M335.422 247.083a21.253 21.253 0 01-5.363 3.9 21.218 21.218 0 015.363-3.9zM325.558 240.572c.027.324-.019.65-.135.953a4.936 4.936 0 01-1.416 2.221 7.73 7.73 0 01-3.468 1.816 6.762 6.762 0 01-4.724-.747c-.15-.084-.291-.184-.426-.268l-.2-.127.125-.216a8.612 8.612 0 013.3-3.233 8.237 8.237 0 013.609-1.017 7.86 7.86 0 012.494.274c.302.059.59.175.848.344a13.143 13.143 0 00-3.317-.258 8.256 8.256 0 00-3.4 1.069 8.396 8.396 0 00-3.077 3.078l-.078-.342c.124.077.253.168.391.245a6.418 6.418 0 004.369.727 7.694 7.694 0 003.316-1.62 5.174 5.174 0 001.471-2.013 8.2 8.2 0 01.318-.886z" fill="#455A64"/><path d="M325.558 240.572a21.294 21.294 0 01-6.113 2.563 21.16 21.16 0 016.113-2.563zM342.722 250.59a2.172 2.172 0 01-.813-.517 4.946 4.946 0 01-1.438-2.207 7.725 7.725 0 01-.221-3.908 6.758 6.758 0 012.631-3.994c.138-.1.287-.189.42-.277l.2-.132.146.2a8.611 8.611 0 011.583 4.338 8.23 8.23 0 01-.565 3.706 7.86 7.86 0 01-1.279 2.158c-.384.451-.642.652-.663.631.654-.9 1.192-1.879 1.6-2.915.4-1.134.547-2.342.431-3.539a8.377 8.377 0 00-1.533-4.074l.345.071c-.122.082-.258.161-.386.255a6.425 6.425 0 00-2.466 3.678 7.692 7.692 0 00.106 3.69 5.152 5.152 0 001.226 2.17c.419.435.701.628.676.666z" fill="#455A64"/><path d="M342.722 250.59a21.232 21.232 0 01.19-6.627 21.294 21.294 0 01-.19 6.627zM318.669 237.95a1.885 1.885 0 01-.881-.094 4.512 4.512 0 01-2.079-1.247 7.086 7.086 0 01-1.754-3.146 6.218 6.218 0 01.578-4.367c.075-.141.163-.273.238-.4l.121-.205.22.119a7.928 7.928 0 013.049 2.961 7.574 7.574 0 011.013 3.3 7.183 7.183 0 01-.2 2.3c-.045.28-.147.546-.3.784.17-1.007.219-2.03.145-3.049a7.59 7.59 0 00-1.06-3.088 7.69 7.69 0 00-2.889-2.745l.341-.086c-.067.115-.148.235-.215.363a5.876 5.876 0 00-.568 4.011 7.053 7.053 0 001.554 3 4.741 4.741 0 001.873 1.306c.277.076.549.171.814.283z" fill="#455A64"/><path d="M318.669 237.95a17.877 17.877 0 01-2.492-5.552 17.97 17.97 0 012.492 5.552zM310.73 236.764c.178.24.297.52.346.815A4.525 4.525 0 01311 240a7.114 7.114 0 01-1.9 3.063 6.222 6.222 0 01-4.1 1.62c-.159 0-.318-.009-.465-.013l-.238-.007v-.249a7.903 7.903 0 011.1-4.1 7.56 7.56 0 012.388-2.49 7.17 7.17 0 012.105-.942c.267-.096.551-.135.834-.116-.963.341-1.881.796-2.735 1.356a7.59 7.59 0 00-2.182 2.429 7.692 7.692 0 00-.993 3.859l-.241-.255c.134 0 .278.015.422.011a5.88 5.88 0 003.781-1.456 7.08 7.08 0 001.865-2.818c.26-.727.339-1.507.23-2.271a6.2 6.2 0 01-.141-.857z" fill="#455A64"/><path d="M310.73 236.764a17.869 17.869 0 01-3.639 4.878 17.904 17.904 0 013.639-4.878zM305.116 237.132a1.51 1.51 0 01-.719.285 3.91 3.91 0 01-2.111-.143 6.175 6.175 0 01-2.609-1.757 5.428 5.428 0 01-1.272-3.636c0-.139.019-.277.028-.4l.016-.238.249.007a6.879 6.879 0 013.541 1.111 6.564 6.564 0 012.081 2.174c.346.579.595 1.211.737 1.871.074.236.094.486.059.731-.28-.84-.648-1.648-1.1-2.41a6.623 6.623 0 00-2.029-1.967 6.685 6.685 0 00-3.3-.99l.265-.231c-.007.116-.023.239-.025.364a5.089 5.089 0 001.122 3.313 6.143 6.143 0 002.365 1.717 5.184 5.184 0 002.702.199z" fill="#455A64"/><path d="M305.116 237.132a6.93 6.93 0 01-2.218-1.463c-1.135-.92-1.981-1.756-1.89-1.868.826.34 1.579.837 2.218 1.463 1.134.92 1.98 1.757 1.89 1.868zM330.421 243.245a2.154 2.154 0 01-.813-.516 4.938 4.938 0 01-1.438-2.207 7.725 7.725 0 01-.221-3.908 6.75 6.75 0 012.631-3.994c.138-.1.287-.19.42-.278l.2-.132.146.2a8.617 8.617 0 011.583 4.337 8.237 8.237 0 01-.565 3.707 7.86 7.86 0 01-1.279 2.158c-.384.45-.642.652-.663.63.655-.9 1.192-1.879 1.6-2.915a8.274 8.274 0 00.431-3.538 8.377 8.377 0 00-1.533-4.074l.345.07c-.122.082-.258.162-.386.256a6.409 6.409 0 00-2.466 3.678 7.664 7.664 0 00.106 3.689 5.162 5.162 0 001.226 2.171c.419.436.701.629.676.666z" fill="#455A64"/><path d="M330.421 243.246a21.233 21.233 0 01.19-6.627 21.263 21.263 0 01-.19 6.627zM62.346 393.427c.047-.152.108-.3.183-.442l.593-1.264a31.72 31.72 0 001.742-5.06c1.152-4.5 1.554-11.373-.15-19.539A104.795 104.795 0 0061.093 354c-1.535-4.658-3.316-9.6-4.771-14.942a57.828 57.828 0 01-2.356-17.181c.22-6.077 2.02-12.142 4-18.18s4.015-11.959 4.627-17.9a27.285 27.285 0 00-3.282-16.535c-2.618-4.825-5.914-8.952-8.38-13.227a45.977 45.977 0 01-5.036-12.714 47.35 47.35 0 01-.32-19.7 36.687 36.687 0 012.057-6.956 2.802 2.802 0 01-.123.462l-.416 1.334a50.725 50.725 0 00-1.277 5.207 47.974 47.974 0 00.51 19.55 45.858 45.858 0 005.054 12.554c2.46 4.223 5.77 8.333 8.44 13.214a27.84 27.84 0 013.38 16.866c-.614 6.046-2.672 12-4.642 18.037-1.97 6.037-3.758 12.035-3.979 18.011a57.548 57.548 0 002.3 17.006c1.432 5.316 3.193 10.259 4.708 14.93a103.69 103.69 0 013.565 13.2c1.659 8.227 1.186 15.171-.05 19.685a29.23 29.23 0 01-1.864 5.052l-.651 1.241a2.76 2.76 0 01-.24.413z" fill="#455A64"/><path d="M54.279 260.245s-5.007-16.011 3.975-25.386a.552.552 0 01.56-.155.558.558 0 01.39.43c.48 2.644 1.08 10.698-4.925 25.111z" fill="#0FA6AF"/><path d="M57.279 240.194a14.778 14.778 0 01-.338 2.954l-1.142 7.062-1.121 7.062a16.062 16.062 0 01-.53 2.922c-.09-.992-.06-1.991.09-2.976.165-1.829.488-4.346.942-7.109.454-2.763.933-5.25 1.325-7.042.15-.984.41-1.947.774-2.873z" fill="#455A64"/><path d="M60.16 298.009s3.063-16.494 15.386-20.581a.549.549 0 01.72.387.556.556 0 01-.007.302c-.813 2.561-4.05 9.96-16.1 19.892z" fill="#0FA6AF"/><path d="M72.189 281.688a14.741 14.741 0 01-1.68 2.453c-1.242 1.645-2.7 3.576-4.312 5.708l-4.297 5.718a16.102 16.102 0 01-1.835 2.335c.384-.919.878-1.788 1.47-2.588 1-1.54 2.465-3.614 4.158-5.843 1.693-2.229 3.28-4.2 4.465-5.605a13.399 13.399 0 012.03-2.178z" fill="#455A64"/><path d="M56.83 339.388s-1.86-16.673 8.745-24.162a.56.56 0 01.58-.046.555.555 0 01.302.497c-.033 2.687-.982 10.708-9.627 23.711z" fill="#0FA6AF"/><path d="M63.6 320.277c-.201.973-.5 1.923-.894 2.835-.711 1.935-1.546 4.206-2.47 6.715-.922 2.509-1.741 4.783-2.446 6.718-.274.953-.635 1.88-1.078 2.768.1-.99.32-1.963.655-2.9.512-1.764 1.309-4.173 2.282-6.8a143.12 143.12 0 012.644-6.66 13.37 13.37 0 011.307-2.676z" fill="#455A64"/><path d="M66.113 381.009s-1.262-16.729 9.605-23.833a.554.554 0 01.865.482c-.13 2.684-1.365 10.666-10.47 23.351z" fill="#0FA6AF"/><path d="M73.563 362.153a14.813 14.813 0 01-1 2.8l-2.708 6.622-2.681 6.625c-.306.944-.7 1.857-1.174 2.729.137-.987.392-1.953.76-2.878.574-1.745 1.457-4.124 2.523-6.713 1.066-2.589 2.1-4.9 2.881-6.561.367-.924.836-1.804 1.399-2.624z" fill="#455A64"/><path d="M47.083 246.178s-14.87-7.766-15.162-20.746a.554.554 0 01.867-.479c2.212 1.528 8.335 6.793 14.295 21.225z" fill="#0FA6AF"/><path d="M35.009 229.891c.694.711 1.314 1.49 1.852 2.325l4.193 5.8 4.207 5.782a16.103 16.103 0 011.693 2.439 12.41 12.41 0 01-2.043-2.165c-1.178-1.41-2.731-3.416-4.366-5.689a143.57 143.57 0 01-4.05-5.912 13.37 13.37 0 01-1.486-2.58z" fill="#455A64"/><path d="M63.05 280.564s-15.314-6.848-16.393-19.787a.555.555 0 01.836-.531c2.299 1.391 8.732 6.274 15.558 20.318z" fill="#0FA6AF"/><path d="M50.01 265.04a14.818 14.818 0 011.99 2.209l4.537 5.531 4.55 5.516c.683.719 1.299 1.5 1.839 2.332a12.365 12.365 0 01-2.171-2.038c-1.261-1.335-2.934-3.243-4.7-5.412a146.046 146.046 0 01-4.4-5.656 13.295 13.295 0 01-1.645-2.482z" fill="#455A64"/><path d="M54.239 318.92s-10.515-13.072-5.583-25.082a.56.56 0 01.465-.349.564.564 0 01.52.257c1.414 2.285 4.917 9.562 4.598 25.174z" fill="#0FA6AF"/><path d="M49.7 299.16c.352.929.609 1.892.767 2.873.437 2.014.95 4.378 1.519 6.99l1.538 6.983c.281.952.474 1.927.575 2.914-.444-.89-.78-1.83-1-2.8-.515-1.763-1.135-4.224-1.723-6.961a143.033 143.033 0 01-1.341-7.039 13.347 13.347 0 01-.335-2.96z" fill="#455A64"/><path d="M64.655 364.056S49.457 356.951 48.6 344a.559.559 0 01.264-.519.562.562 0 01.581.002c2.271 1.426 8.621 6.417 15.21 20.573z" fill="#0FA6AF"/><path d="M51.876 348.315c.725.68 1.38 1.431 1.953 2.242l4.443 5.607 4.457 5.591a16.188 16.188 0 011.8 2.363 12.383 12.383 0 01-2.137-2.074c-1.239-1.356-2.879-3.292-4.612-5.491a143.964 143.964 0 01-4.305-5.729 13.318 13.318 0 01-1.599-2.509zM94.925 298.1c.025.122.03.247.019.37l-.026 1.072c-.045 1.008-.1 2.369-.18 4.068-.2 3.576-.47 8.562-.8 14.527v.034c-1.085 6.071-4.177 12.8-8.33 19.331-3.046 4.813-6.24 9.188-8.993 13.257a93.942 93.942 0 00-6.743 11.141 47.307 47.307 0 00-3.154 8.18 56.68 56.68 0 00-.584 2.318 4.194 4.194 0 01-.222.808c.005-.28.039-.559.1-.833.076-.544.239-1.337.472-2.355a43.204 43.204 0 012.99-8.311 88.807 88.807 0 016.664-11.275c2.735-4.1 5.91-8.48 8.94-13.268 4.132-6.5 7.208-13.126 8.333-19.1v.034l1.02-14.513.328-4.058.107-1.067c.002-.122.022-.243.059-.36z" fill="#455A64"/><path d="M85.876 336.252s6.436-15.492-1.66-25.642a.554.554 0 00-.972.188c-.717 2.59-2.044 10.556 2.632 25.454z" fill="#0FA6AF"/><path d="M84.7 316.012c.279.955.45 1.938.51 2.931.228 1.82.483 4.341.683 7.133.2 2.792.295 5.328.294 7.165.06.995-.001 1.992-.18 2.972a16.072 16.072 0 01-.263-2.958c-.138-2.055-.3-4.468-.477-7.135s-.355-5.08-.5-7.136a14.77 14.77 0 01-.067-2.972z" fill="#455A64"/><path opacity=".3" d="M85.876 336.252s6.436-15.492-1.66-25.642a.554.554 0 00-.972.188c-.717 2.59-2.044 10.556 2.632 25.454z" fill="#000"/><path d="M65.94 373.585s5.16-15.963-3.732-25.423a.552.552 0 00-.56-.16.553.553 0 00-.395.426c-.504 2.64-1.18 10.687 4.688 25.157z" fill="#0FA6AF"/><path d="M63.132 353.507c.355.929.605 1.895.746 2.88.375 1.8.833 4.287 1.259 7.054.426 2.767.726 5.287.874 7.118.14.986.16 1.985.06 2.976a16.178 16.178 0 01-.5-2.927c-.3-2.037-.66-4.429-1.053-7.072-.394-2.643-.765-5.035-1.075-7.073a14.71 14.71 0 01-.311-2.956z" fill="#455A64"/><path opacity=".3" d="M65.94 373.585s5.16-15.963-3.732-25.423a.552.552 0 00-.56-.16.553.553 0 00-.395.426c-.504 2.64-1.18 10.687 4.688 25.157z" fill="#000"/><path d="M94.073 317.319s13.743-9.621 12.356-22.53a.557.557 0 00-.65-.495.552.552 0 00-.271.132c-1.995 1.8-7.388 7.812-11.435 22.893z" fill="#0FA6AF"/><path opacity=".3" d="M94.073 317.319s13.743-9.621 12.356-22.53a.557.557 0 00-.65-.495.552.552 0 00-.271.132c-1.995 1.8-7.388 7.812-11.435 22.893z" fill="#000"/><path d="M103.943 299.609c-.277.955-.66 1.877-1.142 2.747a139.776 139.776 0 01-3.251 6.386c-1.33 2.463-2.61 4.655-3.6 6.2a12.349 12.349 0 01-1.746 2.411c.372-.92.83-1.803 1.365-2.638l3.425-6.276 3.408-6.29c.426-.897.943-1.747 1.541-2.54z" fill="#455A64"/><path d="M71.483 357.759s16.576-2.584 21.016-14.784a.555.555 0 00-.667-.732c-2.584.738-10.074 3.757-20.35 15.516z" fill="#0FA6AF"/><path opacity=".3" d="M71.483 357.759s16.576-2.584 21.016-14.784a.555.555 0 00-.667-.732c-2.584.738-10.074 3.757-20.35 15.516z" fill="#000"/><path d="M88.144 346.207a13.309 13.309 0 01-2.235 1.964 140.137 140.137 0 01-5.732 4.3c-2.28 1.625-4.393 3.03-5.961 3.987-.817.569-1.7 1.037-2.63 1.395a16.13 16.13 0 012.388-1.767l5.839-4.126 5.83-4.146a14.861 14.861 0 012.5-1.607zM51.87 388.264l4.755 31.186 18.988-.032 6.4-31.154H51.87z" fill="#455A64"/><path d="M79.227 400.3a.699.699 0 01-.16.115c-.11.069-.271.176-.5.286a6.95 6.95 0 01-2.122.633 7.814 7.814 0 01-3.491-.334 7.31 7.31 0 01-3.754-2.726 5.28 5.28 0 01-.88-2.609 2.845 2.845 0 011.288-2.681 3.069 3.069 0 013.181.262 4.641 4.641 0 011.819 2.864c.249 1.156.328 2.343.236 3.522a11.628 11.628 0 01-.77 3.6 7.951 7.951 0 01-2.2 3.14 6.14 6.14 0 01-3.654 1.526 6.7 6.7 0 01-3.8-1.1 11.429 11.429 0 01-2.835-2.563 6.226 6.226 0 01-1.436-3.427 3.967 3.967 0 011.347-3.3 3.09 3.09 0 013.365-.205 3.592 3.592 0 011.94 2.542 4.877 4.877 0 01-2.4 4.936 6.708 6.708 0 01-4.582.663 10.509 10.509 0 01-3.267-1.278 17.515 17.515 0 01-1.83-1.239 3.935 3.935 0 01-.585-.5c.227.119.444.257.648.413.418.277 1.032.694 1.866 1.147 1.002.561 2.09.955 3.219 1.168a6.441 6.441 0 004.345-.693 4.501 4.501 0 002.165-4.536 3.156 3.156 0 00-1.726-2.218 2.614 2.614 0 00-2.858.174 3.492 3.492 0 00-1.15 2.9 5.752 5.752 0 001.342 3.138 10.92 10.92 0 002.706 2.437 6.206 6.206 0 003.5 1.024 5.634 5.634 0 003.342-1.4 7.458 7.458 0 002.064-2.936 11.24 11.24 0 00.747-3.444 11.79 11.79 0 00-.206-3.377 4.2 4.2 0 00-1.607-2.6 2.639 2.639 0 00-2.712-.269 2.431 2.431 0 00-1.1 2.291c.045.862.316 1.698.786 2.423a7.063 7.063 0 003.54 2.652 7.782 7.782 0 003.374.4 8.874 8.874 0 002.805-.821z" fill="#455A64"/></svg>