<svg width="496" height="455" viewBox="0 0 496 455" fill="none" xmlns="http://www.w3.org/2000/svg">
<path d="M396.39 137.002H483.055C483.055 137.002 475.392 123.056 453.084 125.086C431.779 127.024 430.695 118.224 419.862 117.141C409.029 116.058 400.001 124.363 396.39 137.002Z" fill="#F5F5F5"/>
<path d="M24.0873 89.8049H110.753C110.753 89.8049 103.095 75.8634 80.7817 77.8937C59.4762 79.8323 58.3928 71.0326 47.5595 69.9492C36.7262 68.8659 27.6984 77.1715 24.0873 89.8049Z" fill="#F5F5F5"/>
<path d="M180.492 25.1846H289.869C289.869 25.1846 280.198 7.58395 252.044 10.1456C225.157 12.5926 223.788 1.48652 210.118 0.119533C196.449 -1.24745 185.049 9.23459 180.492 25.1846Z" fill="#E0E0E0"/>
<path d="M439.409 432.958C424.507 423.466 420.426 404.848 420.271 387.957C420.246 385.138 419.809 382.184 421.042 379.656C422.275 377.128 425.329 375.306 427.9 376.383C430.033 377.278 431.049 379.67 432.304 381.632C433.982 384.247 436.365 386.335 439.177 387.655C441.01 388.508 443.252 388.982 444.98 387.93C447.352 386.487 447.49 383.119 447.356 380.319C447.1 375.102 446.846 369.885 446.593 364.668C446.306 361.876 446.471 359.056 447.082 356.316C447.839 353.621 449.657 351.071 452.289 350.207C454.92 349.342 458.28 350.741 458.96 353.458C459.114 354.612 459.191 355.776 459.189 356.941C459.196 357.522 459.374 358.089 459.702 358.569C460.029 359.049 460.492 359.421 461.031 359.639C462.162 359.921 463.249 359.078 464.05 358.221C466.819 355.27 468.625 351.544 470.302 347.843C471.979 344.143 473.6 340.359 476.09 337.163C478.581 333.966 482.103 331.369 486.102 330.969C490.102 330.57 494.482 332.862 495.664 336.752C496.845 340.641 494.718 344.759 492.348 348.062C488.834 352.961 484.63 357.327 479.866 361.023C478.935 361.594 478.209 362.447 477.793 363.457C477.265 365.35 479.114 367.129 480.982 367.663C483.1 368.269 485.355 367.954 487.549 368.118C489.743 368.282 492.149 369.144 493.064 371.173C494.334 373.985 492.069 377.088 489.797 379.153C485.248 383.291 480.021 386.615 474.344 388.979C472.245 389.659 470.288 390.719 468.57 392.104C466.971 393.623 466.076 396.182 467.165 398.111C468.254 400.04 470.856 400.564 472.996 400.075C475.137 399.586 477.018 398.329 479.04 397.464C482.826 395.847 487.806 395.9 490.414 399.119C491.215 400.231 491.747 401.514 491.969 402.866C492.19 404.219 492.096 405.604 491.692 406.914C490.865 409.522 489.522 411.937 487.744 414.016C481.96 421.603 474.266 427.518 465.447 431.156C456.654 434.634 448.419 435.826 439.41 432.962" fill="#0FA6AF"/>
<path d="M439.723 445.471C440.172 437.617 441.373 429.824 443.309 422.198C445.715 412.891 448.654 403.73 452.111 394.759C453.016 392.372 453.908 390.014 454.788 387.686C455.672 385.366 456.548 383.065 457.544 380.868C459.465 376.654 461.618 372.549 463.993 368.572C466.232 364.759 468.497 361.223 470.639 357.933C472.78 354.642 474.85 351.619 476.846 348.941C479.975 344.698 483.437 340.711 487.198 337.017C488.525 335.707 489.589 334.726 490.319 334.071L491.152 333.332C491.243 333.244 491.342 333.164 491.448 333.094C491.371 333.195 491.284 333.288 491.188 333.372L490.389 334.148C489.683 334.828 488.643 335.831 487.334 337.158C483.638 340.898 480.229 344.91 477.133 349.159C475.161 351.843 473.122 354.874 470.992 358.167C468.863 361.461 466.619 365.005 464.395 368.814C462.042 372.782 459.907 376.876 458 381.077C457.018 383.258 456.145 385.55 455.262 387.87C454.378 390.191 453.491 392.554 452.589 394.941C449.139 403.893 446.193 413.032 443.764 422.313C441.813 429.905 440.581 437.664 440.082 445.487" fill="#1C2E5C"/>
<path d="M457.691 380.842C457.539 380.461 457.429 380.064 457.364 379.659C457.184 378.896 456.96 377.773 456.703 376.386C456.188 373.615 455.612 369.764 454.982 365.517C454.353 361.27 453.723 357.435 453.168 354.679C452.893 353.301 452.661 352.188 452.489 351.419C452.375 351.026 452.306 350.62 452.281 350.211C452.456 350.581 452.591 350.97 452.682 351.369C452.914 352.123 453.203 353.224 453.523 354.601C454.177 357.347 454.867 361.185 455.486 365.438C456.093 369.632 456.639 373.427 457.058 376.325C457.256 377.634 457.423 378.735 457.557 379.62C457.646 380.021 457.691 380.431 457.691 380.842V380.842Z" fill="#1C2E5C"/>
<path d="M493.402 372.572C492.934 372.694 492.455 372.772 491.973 372.806C491.053 372.928 489.72 373.096 488.081 373.358C484.8 373.855 480.29 374.701 475.355 375.851C470.421 377.001 466.001 378.251 462.831 379.239C461.24 379.723 459.965 380.148 459.081 380.439C458.632 380.618 458.166 380.753 457.691 380.844C458.112 380.604 458.555 380.405 459.014 380.248C459.878 379.9 461.139 379.42 462.723 378.89C465.874 377.808 470.294 376.509 475.243 375.344C479.464 374.343 483.733 373.559 488.034 372.995C489.685 372.776 491.028 372.667 491.962 372.606C492.44 372.549 492.922 372.538 493.402 372.572Z" fill="#1C2E5C"/>
<path d="M443.723 421.516C443.615 421.387 443.525 421.243 443.457 421.089C443.276 420.743 443.055 420.325 442.786 419.812C442.208 418.702 441.414 417.073 440.458 415.048C438.545 410.998 436.078 405.321 433.44 399.02C430.802 392.718 428.39 387.024 426.567 382.941L424.39 378.11C424.156 377.583 423.963 377.149 423.804 376.791C423.726 376.641 423.668 376.481 423.632 376.315C423.739 376.446 423.829 376.591 423.898 376.745L424.569 378.021C425.147 379.131 425.942 380.76 426.897 382.785C428.811 386.835 431.278 392.512 433.917 398.816C436.556 405.119 438.966 410.809 440.79 414.893C441.684 416.877 442.42 418.511 442.966 419.723L443.552 421.041C443.631 421.191 443.688 421.351 443.723 421.516V421.516Z" fill="#1C2E5C"/>
<path d="M490.899 404.05C490.755 404.144 490.598 404.217 490.433 404.268L489.064 404.793L484.012 406.673C479.747 408.261 473.882 410.522 467.404 413.029C460.926 415.536 455.031 417.746 450.733 419.247C448.584 419.998 446.838 420.588 445.624 420.971L444.223 421.408C444.063 421.47 443.895 421.509 443.723 421.524C443.869 421.432 444.025 421.358 444.189 421.306L445.558 420.781L450.61 418.902C454.874 417.314 460.741 415.053 467.221 412.546C473.7 410.039 479.59 407.829 483.89 406.327C486.039 405.575 487.783 404.986 488.999 404.603L490.399 404.167C490.56 404.105 490.728 404.066 490.899 404.05Z" fill="#1C2E5C"/>
<path d="M1.57839 411.632C2.85872 411.338 4.18537 411.304 5.47886 411.535C6.77235 411.765 8.00606 412.254 9.10608 412.972C11.3006 414.425 13.133 416.362 14.4627 418.633C17.1498 422.933 18.0728 428.696 18.1633 433.766C12.5383 433.506 7.75546 429.056 5.47097 426.646C1.86095 422.837 -2.35238 413.761 1.57948 411.632" fill="#0FA6AF"/>
<path d="M27.1977 437.208C26.075 436.261 25.2229 435.033 24.7278 433.65C24.2327 432.267 24.1122 430.778 24.3786 429.333C24.6698 427.895 25.2441 426.53 26.0683 425.316C26.8924 424.102 27.9498 423.064 29.1789 422.263C29.7042 421.834 30.3168 421.525 30.9739 421.358C31.631 421.19 32.3167 421.169 32.9831 421.294C33.5792 421.513 34.106 421.887 34.5088 422.378C34.9116 422.869 35.1759 423.459 35.2741 424.086C35.4533 425.346 35.2964 426.631 34.8192 427.81C33.3759 431.904 31.2277 435.599 27.1977 437.208Z" fill="#0FA6AF"/>
<path d="M32.3089 453.255C32.0807 452.98 31.8919 452.675 31.7481 452.347C31.4208 451.747 30.9659 450.869 30.439 449.766C28.9983 446.901 27.9496 443.856 27.321 440.711C26.7074 437.526 26.969 434.234 28.0781 431.186C28.4281 430.274 28.8906 429.409 29.4549 428.611C29.6427 428.305 29.8788 428.032 30.1542 427.802C29.4967 428.93 28.9287 430.108 28.4556 431.325C27.489 434.324 27.2913 437.518 27.8806 440.613C28.5095 443.71 29.4904 446.724 30.8044 449.598C31.3803 450.785 31.8827 452.007 32.3089 453.255V453.255Z" fill="#1C2E5C"/>
<path d="M5.39679 418.261C5.83864 418.647 6.2467 419.07 6.61649 419.525C7.37472 420.363 8.45041 421.598 9.76503 423.126C12.3932 426.193 15.9541 430.493 19.7681 435.336C23.5822 440.179 26.9282 444.65 29.2945 447.924C30.4782 449.561 31.4219 450.896 32.059 451.83C32.415 452.298 32.7307 452.795 33.0027 453.316C32.5909 452.898 32.2157 452.446 31.8812 451.964C31.1328 450.989 30.1542 449.711 28.9727 448.169C26.5245 444.958 23.1327 440.532 19.3219 435.691C15.5112 430.851 12.0037 426.52 9.45629 423.387C8.23331 421.878 7.22089 420.625 6.44739 419.669C6.05771 419.231 5.70623 418.76 5.39679 418.261V418.261Z" fill="#1C2E5C"/>
<path d="M23.3978 443.46C20.9633 441.548 18.1082 440.243 15.0688 439.653C12.0295 439.064 8.89351 439.207 5.92051 440.071C4.41497 440.524 2.74687 441.442 2.59523 443.007C2.44358 444.571 3.91312 445.8 5.32265 446.498C8.29211 447.908 11.6127 448.408 14.8657 447.934C18.1187 447.459 21.1585 446.033 23.6019 443.834" fill="#0FA6AF"/>
<path d="M9.65814 442.934C9.96931 442.789 10.3001 442.69 10.64 442.641C11.0262 442.54 11.4193 442.467 11.8161 442.423C12.3395 442.338 12.8673 442.285 13.3969 442.262C14.777 442.183 16.1615 442.243 17.5295 442.442C19.2042 442.703 20.8463 443.142 22.4279 443.751C24.0004 444.389 25.4999 445.194 26.9009 446.152C28.0352 446.942 29.0864 447.845 30.0386 448.847C30.409 449.227 30.7572 449.628 31.0815 450.047C31.3409 450.351 31.5779 450.673 31.7907 451.011C32.0035 451.278 32.1762 451.576 32.3034 451.893C32.2129 451.959 31.4099 450.747 29.7538 449.132C28.7812 448.192 27.7276 447.34 26.6053 446.586C25.2231 445.677 23.7553 444.906 22.2228 444.284C20.6796 443.69 19.0821 443.248 17.4531 442.965C16.119 442.747 14.7682 442.648 13.4165 442.669C11.0949 442.708 9.67996 443.043 9.65814 442.934Z" fill="#1C2E5C"/>
<path d="M65.4569 213.804L362.036 60.9695L343.003 34.1098L439.881 25.3984L396.191 103.833L375.876 78.413L75.3651 243.475L65.4569 213.804Z" fill="#0FA6AF"/>
<path d="M116.9 322.415H48.5872V454.008H116.9V322.415Z" fill="#1C2E5C"/>
<path d="M98.2809 322.415H29.9676V454.008H98.2809V322.415Z" fill="#38557D"/>
<path d="M223.502 278.521H155.189V454.008H223.502V278.521Z" fill="#1C2E5C"/>
<path d="M202.865 278.521H134.551V454.008H202.865V278.521Z" fill="#38557D"/>
<path d="M333.151 222.925H264.838V454.008H333.151V222.925Z" fill="#1C2E5C"/>
<path d="M312.63 222.925H244.317V454.008H312.63V222.925Z" fill="#38557D"/>
<path d="M443.266 174.236H374.953V454.008H443.266V174.236Z" fill="#1C2E5C"/>
<path d="M416.055 174.236H347.742V454.008H416.055V174.236Z" fill="#38557D"/>
<path d="M67.2744 301.562L73.6391 296.325L63.9098 284.337L54.5144 291.896L55.0708 292.678C57.5713 296.136 68.0304 310.08 70.4949 311.747C73.2464 313.61 67.2744 301.562 67.2744 301.562Z" fill="#38557D"/>
<g opacity="0.5">
<path opacity="0.5" d="M58.1387 296.168C59.0063 295.172 59.4745 293.889 59.4533 292.568C59.442 291.264 58.9413 290.011 58.0503 289.059L54.6978 291.775L58.1387 296.168Z" fill="white"/>
</g>
<g opacity="0.4">
<path opacity="0.4" d="M70.0149 307.592C70.0149 307.592 71.8827 311.998 70.9335 312.03C69.9844 312.061 58.8848 298.368 54.5166 291.898L54.8003 291.701L67.6115 307.781C67.6115 307.781 69.4193 306.918 70.0149 307.592Z" fill="white"/>
</g>
<path d="M54.6562 291.506C54.6969 291.585 54.7455 291.661 54.8014 291.73L55.2454 292.351L56.9189 294.607C58.3448 296.502 60.35 299.094 62.6258 301.908C64.9015 304.722 67.0202 307.223 68.5759 309.012C69.3076 309.844 69.9258 310.546 70.4306 311.119L70.9455 311.683C71.0026 311.752 71.0657 311.815 71.1343 311.872C71.0879 311.794 71.0341 311.721 70.9739 311.654L70.4851 311.067L68.6752 308.926C67.1479 307.115 65.0467 304.602 62.7698 301.79C60.4929 298.979 58.4746 296.401 57.0226 294.528L55.3021 292.307C55.1276 292.089 54.9748 291.887 54.8297 291.707C54.7781 291.635 54.72 291.568 54.6562 291.506V291.506Z" fill="#1C2E5C"/>
<path d="M67.4206 307.932C68.2825 307.478 69.2786 307.347 70.2287 307.563C69.7783 307.332 69.2686 307.245 68.7671 307.311C68.2657 307.377 67.7961 307.594 67.4206 307.932V307.932Z" fill="#1C2E5C"/>
<path d="M66.0755 301.55C66.0678 301.601 66.3471 301.689 66.7006 301.744C67.0541 301.8 67.3464 301.804 67.3552 301.754C67.3639 301.704 67.0846 301.615 66.7311 301.56C66.3777 301.504 66.0842 301.499 66.0755 301.55Z" fill="#1C2E5C"/>
<path d="M66.7104 300.018C66.6689 300.051 66.861 300.36 67.137 300.709C67.413 301.058 67.6715 301.315 67.7119 301.284C67.7523 301.252 67.5614 300.942 67.2843 300.593C67.0071 300.244 66.7508 299.987 66.7104 300.018Z" fill="#1C2E5C"/>
<path d="M67.3377 299.162C67.368 299.48 67.4944 299.781 67.6999 300.025C67.9977 300.461 68.3545 300.707 68.3807 300.668C68.2282 300.403 68.0522 300.152 67.8548 299.918C67.7058 299.651 67.5327 299.398 67.3377 299.162V299.162Z" fill="#1C2E5C"/>
<path d="M67.725 302.496C67.8887 302.786 68.1018 303.044 68.3545 303.26C68.6151 303.511 68.8985 303.736 69.2011 303.934C69.38 304.06 69.5725 304.165 69.775 304.247C69.9015 304.297 70.0422 304.297 70.1688 304.247C70.2368 304.214 70.2936 304.162 70.3324 304.096C70.3711 304.031 70.3901 303.956 70.387 303.881C70.2929 303.47 70.0589 303.104 69.7249 302.846C69.391 302.588 68.978 302.455 68.5564 302.468C68.3082 302.472 68.0637 302.528 67.8385 302.633C67.6814 302.709 67.6083 302.772 67.6148 302.782C67.9157 302.667 68.2343 302.606 68.5564 302.6C68.9 302.61 69.2336 302.718 69.5175 302.912C69.6897 303.02 69.8386 303.162 69.9557 303.328C70.0727 303.494 70.1555 303.682 70.1994 303.881C70.2081 304.077 70.0259 304.146 69.8339 304.076C69.6462 304 69.4667 303.905 69.2982 303.792C68.9992 303.606 68.7151 303.396 68.4483 303.166C67.988 302.77 67.7479 302.478 67.725 302.496Z" fill="#1C2E5C"/>
<path d="M67.8494 302.727C68.0869 302.69 68.3028 302.568 68.4559 302.383C68.6383 302.195 68.7729 301.966 68.8487 301.716C68.9112 301.558 68.9322 301.387 68.9099 301.219C68.8875 301.051 68.8225 300.891 68.721 300.755C68.6411 300.691 68.5397 300.661 68.438 300.67C68.3363 300.68 68.2422 300.729 68.1756 300.806C68.0664 300.923 67.9848 301.063 67.9366 301.216C67.8484 301.455 67.7909 301.705 67.7654 301.958C67.7228 302.19 67.7386 302.428 67.8112 302.652C67.8406 302.652 67.8254 302.387 67.8963 301.977C67.939 301.737 68.0066 301.503 68.0981 301.278C68.1745 301.041 68.409 300.733 68.6 300.897C68.6719 301.01 68.717 301.139 68.7317 301.273C68.7465 301.407 68.7305 301.542 68.6851 301.669C68.6228 301.898 68.5111 302.111 68.3578 302.293C68.2019 302.453 68.0317 302.598 67.8494 302.727Z" fill="#1C2E5C"/>
<path d="M58.1354 289.091C58.1103 289.115 58.4463 289.408 58.8216 290.002C59.3172 290.772 59.5843 291.666 59.5919 292.582C59.5994 293.497 59.347 294.396 58.8641 295.174C58.4986 295.772 58.167 296.07 58.1932 296.095C58.2843 296.044 58.3662 295.978 58.4354 295.899C58.6378 295.7 58.8188 295.481 58.9754 295.244C59.5068 294.458 59.7871 293.529 59.7796 292.58C59.772 291.631 59.4767 290.707 58.9328 289.929C58.7718 289.695 58.5868 289.479 58.3808 289.283C58.2335 289.147 58.1474 289.083 58.1354 289.091Z" fill="#1C2E5C"/>
<path d="M64.1346 286.289C63.2488 286.869 62.3979 287.501 61.5861 288.181C60.7366 288.814 59.9246 289.495 59.1544 290.222C60.0402 289.641 60.8912 289.009 61.7029 288.329C62.5524 287.696 63.3644 287.015 64.1346 286.289V286.289Z" fill="#1C2E5C"/>
<path d="M60.5311 296.73C61.249 298.066 62.2 299.262 63.3393 300.263C63.3775 300.225 62.6956 299.479 61.921 298.505C61.1464 297.531 60.5769 296.701 60.5311 296.73Z" fill="#1C2E5C"/>
<path d="M58.6295 294.377C58.5761 294.372 58.5204 294.576 58.4004 294.801C58.2804 295.027 58.1615 295.2 58.1975 295.238C58.2335 295.276 58.4375 295.146 58.5684 294.884C58.6994 294.623 58.6797 294.379 58.6295 294.377Z" fill="#1C2E5C"/>
<path d="M59.0135 292.598C58.9623 292.591 58.9045 292.77 58.875 292.996C58.8455 293.222 58.875 293.411 58.923 293.416C58.971 293.422 59.0321 293.243 59.0615 293.017C59.091 292.791 59.0648 292.603 59.0135 292.598Z" fill="#1C2E5C"/>
<path d="M58.49 290.921C58.4561 290.962 58.5871 291.12 58.6678 291.347C58.7485 291.574 58.7573 291.777 58.8107 291.784C58.8642 291.79 58.9471 291.559 58.8434 291.28C58.7398 291 58.5172 290.879 58.49 290.921Z" fill="#1C2E5C"/>
<path d="M57.9968 289.827C57.9477 289.842 57.9412 289.961 57.9837 290.092C58.0263 290.223 58.0994 290.316 58.1485 290.3C58.1975 290.285 58.2041 290.165 58.1615 290.034C58.119 289.903 58.0459 289.81 57.9968 289.827Z" fill="#1C2E5C"/>
<path d="M188.572 274.277L188.837 266.039L173.409 265.442L172.893 277.49L173.847 277.589C178.095 277.99 195.474 279.328 198.354 278.571C201.565 277.735 188.572 274.277 188.572 274.277Z" fill="#6A819F"/>
<g opacity="0.5">
<path opacity="0.5" d="M178.491 277.586C178.314 276.275 177.658 275.076 176.65 274.22C175.663 273.368 174.391 272.917 173.088 272.959L172.917 277.271L178.491 277.586Z" fill="white"/>
</g>
<g opacity="0.4">
<path opacity="0.4" d="M194.911 276.195C194.911 276.195 199.454 277.698 198.852 278.432C198.25 279.167 180.633 278.475 172.893 277.49L172.932 277.146L193.47 278.128C193.47 278.128 194.011 276.197 194.911 276.195Z" fill="white"/>
</g>
<path d="M172.689 277.125C172.776 277.146 172.864 277.159 172.953 277.164L173.717 277.239L176.517 277.47C178.882 277.648 182.153 277.851 185.768 277.996C189.383 278.141 192.662 278.2 195.034 278.214L197.842 278.208L198.605 278.193C198.695 278.195 198.784 278.189 198.872 278.175C198.784 278.16 198.695 278.154 198.605 278.156L197.842 278.135L195.035 278.082C192.665 278.037 189.391 277.957 185.776 277.813C182.16 277.669 178.892 277.486 176.525 277.342L173.724 277.17L172.96 277.129C172.87 277.119 172.78 277.118 172.689 277.125V277.125Z" fill="#1C2E5C"/>
<path d="M193.456 278.368C193.683 277.421 194.241 276.585 195.03 276.014C194.56 276.201 194.158 276.526 193.877 276.946C193.596 277.367 193.449 277.863 193.456 278.368Z" fill="#1C2E5C"/>
<path d="M188.995 275.88C189.038 275.909 189.266 275.653 189.505 275.307C189.743 274.961 189.903 274.652 189.86 274.628C189.818 274.604 189.59 274.855 189.351 275.201C189.112 275.547 188.955 275.85 188.995 275.88Z" fill="#1C2E5C"/>
<path d="M187.772 275.171C187.805 275.21 188.055 275.062 188.33 274.829C188.605 274.597 188.801 274.383 188.766 274.344C188.731 274.304 188.483 274.453 188.209 274.685C187.934 274.918 187.738 275.13 187.772 275.171Z" fill="#1C2E5C"/>
<path d="M187.039 273.684C187.292 273.788 187.566 273.833 187.84 273.818C188.11 273.862 188.388 273.843 188.65 273.764C188.127 273.613 187.575 273.585 187.039 273.684V273.684Z" fill="#1C2E5C"/>
<path d="M186.809 272.646C187.081 272.805 187.383 272.906 187.697 272.942C188.01 272.978 188.327 272.948 188.629 272.854C188.329 272.794 188.024 272.761 187.718 272.756C187.419 272.691 187.115 272.655 186.809 272.646V272.646Z" fill="#1C2E5C"/>
<path d="M189.571 274.554C189.897 274.623 190.233 274.634 190.563 274.587C190.923 274.557 191.279 274.493 191.628 274.396C191.84 274.344 192.046 274.269 192.241 274.17C192.362 274.108 192.454 274.001 192.498 273.872C192.517 273.799 192.514 273.723 192.49 273.651C192.466 273.58 192.423 273.517 192.364 273.47C191.993 273.269 191.564 273.204 191.15 273.285C190.736 273.366 190.363 273.588 190.095 273.914C189.933 274.105 189.814 274.328 189.746 274.568C189.711 274.653 189.699 274.744 189.71 274.835C189.822 274.533 189.986 274.252 190.194 274.007C190.429 273.754 190.732 273.575 191.067 273.489C191.262 273.432 191.466 273.413 191.669 273.435C191.871 273.457 192.067 273.519 192.245 273.617C192.398 273.739 192.329 273.923 192.15 274.02C191.969 274.112 191.78 274.185 191.584 274.238C191.246 274.34 190.901 274.415 190.552 274.464C189.95 274.538 189.572 274.524 189.571 274.554Z" fill="#1C2E5C"/>
<path d="M189.828 274.615C189.956 274.412 190.006 274.169 189.968 273.931C189.948 273.67 189.865 273.418 189.726 273.196C189.649 273.045 189.534 272.917 189.393 272.823C189.252 272.728 189.09 272.672 188.921 272.658C188.819 272.675 188.728 272.731 188.666 272.815C188.605 272.898 188.579 273.002 188.594 273.104C188.611 273.264 188.662 273.417 188.745 273.554C188.866 273.778 189.016 273.986 189.189 274.172C189.336 274.357 189.525 274.502 189.741 274.596C189.76 274.572 189.55 274.41 189.29 274.085C189.138 273.896 189.007 273.691 188.898 273.474C188.77 273.256 188.692 272.88 188.942 272.844C189.191 272.829 189.435 273.087 189.579 273.291C189.71 273.488 189.797 273.711 189.834 273.946C189.853 274.169 189.85 274.393 189.828 274.615V274.615Z" fill="#1C2E5C"/>
<path d="M173.169 272.919C173.169 272.954 173.613 272.894 174.307 273.004C175.213 273.139 176.062 273.529 176.755 274.127C177.448 274.726 177.957 275.509 178.222 276.386C178.431 277.056 178.44 277.501 178.472 277.499C178.493 277.396 178.498 277.291 178.485 277.187C178.469 276.903 178.423 276.623 178.348 276.349C178.108 275.431 177.595 274.608 176.876 273.987C176.158 273.367 175.269 272.979 174.326 272.875C174.044 272.842 173.759 272.838 173.476 272.863C173.371 272.864 173.268 272.883 173.169 272.919Z" fill="#1C2E5C"/>
<path d="M175.021 266.562C174.787 268.666 174.677 270.782 174.694 272.899C174.928 270.795 175.037 268.679 175.021 266.562V266.562Z" fill="#1C2E5C"/>
<path d="M180.492 276.158C181.969 276.5 183.496 276.574 184.999 276.376C184.999 276.322 183.985 276.344 182.744 276.281C181.502 276.218 180.5 276.104 180.492 276.158Z" fill="#1C2E5C"/>
<path d="M177.468 276.034C177.43 276.07 177.542 276.252 177.636 276.485C177.73 276.719 177.779 276.922 177.831 276.922C177.884 276.922 177.921 276.682 177.809 276.411C177.698 276.14 177.499 275.999 177.468 276.034Z" fill="#1C2E5C"/>
<path d="M176.384 274.572C176.346 274.607 176.44 274.771 176.593 274.939C176.746 275.107 176.902 275.215 176.94 275.18C176.978 275.146 176.884 274.981 176.731 274.813C176.579 274.645 176.423 274.537 176.384 274.572Z" fill="#1C2E5C"/>
<path d="M174.78 273.859C174.788 273.912 174.998 273.918 175.216 274.007C175.434 274.097 175.598 274.226 175.639 274.19C175.681 274.154 175.561 273.938 175.283 273.833C175.004 273.728 174.765 273.811 174.78 273.859Z" fill="#1C2E5C"/>
<path d="M173.631 273.508C173.61 273.556 173.695 273.639 173.822 273.694C173.948 273.748 174.066 273.753 174.087 273.707C174.108 273.66 174.023 273.577 173.896 273.521C173.769 273.465 173.652 273.461 173.631 273.508Z" fill="#1C2E5C"/>
<path d="M195.61 67.4991C194.23 67.1053 191.9 74.5402 191.473 72.6518C191.045 70.7633 195.381 63.8891 193.922 63.5367C192.02 63.0774 189.724 70.9062 189.479 71.5543C189.244 72.1837 188.291 71.8728 188.542 71.3001C188.903 70.4753 192.481 61.7235 190.615 61.2544C189.582 60.9948 189.287 62.8909 189.287 62.8909C189.287 62.8909 186.544 71.3262 185.672 71.0731C184.8 70.82 186.231 65.8125 186.837 64.1575C187.436 62.521 186.903 61.5741 185.958 61.9101C185.314 62.1392 183.339 67.1609 182.777 68.8105C182.214 70.46 180.756 75.0115 179.65 72.1816C178.544 69.3516 176.627 67.5995 175.778 67.4806C175.58 67.4743 175.386 67.5299 175.221 67.6395C175.056 67.7491 174.93 67.9074 174.86 68.0922C174.789 68.277 174.778 68.4792 174.828 68.6705C174.878 68.8618 174.987 69.0328 175.139 69.1596C175.802 69.9425 176.352 70.8138 176.775 71.7485C177.146 72.4855 177.387 73.2807 177.489 74.0995C177.721 75.7393 177.79 77.398 177.696 79.0514L162.794 110.049L135.438 101.545L132.677 117.047C132.677 117.047 168.736 130.426 170.861 129.099C175.661 126.105 188.637 81.5323 188.637 81.5323C190.774 78.4319 192.74 75.2179 194.528 71.9045C196.491 67.8253 196.129 67.6453 195.61 67.4991Z" fill="#B78876"/>
<path d="M55.529 172.245C54.7648 171.561 54.0995 170.774 53.5522 169.906C53.0842 169.227 52.7359 168.473 52.5223 167.676C52.2015 166.488 51.9505 165.282 51.7707 164.065C51.7707 164.065 61.1814 135.977 63.6753 131.632C66.1693 127.286 100.485 114.928 100.485 114.928L96.1786 97.8159C96.1786 97.8159 64.7641 110.436 52.8016 119.903C45.1943 125.923 39.7602 163.277 39.7547 163.31C38.3252 166.202 37.0528 169.168 35.9429 172.197C34.5671 176.504 34.9512 176.633 35.4803 176.708C36.8985 176.908 38.1881 169.223 38.8688 171.035C39.5496 172.847 36.2025 180.252 37.696 180.401C39.6434 180.594 40.8424 172.523 40.994 171.848C41.1413 171.193 42.1276 171.369 41.9574 171.971C41.7141 172.838 39.374 181.998 41.2842 182.207C42.3425 182.322 42.3752 180.402 42.3752 180.402C42.3752 180.402 43.9331 171.669 44.8321 171.798C45.731 171.927 45.0023 177.087 44.6281 178.808C44.2593 180.509 44.9194 181.377 45.8085 180.914C46.414 180.599 47.6817 175.35 48.0112 173.642C48.3406 171.933 49.16 167.222 50.6448 169.872C52.1296 172.522 54.269 173.999 55.1254 173.997C55.3221 173.976 55.5073 173.894 55.6553 173.763C55.8032 173.632 55.9066 173.458 55.951 173.265C55.9954 173.072 55.9787 172.87 55.903 172.688C55.8274 172.505 55.6967 172.35 55.529 172.245Z" fill="#B78876"/>
<path d="M57.0444 286.113L72.5362 303.453L121.462 254.079C127.466 248.021 131.037 239.97 131.499 231.453L133.589 192.833L101.815 173.432L104.361 227.526C104.498 230.435 104.038 233.341 103.01 236.066C101.982 238.791 100.407 241.277 98.3824 243.37L57.0444 286.113Z" fill="#FDBC5A"/>
<path d="M95.4323 174.921C95.1378 175.316 94.0501 199.905 113.724 202.982C114.901 203.166 122.008 203.883 122.008 203.883C144.332 203.711 174.451 202.856 174.451 202.856L169.45 271.491L193.152 271.577L200.366 198.296C201.952 178.003 184.817 174.499 175.383 174.315L129.984 173.857L95.4323 174.921Z" fill="#FDBC5A"/>
<path d="M118.548 174.927C118.54 175.702 118.336 176.463 117.954 177.138C117.151 178.851 115.81 180.254 114.137 181.136C112.463 182.017 110.548 182.328 108.681 182.023C107.908 181.955 107.165 181.692 106.521 181.259C106.555 181.167 107.365 181.497 108.731 181.621C110.505 181.806 112.293 181.461 113.871 180.631C115.448 179.8 116.744 178.52 117.594 176.953C118.266 175.757 118.454 174.901 118.548 174.927Z" fill="#38557D"/>
<path d="M180.684 198.295C178.921 200.042 176.9 201.507 174.692 202.641C176.456 200.894 178.476 199.429 180.684 198.295V198.295Z" fill="#38557D"/>
<path d="M181.667 202.346C179.323 202.984 176.893 203.251 174.467 203.136C176.811 202.498 179.24 202.231 181.667 202.346V202.346Z" fill="#38557D"/>
<path d="M106.542 103.608C107.656 103.614 108.761 103.395 109.789 102.964C110.817 102.533 111.747 101.899 112.525 101.1C113.302 100.301 113.91 99.3534 114.312 98.3138C114.714 97.2743 114.903 96.1643 114.866 95.0502C114.717 90.539 114.544 85.981 114.544 85.981C114.544 85.981 121.316 84.8551 121.328 78.0736C121.34 71.2921 120.005 55.7338 120.005 55.7338C116.134 54.1173 111.9 53.5638 107.743 54.1305C103.586 54.6973 99.6554 56.3637 96.3576 58.9576L95.3604 59.7409L98.3322 96.0015C98.5016 98.0663 99.4386 99.9926 100.958 101.401C102.478 102.809 104.47 103.596 106.542 103.608V103.608Z" fill="#B78876"/>
<path d="M117.641 67.8348C117.497 67.7055 117.394 67.5363 117.345 67.3485C117.297 67.1608 117.305 66.9629 117.369 66.7798C117.433 66.5967 117.55 66.4366 117.704 66.3197C117.859 66.2029 118.045 66.1344 118.238 66.123C118.432 66.1116 118.625 66.1578 118.792 66.2558C118.959 66.3537 119.094 66.499 119.179 66.6733C119.264 66.8476 119.295 67.0432 119.269 67.2354C119.243 67.4275 119.161 67.6076 119.032 67.753C118.947 67.8501 118.842 67.9293 118.726 67.986C118.61 68.0427 118.483 68.0758 118.354 68.0834C118.225 68.091 118.095 68.0729 117.973 68.0303C117.85 67.9876 117.738 67.9212 117.641 67.8348V67.8348Z" fill="#1C2E5C"/>
<path d="M120.191 66.5083C120.082 66.6262 119.414 66.1211 118.48 66.1265C117.546 66.132 116.874 66.6207 116.77 66.5018C116.718 66.4494 116.822 66.2367 117.115 66.0087C117.511 65.7182 117.988 65.5615 118.479 65.5615C118.97 65.5615 119.447 65.7182 119.843 66.0087C120.138 66.24 120.242 66.4582 120.191 66.5083Z" fill="#1C2E5C"/>
<path d="M108.736 67.1934C108.902 67.2938 109.034 67.4411 109.116 67.6167C109.199 67.7923 109.227 67.9883 109.198 68.18C109.169 68.3718 109.084 68.5507 108.954 68.6941C108.823 68.8376 108.653 68.9392 108.465 68.9861C108.277 69.033 108.079 69.0232 107.896 68.9578C107.714 68.8924 107.555 68.7745 107.439 68.6188C107.323 68.4631 107.256 68.2766 107.247 68.083C107.237 67.8893 107.285 67.6971 107.384 67.5305C107.45 67.4193 107.538 67.3223 107.642 67.2451C107.746 67.1679 107.864 67.112 107.99 67.0807C108.115 67.0494 108.246 67.0432 108.374 67.0625C108.502 67.0819 108.625 67.1263 108.736 67.1934V67.1934Z" fill="#1C2E5C"/>
<path d="M110.062 67.4478C109.953 67.5667 109.286 67.0605 108.352 67.066C107.418 67.0714 106.746 67.5613 106.641 67.4423C106.59 67.3889 106.693 67.1761 106.987 66.9481C107.382 66.6576 107.86 66.501 108.351 66.501C108.841 66.501 109.319 66.6576 109.714 66.9481C110.01 67.1816 110.114 67.3954 110.062 67.4478Z" fill="#1C2E5C"/>
<path d="M113.882 74.432C114.362 74.2359 114.872 74.1226 115.39 74.0971C115.633 74.0676 115.826 74.0109 115.84 73.8789C115.845 73.6341 115.782 73.3928 115.658 73.1818L114.9 71.2911C114.184 69.6937 113.631 68.0281 113.249 66.3196C114.124 67.8361 114.843 69.4375 115.395 71.0991C115.644 71.7537 115.88 72.3832 116.114 73.004C116.275 73.3159 116.326 73.6729 116.259 74.0175C116.225 74.1113 116.169 74.1958 116.097 74.2644C116.024 74.3329 115.937 74.3836 115.841 74.4124C115.706 74.4504 115.566 74.4703 115.426 74.4713C114.912 74.5468 114.39 74.5335 113.882 74.432V74.432Z" fill="#1C2E5C"/>
<path d="M110.859 75.4958C112.279 76.2505 113.847 76.6883 115.453 76.7788C115.141 77.2726 114.671 77.6462 114.12 77.8386C113.569 78.031 112.969 78.0309 112.418 77.8382C110.381 77.1159 110.859 75.4958 110.859 75.4958Z" fill="white"/>
<path d="M114.551 85.8829C111.42 85.9741 108.334 85.1318 105.684 83.4631C105.684 83.4631 107.825 88.3212 114.585 87.6394L114.551 85.8829Z" fill="#A36957"/>
<path d="M94.5858 65.8616C94.8994 64.5353 94.8302 63.1473 94.3862 61.8588C93.9422 60.577 93.7008 59.2339 93.6705 57.8778C93.666 57.1987 93.8598 56.5331 94.2279 55.9624C94.5961 55.3917 95.1228 54.9408 95.7433 54.6649C96.6587 54.3562 97.6842 54.5984 98.6126 54.3376C99.5315 53.9647 100.35 53.381 101.002 52.6335C103.719 50.1088 107.103 48.4167 110.753 47.758C111.802 47.4934 112.908 47.5519 113.923 47.926C114.422 48.129 114.832 48.5038 115.078 48.9826C115.325 49.4615 115.392 50.0127 115.267 50.5367C116.58 49.675 118.043 49.0691 119.581 48.7508C120.352 48.6032 121.15 48.6732 121.884 48.953C122.618 49.2327 123.259 49.7112 123.737 50.3349C124.586 51.6506 124.039 53.7856 122.521 54.1718C122.954 54.2709 123.363 54.4553 123.724 54.7143C124.085 54.9732 124.391 55.3016 124.623 55.68C124.856 56.0585 125.011 56.4795 125.079 56.9185C125.147 57.3575 125.127 57.8057 125.02 58.2368C124.751 59.0962 124.252 59.8652 123.576 60.4595C122.899 61.0538 122.073 61.4503 121.186 61.6057C119.403 61.8897 117.576 61.6628 115.916 60.9511C114.239 60.3162 112.659 59.4412 110.989 58.7866C110.419 59.5325 109.667 60.1198 108.805 60.4924C107.944 60.8651 107.001 61.0106 106.067 60.9151C104.204 60.7025 102.391 60.1676 100.711 59.3343C101.031 61.2682 100.866 63.2514 100.229 65.1055C99.8398 65.8048 99.5007 66.531 99.2148 67.2787C99.0584 68.3454 99 69.4241 99.0402 70.5015C98.9442 71.5761 98.3584 72.7729 97.2947 72.9398C96.8061 72.961 96.3245 72.8175 95.9272 72.5322C95.5299 72.2469 95.24 71.8364 95.104 71.3666C94.8567 70.4204 94.7963 69.435 94.9262 68.4657C94.9764 67.4915 94.1058 66.7387 94.5847 65.8692" fill="#1C2E5C"/>
<path d="M96.3314 68.0565C96.3134 67.7932 96.1942 67.547 95.9988 67.3697C95.8033 67.1923 95.5468 67.0975 95.2829 67.1052C94.0207 67.1608 91.9969 67.8099 92.0537 71.2999C92.1366 76.2857 96.8234 74.7016 96.8299 74.5587C96.8376 74.4463 96.4863 69.9853 96.3314 68.0565Z" fill="#B78876"/>
<path d="M95.5982 72.6854C95.5753 72.6701 95.512 72.7486 95.3658 72.8174C95.1594 72.9112 94.9243 72.9202 94.7113 72.8424C94.3863 72.643 94.1202 72.3608 93.94 72.0248C93.7598 71.6888 93.6721 71.311 93.6857 70.93C93.6644 70.5029 93.7389 70.0764 93.9039 69.6819C93.9481 69.5255 94.0297 69.3822 94.1416 69.2643C94.2536 69.1465 94.3926 69.0576 94.5465 69.0055C94.6457 68.9764 94.7521 68.9834 94.8466 69.0254C94.9411 69.0673 95.0176 69.1415 95.0625 69.2346C95.1324 69.3732 95.1018 69.4735 95.1291 69.4812C95.1564 69.4888 95.2382 69.3961 95.1913 69.191C95.1612 69.0677 95.09 68.9584 94.9894 68.8811C94.8506 68.7797 94.6774 68.737 94.5072 68.7622C94.3032 68.8061 94.1139 68.9016 93.9573 69.0395C93.8007 69.1774 93.682 69.3531 93.6126 69.5499C93.4073 69.9853 93.3118 70.4644 93.3344 70.9453C93.3172 71.3893 93.4316 71.8285 93.6631 72.2078C93.8947 72.587 94.2331 72.8894 94.636 73.077C94.7704 73.1142 94.9115 73.1204 95.0486 73.0953C95.1858 73.0701 95.3155 73.0143 95.428 72.9319C95.5906 72.8064 95.6157 72.6941 95.5982 72.6854Z" fill="#A36957"/>
<path d="M109.875 63.84C109.848 64.0036 108.791 63.9305 107.555 64.2316C106.316 64.5142 105.402 65.052 105.306 64.9168C105.205 64.8077 106.055 63.996 107.425 63.6785C107.823 63.5369 108.246 63.4782 108.667 63.506C109.088 63.5337 109.499 63.6474 109.875 63.84V63.84Z" fill="#1C2E5C"/>
<path d="M112.621 82.8827C112.464 82.8772 112.357 82.191 112.383 81.3488C112.409 80.5065 112.556 79.8279 112.71 79.8323C112.864 79.8367 112.973 80.524 112.947 81.3662C112.921 82.2084 112.777 82.887 112.621 82.8827Z" fill="#1C2E5C"/>
<path d="M113.973 82.4048C113.816 82.4048 113.689 81.8288 113.69 81.1185C113.691 80.4083 113.817 79.8323 113.975 79.8323C114.132 79.8323 114.258 80.4083 114.258 81.1185C114.258 81.8288 114.129 82.4048 113.973 82.4048Z" fill="#1C2E5C"/>
<path d="M115.461 82.0241C115.304 82.0372 115.134 81.5353 115.083 80.9037C115.032 80.272 115.115 79.7494 115.271 79.7363C115.427 79.7232 115.598 80.2251 115.649 80.8568C115.7 81.4884 115.617 82.011 115.461 82.0241Z" fill="#1C2E5C"/>
<path d="M152.001 105.842C144.347 102.579 138.957 100.699 134.74 98.4039C121.628 91.2646 118.455 93.2839 115.48 93.1279C109.986 95.3058 103.955 95.7374 98.2067 94.364V94.364C90.6027 95.2368 86.1635 98.8162 77.6725 102.219L60.6948 111.331L72.9442 128.385L88.6542 123.138C89.9568 129.684 90.2688 134.909 91.1438 142.861L92.8097 174.952L140.417 174.221L135.59 143.719L132.699 119.659L146.701 125.434L151.997 105.838" fill="#0FA6AF"/>
<g opacity="0.4">
<path opacity="0.4" d="M135.388 98.6482C135.395 98.6416 135.438 98.6809 135.517 98.766C135.638 98.8901 135.737 99.034 135.809 99.1915C135.937 99.5047 135.992 99.843 135.969 100.181C135.946 100.518 135.845 100.846 135.676 101.139C135.18 102.089 134.355 102.826 133.354 103.212C132.03 103.59 130.66 103.787 129.283 103.799C128.508 103.841 127.74 103.967 126.992 104.175C126.2 104.434 125.452 104.812 124.774 105.297C123.356 106.317 122.11 107.752 120.591 109.093C119.81 109.803 118.915 110.378 117.945 110.793C116.901 111.21 115.761 111.326 114.654 111.128C112.395 110.732 110.5 109.346 108.436 108.428C106.411 107.544 104.181 107.24 101.993 107.549C99.9324 107.829 97.8901 108.233 95.8775 108.758C94.0242 109.225 92.1265 109.493 90.2164 109.558C88.5267 109.62 86.8463 109.281 85.3125 108.569C84.0653 107.922 83.0397 106.917 82.3669 105.683C81.8424 104.762 81.5964 103.71 81.6589 102.652C81.7139 101.989 81.937 101.351 82.3069 100.797C82.438 100.609 82.5932 100.438 82.7684 100.29C82.249 100.981 81.9402 101.806 81.8792 102.668C81.8592 103.675 82.1239 104.667 82.6429 105.53C83.3093 106.684 84.2997 107.617 85.4914 108.213C86.9744 108.866 88.5892 109.165 90.2077 109.085C92.0816 108.999 93.9415 108.718 95.7575 108.248C97.7882 107.703 99.8509 107.284 101.933 106.994C104.219 106.668 106.551 106.984 108.667 107.908C110.795 108.868 112.662 110.216 114.744 110.578C115.751 110.763 116.79 110.663 117.743 110.287C118.659 109.898 119.505 109.36 120.245 108.695C121.732 107.405 123.008 105.959 124.5 104.911C125.224 104.404 126.021 104.012 126.864 103.747C127.644 103.541 128.445 103.422 129.251 103.392C130.597 103.403 131.938 103.241 133.241 102.907C134.185 102.567 134.977 101.903 135.476 101.032C135.644 100.767 135.751 100.468 135.79 100.157C135.828 99.8458 135.798 99.53 135.701 99.2318C135.545 98.8314 135.354 98.6722 135.388 98.6482Z" fill="black"/>
</g>
<g opacity="0.4">
<path opacity="0.4" d="M131.752 121.013C131.632 121.245 131.486 121.462 131.315 121.66C130.836 122.241 130.281 122.755 129.665 123.187C128.685 123.881 127.58 124.378 126.412 124.65C124.854 125.029 123.222 124.979 121.691 124.504C119.996 123.994 118.351 122.942 116.412 122.5C114.298 122.184 112.14 122.63 110.325 123.76C108.257 125.028 106.026 126.008 103.693 126.673C101.112 127.237 98.4286 127.111 95.9124 126.306C94.6422 125.89 93.4347 125.303 92.3231 124.561C91.2321 123.832 90.2502 123.011 89.2684 122.261C88.3267 121.509 87.2978 120.873 86.2038 120.367C85.1417 119.919 84.0227 119.62 82.8786 119.479C80.7247 119.274 78.5617 119.179 76.3982 119.196C74.4783 119.186 72.5722 118.871 70.7513 118.263C69.2273 117.745 67.901 116.768 66.9548 115.466C66.2437 114.484 65.8202 113.325 65.7318 112.116C65.6702 111.356 65.8074 110.592 66.13 109.9C66.2354 109.66 66.3758 109.436 66.5467 109.236C66.5751 109.252 66.4191 109.477 66.2347 109.945C65.9676 110.63 65.8706 111.369 65.9522 112.1C66.0759 113.255 66.5115 114.354 67.2122 115.28C68.1422 116.504 69.4255 117.414 70.8888 117.885C72.6748 118.452 74.5386 118.736 76.4124 118.725C78.594 118.687 80.7762 118.765 82.9495 118.96C84.1425 119.1 85.3101 119.406 86.4187 119.869C87.5554 120.387 88.6248 121.042 89.6033 121.818C90.6081 122.574 91.5823 123.387 92.6395 124.091C93.7094 124.8 94.8701 125.363 96.0902 125.762C98.511 126.536 101.092 126.661 103.576 126.125C105.866 125.476 108.058 124.522 110.094 123.289C111.101 122.756 112.169 122.346 113.274 122.069C114.338 121.811 115.447 121.8 116.516 122.036C118.571 122.534 120.189 123.609 121.816 124.119C123.28 124.594 124.844 124.669 126.346 124.337C127.486 124.096 128.571 123.643 129.544 123.002C130.361 122.435 131.103 121.767 131.752 121.013V121.013Z" fill="black"/>
</g>
<g opacity="0.4">
<path opacity="0.4" d="M149.159 113.824C149.179 113.921 148.252 114.063 146.969 114.784C145.334 115.815 143.803 117 142.395 118.325C140.928 119.685 139.133 120.642 137.186 121.104C136.372 121.313 135.512 121.243 134.743 120.903C135.535 120.917 136.326 120.852 137.105 120.71C138.939 120.153 140.622 119.188 142.031 117.89C143.46 116.535 145.058 115.371 146.785 114.426C147.507 114.011 148.328 113.803 149.159 113.824V113.824Z" fill="black"/>
</g>
<g opacity="0.4">
<path opacity="0.4" d="M133.352 140.44C133.328 140.598 133.271 140.75 133.184 140.884C132.964 141.291 132.651 141.639 132.27 141.901C131.552 142.355 130.741 142.642 129.897 142.739C129.053 142.836 128.198 142.741 127.396 142.462C125.342 141.906 123.191 140.533 120.464 140.376C117.504 140.266 114.549 140.71 111.752 141.685C108.917 142.678 106.008 143.444 103.052 143.976C100.589 144.392 98.0583 144.116 95.7422 143.181C94.1745 142.561 92.8151 141.509 91.8223 140.147C91.5562 139.78 91.3364 139.381 91.1677 138.961C91.0953 138.82 91.0459 138.668 91.0215 138.511C91.0772 138.485 91.2997 139.104 92.0034 140.015C93.0274 141.278 94.3722 142.243 95.8971 142.809C98.1559 143.663 100.604 143.889 102.981 143.463C105.904 142.903 108.782 142.127 111.591 141.142C114.455 140.147 117.483 139.711 120.512 139.859C121.837 139.981 123.135 140.31 124.359 140.834C125.501 141.303 126.528 141.786 127.51 142.081C128.263 142.362 129.068 142.476 129.868 142.414C130.669 142.352 131.447 142.116 132.148 141.723C132.636 141.386 133.047 140.949 133.352 140.44V140.44Z" fill="black"/>
</g>
<g opacity="0.4">
<path opacity="0.4" d="M138.07 159.807C138.094 159.979 138.089 160.154 138.052 160.324C137.958 160.819 137.744 161.283 137.428 161.676C136.805 162.364 136.023 162.889 135.149 163.204C134.276 163.518 133.338 163.614 132.42 163.481C131.177 163.293 129.961 162.963 128.793 162.5C127.494 161.967 126.135 161.593 124.746 161.387C121.8 160.993 118.595 162.023 115.356 163.181C113.719 163.759 112.113 164.328 110.508 164.728C108.96 165.116 107.368 165.308 105.771 165.298C103.069 165.267 100.401 164.683 97.9329 163.583C96.2757 162.847 94.7358 161.872 93.3628 160.687C92.9882 160.37 92.6344 160.03 92.3035 159.667C92.0744 159.422 91.962 159.287 91.9762 159.272C93.7991 160.894 95.8622 162.224 98.0922 163.214C100.524 164.237 103.135 164.767 105.774 164.774C107.325 164.769 108.87 164.573 110.373 164.188C111.942 163.79 113.53 163.224 115.166 162.646C118.405 161.489 121.712 160.428 124.81 160.867C126.236 161.092 127.628 161.492 128.956 162.058C130.086 162.528 131.266 162.873 132.472 163.084C133.335 163.224 134.219 163.156 135.052 162.887C135.884 162.618 136.64 162.155 137.258 161.536C137.669 161.037 137.948 160.442 138.07 159.807V159.807Z" fill="black"/>
</g>
<g opacity="0.4">
<path opacity="0.4" d="M100.634 120.193C99.8482 119.475 99.1495 118.667 98.5525 117.786C97.8118 117.022 97.164 116.173 96.6226 115.257C98.418 116.47 99.8139 118.187 100.634 120.193V120.193Z" fill="black"/>
</g>
<g opacity="0.4">
<path opacity="0.4" d="M128.118 113.087C126.893 114.929 125.359 116.546 123.585 117.867C124.81 116.025 126.343 114.408 128.118 113.087V113.087Z" fill="black"/>
</g>
<g opacity="0.4">
<path opacity="0.4" d="M143.448 111.582C142.588 111.285 141.799 110.813 141.13 110.196C139.944 109.305 139.057 108.481 139.154 108.356C140.014 108.653 140.803 109.125 141.471 109.741C142.657 110.633 143.542 111.456 143.448 111.582Z" fill="black"/>
</g>
<g opacity="0.4">
<path opacity="0.4" d="M75.0716 108.188C75.2586 109.033 75.1548 109.918 74.7771 110.697C74.3014 112.035 73.5301 112.912 73.4101 112.821C73.6016 112.021 73.8804 111.244 74.2414 110.505C74.4328 109.705 74.7112 108.928 75.0716 108.188Z" fill="black"/>
</g>
<g opacity="0.4">
<path opacity="0.4" d="M101.465 157.488C101.342 157.586 100.409 156.615 99.3817 155.322C98.6845 154.591 98.1295 153.737 97.7452 152.803C97.8685 152.706 98.8013 153.676 99.829 154.969C100.526 155.7 101.081 156.554 101.465 157.488V157.488Z" fill="black"/>
</g>
<g opacity="0.4">
<path opacity="0.4" d="M115.096 151.27C113.757 153.082 112.121 154.654 110.259 155.922C111.596 154.109 113.232 152.536 115.096 151.27V151.27Z" fill="black"/>
</g>
<g opacity="0.4">
<path opacity="0.4" d="M131.995 155.797C130.126 154.904 128.439 153.674 127.017 152.168C128.885 153.061 130.573 154.292 131.995 155.797V155.797Z" fill="black"/>
</g>
<g opacity="0.4">
<path opacity="0.4" d="M105.19 132.251C104.29 133.096 103.265 133.797 102.153 134.331C101.133 135.026 100.013 135.561 98.8307 135.918C99.7311 135.074 100.756 134.372 101.869 133.839C102.889 133.144 104.009 132.609 105.19 132.251V132.251Z" fill="black"/>
</g>
<g opacity="0.4">
<path opacity="0.4" d="M120.089 133.517C119.138 133.401 118.241 133.01 117.508 132.391C116.776 131.772 116.24 130.953 115.967 130.034C116.115 129.958 116.742 131.016 117.875 131.957C119.007 132.897 120.14 133.358 120.089 133.517Z" fill="black"/>
</g>
<g opacity="0.4">
<path opacity="0.4" d="M99.6293 99.866C99.6937 100.009 98.6987 100.601 97.407 101.189C96.6553 101.632 95.8168 101.906 94.9491 101.994C94.8847 101.853 95.8797 101.26 97.1714 100.672C97.9231 100.23 98.7615 99.9547 99.6293 99.866V99.866Z" fill="black"/>
</g>
<g opacity="0.4">
<path opacity="0.4" d="M114.977 102.393C113.108 101.836 111.366 100.92 109.85 99.6946C111.719 100.25 113.461 101.167 114.977 102.393V102.393Z" fill="black"/>
</g>
<g opacity="0.4">
<path opacity="0.4" d="M127.936 98.0429C126.281 98.5841 124.528 98.7547 122.8 98.5425C124.455 98.0012 126.208 97.8306 127.936 98.0429V98.0429Z" fill="black"/>
</g>
<g opacity="0.4">
<path opacity="0.4" d="M102.517 171.838C102.422 171.964 101.412 171.355 100.261 170.481C99.1101 169.607 98.2547 168.796 98.3497 168.671C98.4446 168.547 99.4548 169.153 100.606 170.028C101.757 170.903 102.612 171.714 102.517 171.838Z" fill="black"/>
</g>
<g opacity="0.4">
<path opacity="0.4" d="M122.795 168.441C122.904 168.54 122.115 169.591 120.789 170.494C120.038 171.12 119.12 171.512 118.148 171.621C118.866 171.013 119.643 170.478 120.468 170.025C121.189 169.421 121.968 168.89 122.795 168.441V168.441Z" fill="black"/>
</g>
<g opacity="0.4">
<path opacity="0.4" d="M136.032 172.54C134.247 172.081 132.577 171.257 131.128 170.12C132.913 170.577 134.583 171.401 136.032 172.54Z" fill="black"/>
</g>
<path d="M183.733 197.022C183.456 197.084 183.175 197.121 182.891 197.131C182.337 197.188 181.519 197.247 180.465 197.307C178.356 197.436 175.303 197.565 171.531 197.696C163.985 197.947 153.557 198.199 142.036 198.26C136.274 198.276 130.786 198.282 125.781 198.042C121.295 197.848 116.95 196.417 113.226 193.909C110.741 192.194 108.705 189.907 107.288 187.241C106.774 186.269 106.374 185.241 106.096 184.178C106.168 184.152 106.486 185.287 107.483 187.136C108.95 189.713 110.993 191.916 113.453 193.573C117.137 195.986 121.409 197.349 125.81 197.515C130.782 197.726 136.274 197.705 142.031 197.689C153.545 197.628 163.97 197.44 171.517 197.291L180.452 197.083L182.88 197.015C183.164 196.992 183.45 196.995 183.733 197.022Z" fill="#38557D"/>
</svg>
