<svg xmlns="http://www.w3.org/2000/svg" viewBox="0 0 500 500"><g id="freepik--character-3--inject-6"><path d="M354.11,403.2l-22.52-49.93H278.94L287,400a4.21,4.21,0,0,1-3.43,4.87,3.82,3.82,0,0,1-.68.06H259.8a2.24,2.24,0,0,0-2.24,2.24h0v2.48a2.24,2.24,0,0,0,2.24,2.24h92.68a2.43,2.43,0,0,0,2.43-2.43v-2.58A9.08,9.08,0,0,0,354.11,403.2ZM329.73,397H304.45a3.39,3.39,0,0,1-3.33-2.81l-3.81-22a3.38,3.38,0,0,1,2.75-3.91,3.9,3.9,0,0,1,.59,0h19.11a3.39,3.39,0,0,1,3.09,2l10,22a3.4,3.4,0,0,1-3.08,4.78Z" style="fill:#263238"></path><path d="M354.11,403.2l-22.52-49.93H278.94L287,400a4.21,4.21,0,0,1-3.43,4.87,3.82,3.82,0,0,1-.68.06H259.8a2.24,2.24,0,0,0-2.24,2.24h0v2.48a2.24,2.24,0,0,0,2.24,2.24h92.68a2.43,2.43,0,0,0,2.43-2.43v-2.58A9.08,9.08,0,0,0,354.11,403.2ZM329.73,397H304.45a3.39,3.39,0,0,1-3.33-2.81l-3.81-22a3.38,3.38,0,0,1,2.75-3.91,3.9,3.9,0,0,1,.59,0h19.11a3.39,3.39,0,0,1,3.09,2l10,22a3.4,3.4,0,0,1-3.08,4.78Z" style="fill:#fff;opacity:0.5"></path><path d="M329.73,397H304.45a3.39,3.39,0,0,1-3.33-2.81l-3.81-22a3.38,3.38,0,0,1,2.75-3.91,3.9,3.9,0,0,1,.59,0h19.11a3.39,3.39,0,0,1,3.09,2l10,22a3.4,3.4,0,0,1-3.08,4.78Z" style="fill:#fff;isolation:isolate;opacity:0.2"></path><path d="M303.62,368.17h-3a3.38,3.38,0,0,0-3.39,3.38,2.84,2.84,0,0,0,.05.58l3.81,22a3.39,3.39,0,0,0,3.33,2.81h3a3.39,3.39,0,0,1-3.34-2.81l-3.81-22a3.39,3.39,0,0,1,2.76-3.91A3.66,3.66,0,0,1,303.62,368.17Z" style="fill:#263238"></path><path d="M357.09,403.2l-22.54-49.88h-3l22.52,49.88a8.94,8.94,0,0,1,.8,3.71v2.58a2.43,2.43,0,0,1-2.43,2.43h3a2.42,2.42,0,0,0,2.42-2.43v-2.58A8.94,8.94,0,0,0,357.09,403.2Z" style="fill:#263238"></path><polygon points="331.57 353.27 278.92 353.27 280.99 365.19 336.96 365.19 331.57 353.27" style="isolation:isolate;opacity:0.2"></polygon><path d="M407.09,358.51H182.49a7.39,7.39,0,0,1-7.53-7.25,8,8,0,0,1,0-1L189.19,188a9.16,9.16,0,0,1,8.94-8.23H422.74a7.4,7.4,0,0,1,7.53,7.26,7.88,7.88,0,0,1,0,1L416,350.29A9.13,9.13,0,0,1,407.09,358.51Z" style="fill:#263238"></path><path d="M407.09,358.51H182.49a7.39,7.39,0,0,1-7.53-7.25,8,8,0,0,1,0-1L189.19,188a9.16,9.16,0,0,1,8.94-8.23H422.74a7.4,7.4,0,0,1,7.53,7.26,7.88,7.88,0,0,1,0,1L416,350.29A9.13,9.13,0,0,1,407.09,358.51Z" style="fill:#fff;opacity:0.30000000000000004"></path><path d="M176.53,332.75,175,350.29a7.4,7.4,0,0,0,6.52,8.18,7.78,7.78,0,0,0,1,0H407.09a9.13,9.13,0,0,0,8.93-8.23l1.54-17.54Z" style="fill:#15B2BC"></path><path d="M176.53,332.75,175,350.29a7.4,7.4,0,0,0,6.52,8.18,7.78,7.78,0,0,0,1,0H407.09a9.13,9.13,0,0,0,8.93-8.23l1.54-17.54Z" style="fill:#fff;isolation:isolate;opacity:0.7000000000000001"></path><path d="M409.63,327.78H185.32a4,4,0,0,1-4.09-3.93,4.53,4.53,0,0,1,0-.52L193,189.19a5,5,0,0,1,4.84-4.45H422.15a4,4,0,0,1,4.08,3.94,2.9,2.9,0,0,1,0,.51L414.48,323.33A5,5,0,0,1,409.63,327.78Z" style="fill:#15B2BC"></path><path d="M409.63,327.78H185.32a4,4,0,0,1-4.09-3.93,4.53,4.53,0,0,1,0-.52L193,189.19a5,5,0,0,1,4.84-4.45H422.15a4,4,0,0,1,4.08,3.94,2.9,2.9,0,0,1,0,.51L414.48,323.33A5,5,0,0,1,409.63,327.78Z" style="fill:#15B2BC;isolation:isolate;opacity:0.8"></path><path d="M409.63,327.78H185.32a4,4,0,0,1-4.09-3.93,4.53,4.53,0,0,1,0-.52L193,189.19a5,5,0,0,1,4.84-4.45H422.15a4,4,0,0,1,4.08,3.94,2.9,2.9,0,0,1,0,.51L414.48,323.33A5,5,0,0,1,409.63,327.78Z" style="fill:#fff;isolation:isolate;opacity:0.8"></path><g style="opacity:0.5"><polygon points="248.18 327.79 227.69 327.79 258.1 184.74 278.58 184.74 248.18 327.79" style="fill:#fff"></polygon><polygon points="261.14 327.79 255.9 327.79 286.31 184.74 291.55 184.74 261.14 327.79" style="fill:#fff"></polygon><polygon points="337.44 327.79 334 327.79 364.41 184.74 367.84 184.74 337.44 327.79" style="fill:#fff"></polygon><polygon points="350.41 327.79 345.17 327.79 375.57 184.74 380.81 184.74 350.41 327.79" style="fill:#fff"></polygon></g><path d="M427.7,179.79h-5a7.39,7.39,0,0,1,7.53,7.25,7.88,7.88,0,0,1,0,1L416,350.29a9.13,9.13,0,0,1-8.93,8.23h5a9.14,9.14,0,0,0,8.93-8.23L435.19,188a7.39,7.39,0,0,0-6.54-8.16A6,6,0,0,0,427.7,179.79Z" style="fill:#263238"></path><path d="M427.7,179.79h-5a7.39,7.39,0,0,1,7.53,7.25,7.88,7.88,0,0,1,0,1L416,350.29a9.13,9.13,0,0,1-8.93,8.23h5a9.14,9.14,0,0,0,8.93-8.23L435.19,188a7.39,7.39,0,0,0-6.54-8.16A6,6,0,0,0,427.7,179.79Z" style="fill:#fff;isolation:isolate;opacity:0.6000000000000001"></path><path d="M308.64,277.7a18.74,18.74,0,0,1-18.3,16.83A15.18,15.18,0,0,1,275,277.7a18.74,18.74,0,0,1,18.3-16.83l.76-8.6c-14.05,0-26.43,11.38-27.66,25.43s9.16,25.43,23.21,25.43S316,291.74,317.24,277.7Z" style="fill:#15B2BC"></path><path d="M320.26,274c1.23-14.05-9.16-25.43-23.21-25.43l-.75,8.6A15.17,15.17,0,0,1,311.66,274Z" style="fill:#15B2BC"></path><path d="M320.26,274c1.23-14.05-9.16-25.43-23.21-25.43l-.75,8.6A15.17,15.17,0,0,1,311.66,274Z" style="opacity:0.30000000000000004"></path><path d="M299.19,277.7a8.53,8.53,0,0,1-8.33,7.66,6.91,6.91,0,0,1-7-7.66A8.53,8.53,0,0,1,292.2,270l.34-3.92A12.9,12.9,0,0,0,280,277.7a10.44,10.44,0,0,0,10.57,11.57A12.88,12.88,0,0,0,303.1,277.7Z" style="fill:#15B2BC"></path><path d="M299.19,277.7a8.53,8.53,0,0,1-8.33,7.66,6.91,6.91,0,0,1-7-7.66A8.53,8.53,0,0,1,292.2,270l.34-3.92A12.9,12.9,0,0,0,280,277.7a10.44,10.44,0,0,0,10.57,11.57A12.88,12.88,0,0,0,303.1,277.7Z" style="opacity:0.30000000000000004"></path><path d="M304.48,276a10.44,10.44,0,0,0-10.57-11.57l-.34,3.91a6.91,6.91,0,0,1,7,7.66Z" style="fill:#15B2BC"></path><path d="M354,290.94H333.8a1.25,1.25,0,0,1-1.26-1.38h0a1.54,1.54,0,0,1,1.5-1.38h20.24a1.24,1.24,0,0,1,1.25,1.38h0A1.53,1.53,0,0,1,354,290.94Z" style="fill:#263238"></path><path d="M348.47,296.37H333.32a1.24,1.24,0,0,1-1.25-1.38h0a1.53,1.53,0,0,1,1.5-1.38h15.14A1.24,1.24,0,0,1,350,295h0A1.53,1.53,0,0,1,348.47,296.37Z" style="fill:#263238"></path><path d="M230.71,293.22h20.23a1.53,1.53,0,0,0,1.5-1.37h0a1.23,1.23,0,0,0-1.25-1.38H231a1.53,1.53,0,0,0-1.5,1.38h0A1.23,1.23,0,0,0,230.71,293.22Z" style="fill:#263238"></path><path d="M235.31,298.65h15.15a1.54,1.54,0,0,0,1.5-1.38h0a1.24,1.24,0,0,0-1.26-1.38H235.56a1.54,1.54,0,0,0-1.51,1.38h0A1.25,1.25,0,0,0,235.31,298.65Z" style="fill:#263238"></path><polygon points="328.75 290.35 321.86 290.35 306.23 273.23 301.2 273.23 301.33 271.78 306.96 271.78 322.58 288.91 328.88 288.91 328.75 290.35" style="fill:#263238"></polygon><polygon points="254.91 293.36 261.8 293.36 277.43 276.23 282.46 276.23 282.34 274.79 276.7 274.79 261.08 291.91 254.78 291.91 254.91 293.36" style="fill:#263238"></polygon><polygon points="246.53 205.53 209.94 205.53 210.55 198.55 247.14 198.55 246.53 205.53" style="opacity:0.1"></polygon><polygon points="245.31 219.48 208.72 219.48 209.33 212.5 245.92 212.5 245.31 219.48" style="opacity:0.1"></polygon><polygon points="244.09 233.43 207.5 233.43 208.11 226.45 244.7 226.45 244.09 233.43" style="opacity:0.1"></polygon><polygon points="245.92 212.5 209.33 212.5 209.94 205.53 246.53 205.53 245.92 212.5" style="fill:#fff;opacity:0.2"></polygon><polygon points="244.7 226.45 208.11 226.45 208.72 219.48 245.31 219.48 244.7 226.45" style="fill:#fff;opacity:0.2"></polygon><path d="M230.66,232.63c-4.9,0-5.72-8.24-6.58-17-.8-8-1.63-16.37-5.92-16.37-3.51,0-7.53,11.82-8.78,16.37l-.71-.13a81.55,81.55,0,0,1,2.88-8.39c2.35-5.7,4.6-8.59,6.68-8.59,4.9,0,5.72,8.25,6.58,17,.8,8,1.63,16.37,5.92,16.37,3.42,0,7.32-11.23,8.68-16a.41.41,0,0,1,.45-.29h0a.34.34,0,0,1,.26.43,81.62,81.62,0,0,1-2.78,8C235,229.74,232.74,232.63,230.66,232.63Z" style="fill:#15B2BC"></path><path d="M213.78,228.83c-3.72,0-5-11.74-5.13-13.08l.74-.13c.34,3.47,1.82,12.47,4.45,12.47s4.16-5.37,5.58-10.56c1.58-5.74,3.07-11.16,6.36-11.16,2.77,0,3.22,4.49,3.69,9.25.42,4.25.86,8.64,3,8.64s3.36-4.39,4.53-8.64c1.3-4.76,2.53-9.25,5.3-9.25,1.22,0,2.18,1.55,2.93,4.73a41,41,0,0,1,.72,4.15.4.4,0,0,1-.33.43h0a.33.33,0,0,1-.4-.29c-.38-3.34-1.47-8.28-3-8.28-2.16,0-3.36,4.39-4.53,8.64-1.3,4.76-2.54,9.25-5.31,9.25s-3.21-4.49-3.68-9.25c-.43-4.25-.86-8.64-3-8.64-2.69,0-4.16,5.37-5.58,10.56C218.56,223.41,217.07,228.83,213.78,228.83Z" style="fill:#15B2BC"></path><g style="opacity:0.5"><path d="M213.78,228.83c-3.72,0-5-11.74-5.13-13.08l.74-.13c.34,3.47,1.82,12.47,4.45,12.47s4.16-5.37,5.58-10.56c1.58-5.74,3.07-11.16,6.36-11.16,2.77,0,3.22,4.49,3.69,9.25.42,4.25.86,8.64,3,8.64s3.36-4.39,4.53-8.64c1.3-4.76,2.53-9.25,5.3-9.25,1.22,0,2.18,1.55,2.93,4.73a41,41,0,0,1,.72,4.15.4.4,0,0,1-.33.43h0a.33.33,0,0,1-.4-.29c-.38-3.34-1.47-8.28-3-8.28-2.16,0-3.36,4.39-4.53,8.64-1.3,4.76-2.54,9.25-5.31,9.25s-3.21-4.49-3.68-9.25c-.43-4.25-.86-8.64-3-8.64-2.69,0-4.16,5.37-5.58,10.56C218.56,223.41,217.07,228.83,213.78,228.83Z"></path></g><path d="M244.33,234.13H207L210.11,199a.45.45,0,0,1,.44-.41h0a.36.36,0,0,1,.37.41l-3,34.36H244.4a.37.37,0,0,1,.37.41h0A.45.45,0,0,1,244.33,234.13Z" style="fill:#263238"></path><path d="M328.35,200.07h-59l-1,11.61-.09,1-.93,10.65-.08,1-1,11.61h70.61l1-11.61.08-1,.94-10.65.08-1,1-11.61Zm-11.7,1H327.3l-.93,10.65H315.72Zm8.7,22.26H314.71l.93-10.65h10.65Zm-44.54-10.65h10.65l-.93,10.65H279.88Zm11.61,0h10.65l-.93,10.65H291.49Zm11.61,0h10.65l-.93,10.65H303.1Zm1-11.61h10.64l-.93,10.65H304.12Zm-11.61,0h10.65l-.94,10.65H292.51Zm-11.61,0h10.65l-.93,10.65H280.9Zm-11.61,0h10.65l-.93,10.65H269.29Zm-1,11.61h10.64l-.93,10.65H268.27Zm8.7,22.26H267.26l.93-10.65h10.65Zm11.6,0H278.87l.93-10.65h10.65Zm11.61,0H290.48l.93-10.65h10.64Zm11.61,0H302.08l.94-10.65h10.64Zm11.61,0H313.69l.93-10.65h10.65Zm11.61,0H325.3l.93-10.65h10.65Zm1-11.61H326.32l.93-10.65h10.64Zm-9.63-11.61.93-10.65h10.65L338,211.68Z" style="fill:#15B2BC"></path><polygon points="280.91 235.38 273.36 235.38 274.56 221.71 282.1 221.71 280.91 235.38" style="fill:#15B2BC"></polygon><polygon points="292.52 235.38 284.97 235.38 286.49 217.97 294.04 217.97 292.52 235.38" style="fill:#263238"></polygon><polygon points="304.69 235.38 297.15 235.38 298.67 217.97 306.22 217.97 304.69 235.38" style="fill:#15B2BC"></polygon><polygon points="315.73 235.38 308.18 235.38 310.55 208.38 318.1 208.38 315.73 235.38" style="fill:#263238"></polygon><polygon points="327.34 235.38 319.79 235.38 322.33 206.36 329.88 206.36 327.34 235.38" style="fill:#15B2BC"></polygon><polygon points="280.91 235.38 273.36 235.38 274.56 221.71 282.1 221.71 280.91 235.38" style="opacity:0.2"></polygon><polygon points="304.69 235.38 297.15 235.38 298.67 217.97 306.22 217.97 304.69 235.38" style="opacity:0.2"></polygon><polygon points="327.34 235.38 319.79 235.38 322.33 206.36 329.88 206.36 327.34 235.38" style="opacity:0.2"></polygon><g id="freepik--character-3--inject-6"><path d="M385.26,327.79c3.63-28.23,7.22-58.53,7.22-58.53l-29-.18s-2.68,31.6-4.79,58.71Z" style="fill:#263238"></path><path d="M386.28,327.79c1.28-10.5,2.55-21.29,3.65-30.71.26-3.93.5-7.75.74-11.37-2.21-5.11-6.54-7.93-9.57,3.87a85.16,85.16,0,0,0-.37,38.21Z" style="opacity:0.6000000000000001"></path><path d="M409.46,327.79c-1.33-27.75-2.77-59.12-2.77-59.12h-28s2.43,32.38,5,59.12Z" style="fill:#263238"></path><path d="M360.74,202.64c-2,4.58-4.23,9.36-6.6,13.78-1.18,2.24-2.45,4.39-3.77,6.4a27.38,27.38,0,0,1-4.08,5,7.36,7.36,0,0,1-.85.68,2.63,2.63,0,0,0-.38.25s.14.06,0,.08a1.45,1.45,0,0,1-.59-.12,8.55,8.55,0,0,1-2.23-1.37,26.07,26.07,0,0,1-2.49-2.3,96.07,96.07,0,0,1-9.23-12l-5.14,2.39a59.45,59.45,0,0,0,7.45,15.24,30.56,30.56,0,0,0,2.93,3.59,18.42,18.42,0,0,0,4.21,3.33,11.58,11.58,0,0,0,3.17,1.22,10,10,0,0,0,4,.06,14.11,14.11,0,0,0,5.78-2.78,35.34,35.34,0,0,0,6.46-6.94A79.5,79.5,0,0,0,364.1,222c1.39-2.44,2.7-4.89,3.88-7.4s2.32-5,3.37-7.66Z" style="fill:#ce7a63"></path><path d="M347.31,222.1l12.83,9.57s.49-.54,1.3-1.48c.6-.69,1.36-1.6,2.25-2.68,5-6.07,12.27-17.15,12.33-22.58.09-8.09-8.32-9.28-17.74-1-4.07,3.57-6.19,9.49-8.26,13.17-.69,1.21-1.26,2.27-1.71,3.09C347.67,221.39,347.31,222.1,347.31,222.1Z" style="fill:#15B2BC"></path><path d="M376.1,205.87c-2.9-1.92-5,3-10.74,7.23-2.55,1.87-8.15,14.05-7.69,16.73l2.47,1.84S376.17,213.93,376.1,205.87Z" style="opacity:0.30000000000000004"></path><path d="M326.81,217.38l-7.34-5.81,7.56-4.86s6,6.54,4.37,8.79Z" style="fill:#ce7a63"></path><polygon points="347.31 220.85 361.33 231.34 359.58 233.16 346.24 223.31 347.31 220.85" style="fill:#15B2BC"></polygon><polygon points="347.31 220.85 361.33 231.34 359.58 233.16 346.24 223.31 347.31 220.85" style="opacity:0.2"></polygon><path d="M363.33,269.08h43.41c.3-3.87-.59-16.49.07-32.55a205.74,205.74,0,0,1,4.32-35.4c.19-.88.39-1.74.6-2.62,0,0-2.2-.45-5.35-.91-2.62-.38-5.91-.77-9.12-.93a164.46,164.46,0,0,0-18.45,0c-2.84.27-5.61.74-7.82,1.16-2.82.57-4.49,1.06-4.49,1.06S355.81,223.44,363.33,269.08Z" style="fill:#15B2BC"></path><polygon points="319.02 203.22 325.15 201.2 327.03 206.71 319.47 211.57 319.02 203.22" style="fill:#ce7a63"></polygon><path d="M416.63,208.61c1.22,2.51,2.2,4.9,3.2,7.39s1.88,5,2.7,7.58a78.76,78.76,0,0,1,2.09,8,39.6,39.6,0,0,1,.88,8.93,17,17,0,0,1-1.12,5.56,10.53,10.53,0,0,1-2,3.19,9.36,9.36,0,0,1-3.48,2.36,11.43,11.43,0,0,1-6.53.3,19.84,19.84,0,0,1-4.58-1.67,39.45,39.45,0,0,1-7.11-4.64c-1.07-.85-2.09-1.74-3.07-2.67s-1.93-1.84-2.89-2.89l3.63-4.35a70.92,70.92,0,0,0,12.89,6.18,13.53,13.53,0,0,0,2.77.57c.78.07,1.26-.15,1.05-.18a.83.83,0,0,0-.37.15c-.1.06-.09.05-.05-.11a8.34,8.34,0,0,0,.14-2,29.08,29.08,0,0,0-1-6.31c-.55-2.25-1.27-4.55-2.07-6.84-1.57-4.57-3.47-9.27-5.4-13.66Z" style="fill:#ce7a63"></path><path d="M400.16,237.11l-6.85-6.36L389.65,239s7.39,4.94,9.36,3Z" style="fill:#ce7a63"></path><polygon points="384.98 231.57 383.92 237.94 389.65 238.96 393.31 230.75 384.98 231.57" style="fill:#ce7a63"></polygon><path d="M406.81,236.54a205.84,205.84,0,0,1,4.32-35.41c-2.9-.25-7.86,0-8.68,4.72C401.56,210.89,402.68,222.73,406.81,236.54Z" style="opacity:0.30000000000000004"></path><path d="M401.37,212.45a146.14,146.14,0,0,0,6.28,16.21c.52,1.19,1,2.24,1.4,3.1.69,1.5,1.13,2.41,1.13,2.41l16.24-8.28s-.18-.68-.5-1.82c-.24-.86-.57-2-1-3.28-2.39-7.66-7.35-21.35-12.64-22.31C404.4,197.05,398.48,202.8,401.37,212.45Z" style="fill:#15B2BC"></path><path d="M386.63,202.77c10.71-.29,12.32-5.53,12.39-5.76l.07-.23-1.83-.11a164.46,164.46,0,0,0-18.45,0l-1,.11a3.42,3.42,0,0,0-1.2,3.11c.47,1.83,3,2.44,5.17,2.7Z" style="fill:#fff"></path><polygon points="426.04 222.97 408.29 232.05 410.3 234.51 426.8 225.94 426.04 222.97" style="fill:#15B2BC"></polygon><polygon points="426.04 222.97 408.29 232.05 410.3 234.51 426.8 225.94 426.04 222.97" style="opacity:0.2"></polygon><path d="M389.28,208.31,384,203.54,377.59,208s-6.68-6.33-1.72-11c1-.13,1.94-.25,2.94-.35a164.46,164.46,0,0,1,18.45,0c1.26.06,2.52.17,3.76.29C400.65,198.75,398.76,204.64,389.28,208.31Z" style="fill:#15B2BC"></path><path d="M389.28,208.31,384,203.54,377.59,208s-6.68-6.33-1.72-11c1-.13,1.94-.25,2.94-.35a164.46,164.46,0,0,1,18.45,0c1.26.06,2.52.17,3.76.29C400.65,198.75,398.76,204.64,389.28,208.31Z" style="opacity:0.2"></path><path d="M386.28,201.69c10.32-.19,11.69-5,11.69-5-4-4-2.48-14.79-1.11-20.74l-4.94,4.1-6.72,5.58a21.92,21.92,0,0,1,.43,2.72c.36,3.64-.58,7-5.94,8.23,0,0-6.37,4.21,3.08,5Z" style="fill:#ce7a63"></path><path d="M385.2,185.66a21.92,21.92,0,0,1,.43,2.72c2.51-.51,5.86-3.18,6.21-5.74a11.42,11.42,0,0,0,.08-2.56Z" style="opacity:0.2"></path><path d="M398.9,167.43c-1.72,7.89-2.32,12.59-7,16.19a10.5,10.5,0,0,1-17-7.56c-.61-7.35,2.3-19,10.6-21.25A10.62,10.62,0,0,1,398.9,167.43Z" style="fill:#ce7a63"></path><path d="M386.45,168.22c-.1.64-.53,1.13-.95,1.08s-.69-.62-.59-1.27.52-1.13.95-1.08S386.55,167.57,386.45,168.22Z" style="fill:#263238"></path><path d="M379.1,167.34c-.1.65-.53,1.13-1,1.08s-.69-.61-.59-1.26.52-1.13.95-1.08S379.2,166.69,379.1,167.34Z" style="fill:#263238"></path><path d="M381.38,167.94a24.35,24.35,0,0,1-4,5.17c1,1.2,3,.95,3,.95Z" style="fill:#ba4d3c"></path><path d="M389.08,166.12a.32.32,0,0,0,.19-.05.39.39,0,0,0,.15-.52,3.71,3.71,0,0,0-2.88-2,.39.39,0,0,0-.4.37.38.38,0,0,0,.37.4,3,3,0,0,1,2.24,1.55A.38.38,0,0,0,389.08,166.12Z" style="fill:#263238"></path><path d="M376.33,164.45a.4.4,0,0,0,.32-.17,3.23,3.23,0,0,1,2.42-1.47.38.38,0,0,0,.39-.39.39.39,0,0,0-.39-.38h0a4,4,0,0,0-3.06,1.81.38.38,0,0,0,.1.53A.36.36,0,0,0,376.33,164.45Z" style="fill:#263238"></path><path d="M378.24,176.2s2.41-.62,9.2-.8c-.74,2.06-2.18,3.77-5.66,3.83A3.17,3.17,0,0,1,378.24,176.2Z" style="fill:#263238"></path><path d="M383.35,177.58a6.32,6.32,0,0,0-3.76,1.09,3.7,3.7,0,0,0,2.19.55,6.22,6.22,0,0,0,3.75-1.09A3.67,3.67,0,0,0,383.35,177.58Z" style="fill:#a02724"></path><path d="M378.55,176.14a1.41,1.41,0,0,0,1.09,1,35.9,35.9,0,0,0,6-.67,1.92,1.92,0,0,0,1.51-1A54.78,54.78,0,0,0,378.55,176.14Z" style="fill:#fff"></path><path d="M394.39,161.53c-1.46-1.5-1.88-3.32-7.92-2.78s-12.41,5.19-12.29,0c0-1.2,1.06.2,3.05-2.4,0,0-5.46,2.47-3.75-1,1.37-2.8,2.92,1.5,9.91-3.9s16.19-.53,18.84,6.73a6,6,0,0,1,4.07,6.73c-.62,4.64-7.13,8.06-7.8,13.71-.1.8.9,2.1.1,2.56-.46.26-1.59-1.42-1.59-1.42a3.89,3.89,0,0,0-.34,1c-.16.75,1.48,2.69.07,3.54-.8.48-1.15-.95-1.63-3.38a12.21,12.21,0,0,1-.17-3.27c.34-4.88-2-2.64-1.91-5.74.06-2.15,1.78-5.75,2.83-7.75a1.36,1.36,0,0,0-.52-1.84A3.67,3.67,0,0,1,394.39,161.53Z" style="fill:#263238"></path><path d="M400.72,175.67a8.76,8.76,0,0,1-5,3c-2.49.42-3-1.88-1.79-4.11,1.14-2,3.81-4.64,6-4S402.33,173.73,400.72,175.67Z" style="fill:#ce7a63"></path></g></g><g id="freepik--character-1--inject-6"><path d="M104,328h28.83a1.36,1.36,0,0,1,1.36,1.36v1.08a0,0,0,0,1,0,0H104a0,0,0,0,1,0,0V328A0,0,0,0,1,104,328Z" transform="translate(199.37 669.91) rotate(-173.36)" style="fill:#263238"></path><path d="M104,328h28.83a1.36,1.36,0,0,1,1.36,1.36v1.08a0,0,0,0,1,0,0H104a0,0,0,0,1,0,0V328A0,0,0,0,1,104,328Z" transform="translate(199.37 669.91) rotate(-173.36)" style="fill:#fff;opacity:0.2"></path><path d="M127.16,330.34h23.54a1.36,1.36,0,0,1,1.36,1.36v1.08a0,0,0,0,1,0,0H127.16a0,0,0,0,1,0,0v-2.44A0,0,0,0,1,127.16,330.34Z" transform="translate(239.94 677.04) rotate(-173.36)" style="fill:#263238"></path><path d="M127.16,330.34h23.54a1.36,1.36,0,0,1,1.36,1.36v1.08a0,0,0,0,1,0,0H127.16a0,0,0,0,1,0,0v-2.44A0,0,0,0,1,127.16,330.34Z" transform="translate(239.94 677.04) rotate(-173.36)" style="fill:#fff;opacity:0.5"></path><rect x="146.5" y="332.07" width="2.44" height="0.87" transform="translate(256 679.86) rotate(-173.36)" style="fill:#263238"></rect><rect x="142.73" y="331.63" width="2.44" height="0.87" transform="translate(248.52 678.55) rotate(-173.36)" style="fill:#263238"></rect><polygon points="150.49 331.6 152.1 331.78 156.31 310.08 154.7 309.89 150.49 331.6" style="fill:#263238"></polygon><polygon points="150.49 331.6 152.1 331.78 156.31 310.08 154.7 309.89 150.49 331.6" style="fill:#fff;opacity:0.30000000000000004"></polygon><polygon points="151.08 331.67 122.76 328.37 126.98 306.66 155.3 309.96 151.08 331.67" style="fill:#15B2BC"></polygon><polygon points="151.08 331.67 122.76 328.37 126.98 306.66 155.3 309.96 151.08 331.67" style="fill:#fff;opacity:0.5"></polygon><path d="M93.27,284.14c-.78,1.55-1.64,3.23-2.41,4.87s-1.55,3.3-2.25,5-1.39,3.31-2,4.94a27.59,27.59,0,0,0-1.27,4.64,8,8,0,0,0-.14,1.62v.14s0,0,0,0h0l0-.08c-.14-.2.71.79,1.32,1.22s1.34.87,2.09,1.29c3,1.7,6.49,3.21,9.84,4.76l-1.13,4.68a48.19,48.19,0,0,1-5.92-.83,44,44,0,0,1-5.9-1.56,25,25,0,0,1-3-1.24,14.8,14.8,0,0,1-3.27-2.1,8.31,8.31,0,0,1-1.8-2.22c-.07-.13-.14-.27-.2-.4l-.15-.34a6.79,6.79,0,0,1-.24-.67,9.48,9.48,0,0,1-.31-1.25,15.46,15.46,0,0,1-.14-4.07,36.54,36.54,0,0,1,1.3-6.46c.59-2,1.27-3.9,2-5.77s1.52-3.68,2.38-5.46,1.7-3.52,2.73-5.32Z" style="fill:#ffb573"></path><path d="M96.22,312.69l7.2-1.85.6,6.48s-4.86,2-7.85-1.13Z" style="fill:#ffb573"></path><polygon points="106.33 311.79 107.86 317.01 104.02 317.32 103.42 310.84 106.33 311.79" style="fill:#ffb573"></polygon><path d="M78,291.77l10.28,5.09s2.64.84,7.5-6.93c5.63-9,2.55-14.12-4.24-14.36S82.09,283.9,78,291.77Z" style="fill:#15B2BC"></path><path d="M78,291.77l10.28,5.09s2.64.84,7.5-6.93c5.63-9,2.55-14.12-4.24-14.36S82.09,283.9,78,291.77Z" style="fill:#fff;opacity:0.5"></path><polygon points="81.78 293.67 87.66 296.58 90.65 293.05 87.33 284.2 86.41 283.18 84.1 282.85 81.78 293.67" style="opacity:0.2"></polygon><polygon points="77.92 291.02 89.3 296.84 87.78 298.64 77.31 293.3 77.92 291.02" style="fill:#15B2BC"></polygon><path d="M108.7,252.56c.34-.08.75.22.93.73s.05,1-.29,1.11-.75-.23-.93-.73S108.37,252.64,108.7,252.56Z" style="fill:#2e353a"></path><path d="M110.52,258a2.6,2.6,0,0,0,1.89-1.14,17.36,17.36,0,0,1-3.54-2.85Z" style="fill:#ed893e"></path><path d="M106.45,251.78a2.47,2.47,0,0,1,1.32-1.81.31.31,0,0,0,.16-.37.32.32,0,0,0-.39-.21,3,3,0,0,0-1.7,2.28h0a.3.3,0,0,0,.25.35h.16A.32.32,0,0,0,106.45,251.78Z" style="fill:#2e353a"></path><path d="M93.92,276.4c-.35,1.53-.58,2.26.8,2.93a15,15,0,0,0,9.24,1.53c3.27-.56,3.86-1.73,3.72-2.67a2.43,2.43,0,0,0-1.51-1.57,4,4,0,0,1-2.41-3.73,6.82,6.82,0,0,1,0-2.54L98,266.48l-4.42-4.92A38.07,38.07,0,0,1,93.92,276.4Z" style="fill:#ffb573"></path><path d="M112.33,279.82s-2.17-6-5.67-7.34-14-.61-14-.61a44.91,44.91,0,0,1-2,6.32Z" style="fill:#15B2BC"></path><path d="M90.84,255a8.91,8.91,0,0,1,9.18-8.63c6.77.24,10.73,8.94,11.34,14.87.67,6.59-5.81,12.1-12,9.1-4.13-2-5.28-5.58-7.77-11.52A9,9,0,0,1,90.84,255Z" style="fill:#ffb573"></path><path d="M91.93,274.47c-.38,1.26-.8,2.5-1.28,3.72l20,1.51a17.34,17.34,0,0,0-1.85-3.37C104,274.38,95.53,274.37,91.93,274.47Z" style="opacity:0.2"></path><polygon points="158.01 387.85 164.12 385.21 168.82 399.92 162.71 402.57 158.01 387.85" style="fill:#ffb573"></polygon><polygon points="158.01 387.85 164.12 385.21 166.47 392.56 160.29 394.99 158.01 387.85" style="isolation:isolate;opacity:0.2"></polygon><path d="M169.5,397.34c1.83,1.53,5.56,2.64,8.42,2.8,2.2.12,2.39,2.64-.37,3.11s-7.57.24-9.59.33c-3.28.12-4.39.66-7,.62a1.19,1.19,0,0,1-1.13-1.22l.55-5.89a.48.48,0,0,1,.51-.44l7.46.24A1.86,1.86,0,0,1,169.5,397.34Z" style="fill:#15B2BC"></path><path d="M102.2,327.13s-5.13,6.08-1,15.71c4.67,10.91,29.45,6.12,43,9.6,1.93,19.27,13.18,39,13.18,39l9.4-3.68s-4.07-15.35-7.13-42.54c-1.5-13.38-35.45-14.84-35.45-14.84Z" style="fill:#15B2BC"></path><polygon points="155.5 389.74 167.48 385.56 168.2 389.94 157.29 393.9 155.5 389.74" style="fill:#15B2BC"></polygon><polygon points="129.08 394.16 135.68 393.85 134.6 409.41 128.01 409.73 129.08 394.16" style="fill:#ffb573"></polygon><path d="M136.4,407.78c1.83,1.52,4.91,3.64,7.74,4.05,1.82.26,3.19,3-.22,3s-7-.32-9.07-.39c-3.28-.1-4.37.19-7,.19h0a1.18,1.18,0,0,1-1.13-1.22l.54-5.89a.49.49,0,0,1,.51-.44l7.46.23A1.86,1.86,0,0,1,136.4,407.78Z" style="fill:#15B2BC"></path><polygon points="128.49 402.75 135.05 402.76 135.68 393.85 129.08 394.17 128.49 402.75" style="isolation:isolate;opacity:0.2"></polygon><path d="M85.72,328.19s-5.41,11-.15,18C90.33,352.58,114.63,353,127,353c-1.23,15.07.13,46,.13,46l9.89-.14s7-29.76,8.41-50.58c.8-11.57-40.38-19.24-40.38-19.24Z" style="fill:#15B2BC"></path><polygon points="125.76 396.98 139.35 396.58 138.76 400.64 126.28 400.82 125.76 396.98" style="fill:#15B2BC"></polygon><path d="M85.52,329.76l34.64.7,1.17-45.59a10,10,0,0,0-9.93-9.13H91.15a7,7,0,0,0-7.05,7.11Z" style="fill:#15B2BC"></path><path d="M85.52,329.76l34.64.7,1.17-45.59a10,10,0,0,0-9.93-9.13H91.15a7,7,0,0,0-7.05,7.11Z" style="fill:#fff;opacity:0.6000000000000001"></path><path d="M120.82,283.81l.65,2.56c.23.88.47,1.76.73,2.64.52,1.75,1,3.5,1.63,5.21s1.19,3.4,1.87,5a45.1,45.1,0,0,0,2.23,4.69,24.44,24.44,0,0,0,1.27,2.13,1.05,1.05,0,0,0,.91.3,14.35,14.35,0,0,0,2.24-.32,75.07,75.07,0,0,0,10.23-3.39l2.57,4.07a43.65,43.65,0,0,1-4.89,3.64,34.47,34.47,0,0,1-5.56,2.95,19,19,0,0,1-3.34,1.07,11.19,11.19,0,0,1-4.47.12,7.42,7.42,0,0,1-3-1.3,6.78,6.78,0,0,1-1.31-1.25l-.53-.65q-1-1.32-1.92-2.67a59.06,59.06,0,0,1-5.47-11.16c-.7-1.9-1.35-3.81-1.9-5.75-.28-1-.54-1.93-.79-2.91s-.47-1.92-.69-3Z" style="fill:#ffb573"></path><path d="M144,307.13l6.7-3.23L147,298.57s-5,1.59-5.27,5.92Z" style="fill:#ffb573"></path><polygon points="152.28 301.3 150.08 296.32 146.95 298.57 150.67 303.9 152.28 301.3" style="fill:#ffb573"></polygon><path d="M114.51,299.28l10.33-3.67s1.47-1.41-1.2-10.15c-3.11-10.19-9-11.2-13.61-6.25S111.28,291,114.51,299.28Z" style="fill:#15B2BC"></path><path d="M114.51,299.28l10.33-3.67s1.47-1.41-1.2-10.15c-3.11-10.19-9-11.2-13.61-6.25S111.28,291,114.51,299.28Z" style="fill:#fff;opacity:0.5"></path><polygon points="113.41 298.38 125.47 294.14 125.73 296.48 114.64 300.39 113.41 298.38" style="fill:#15B2BC"></polygon><path d="M94.82,267.05a10.56,10.56,0,0,1,4.77.37,1.25,1.25,0,0,0,1.51-.6c.89-1.69,2.66-5.11,3.34-6.65,0,0,3.13-1.53,1.57-5.76s-1.57-5.57-1.57-5.57,4.86-4.25.25-6.75-2.5,2.08-7.58,3.08-10.84,6-8.75,12.09c1.54,4.49,4.34,7.78,5.18,9.19A1.25,1.25,0,0,0,94.82,267.05Z" style="fill:#263238"></path><path d="M102.28,255.64c1.7-.26,3.53,1.46,4.13,3,.67,1.74-.2,3.72-2,3.24a5.91,5.91,0,0,1-3.35-2.49C100.12,257.85,100.58,255.89,102.28,255.64Z" style="fill:#ffb573"></path><path d="M99.81,393.69V356h-6v37.78l-15.28,4a6,6,0,0,0-4.46,5.8v1.23a2.25,2.25,0,0,0,2.25,2.25h0a2.25,2.25,0,0,0,2.25-2.25h0a3.16,3.16,0,0,1,2.36-3.07l12.88-3.4v6.47a2.25,2.25,0,0,0,2.25,2.25h1.49a2.25,2.25,0,0,0,2.25-2.25V398.3l12.82,3.55A3.18,3.18,0,0,1,115,405h0a2.26,2.26,0,0,0,2.22,2.28h0a2.25,2.25,0,0,0,2.28-2.23l0-1.23a6,6,0,0,0-4.4-5.85Z" style="fill:#263238"></path><path d="M72.61,411.25a3.65,3.65,0,1,1,3.65,3.64A3.65,3.65,0,0,1,72.61,411.25Z" style="fill:#15B2BC"></path><path d="M113.65,411.25a3.65,3.65,0,1,1,3.65,3.64A3.65,3.65,0,0,1,113.65,411.25Z" style="fill:#15B2BC"></path><path d="M93.13,411.25a3.65,3.65,0,1,1,3.65,3.64A3.65,3.65,0,0,1,93.13,411.25Z" style="fill:#15B2BC"></path><rect x="93.82" y="356.03" width="5.99" height="8.51" style="isolation:isolate;opacity:0.6000000000000001"></rect><polygon points="89.35 399.58 93.13 398.58 93.13 393.99 89.35 394.99 89.35 399.58" style="isolation:isolate;opacity:0.6000000000000001"></polygon><polygon points="104.21 394.91 100.42 393.86 100.42 398.47 104.21 399.52 104.21 394.91" style="isolation:isolate;opacity:0.6000000000000001"></polygon><path d="M101.7,353.5h36.39a4.18,4.18,0,0,1,4.18,4.18H101.7Z" style="fill:#15B2BC"></path><path d="M101.7,353.5h36.39a4.18,4.18,0,0,1,4.18,4.18H101.7Z" style="opacity:0.5"></path><path d="M75.87,300h0c-12.79,0-21.9,9.54-21.23,22.24L56.1,350a8.07,8.07,0,0,0,8.06,7.64h51.4l-10.62-35.4C101.13,309.58,88.66,300,75.87,300Z" style="fill:#15B2BC"></path><path d="M75.87,300h0c-12.79,0-21.9,9.54-21.23,22.24L56.1,350a8.07,8.07,0,0,0,8.06,7.64h51.4l-10.62-35.4C101.13,309.58,88.66,300,75.87,300Z" style="opacity:0.1"></path><path d="M73.28,300.18c-11.41,1.2-19.26,10.27-18.64,22.1L56.1,350a8.07,8.07,0,0,0,8.06,7.64h46.22l-10.62-35.4C96.21,310.44,85.13,301.36,73.28,300.18Z" style="opacity:0.30000000000000004"></path><path d="M121.34,356.48h0a2,2,0,0,1,0-2.82l10.89-10.89a1.13,1.13,0,0,0-.8-1.93H108.09a2,2,0,0,1-2-2h0a2,2,0,0,1,2-2h23.13a5.33,5.33,0,0,1,4.73,2.69,5.12,5.12,0,0,1-.89,6.07l-10.89,10.88A2,2,0,0,1,121.34,356.48Z" style="fill:#263238"></path><path d="M136,339.53a5.33,5.33,0,0,0-4.73-2.69H108.09a2,2,0,0,0-2,2h0a2,2,0,0,0,2,2h23.34a1,1,0,0,1,.52.13h4.51A5.38,5.38,0,0,0,136,339.53Z" style="fill:#fff;opacity:0.2"></path></g><g id="freepik--character-2--inject-6"><path d="M182.29,325.12h28.83a1.36,1.36,0,0,1,1.36,1.36v1.08a0,0,0,0,1,0,0H182.29a0,0,0,0,1,0,0v-2.44A0,0,0,0,1,182.29,325.12Z" transform="translate(394.78 652.68) rotate(-180)" style="fill:#263238"></path><path d="M182.29,325.12h28.83a1.36,1.36,0,0,1,1.36,1.36v1.08a0,0,0,0,1,0,0H182.29a0,0,0,0,1,0,0v-2.44A0,0,0,0,1,182.29,325.12Z" transform="translate(394.78 652.68) rotate(-180)" style="fill:#fff;opacity:0.2"></path><path d="M205.57,325.12h23.54a1.36,1.36,0,0,1,1.36,1.36v1.08a0,0,0,0,1,0,0H205.57a0,0,0,0,1,0,0v-2.44A0,0,0,0,1,205.57,325.12Z" transform="translate(436.05 652.68) rotate(-180)" style="fill:#263238"></path><path d="M205.57,325.12h23.54a1.36,1.36,0,0,1,1.36,1.36v1.08a0,0,0,0,1,0,0H205.57a0,0,0,0,1,0,0v-2.44A0,0,0,0,1,205.57,325.12Z" transform="translate(436.05 652.68) rotate(-180)" style="fill:#fff;opacity:0.5"></path><rect x="224.96" y="325.91" width="2.44" height="0.87" transform="translate(452.37 652.68) rotate(180)" style="fill:#263238"></rect><rect x="221.16" y="325.91" width="2.44" height="0.87" transform="translate(444.77 652.68) rotate(180)" style="fill:#263238"></rect><polygon points="228.83 325.12 230.45 325.12 232.13 303.07 230.5 303.07 228.83 325.12" style="fill:#263238"></polygon><polygon points="228.83 325.12 230.45 325.12 232.13 303.07 230.5 303.07 228.83 325.12" style="fill:#fff;opacity:0.30000000000000004"></polygon><polygon points="229.42 325.12 200.91 325.12 202.59 303.07 231.1 303.07 229.42 325.12" style="fill:#15B2BC"></polygon><polygon points="229.42 325.12 200.91 325.12 202.59 303.07 231.1 303.07 229.42 325.12" style="fill:#fff;opacity:0.4"></polygon><path d="M181.14,279.43c-.88,3.13-1.1,6.49,3.4,7.71,0,0,4.2,5.92-.84,9.89a38.25,38.25,0,0,0-11.83-10.27c2.93-2.62,2.36-10.09,1.68-14.18Z" style="fill:#ce7a63"></path><path d="M186.73,263.17c.34-.09.76.23.93.75s0,1.07-.32,1.15-.76-.22-.93-.75S186.38,263.25,186.73,263.17Z" style="fill:#2e353a"></path><path d="M187.73,262.47l-1.15.77C187.4,263.67,187.73,262.47,187.73,262.47Z" style="fill:#2e353a"></path><path d="M188,268.83a2.37,2.37,0,0,0,1.77-1,14.59,14.59,0,0,1-3-2.75Z" style="fill:#ba4d3c"></path><path d="M185.48,259.72a2.56,2.56,0,0,0-1.11,2.07h0a.32.32,0,0,1-.31.33h0a.31.31,0,0,1-.32-.31,3.22,3.22,0,0,1,1.37-2.63.33.33,0,0,1,.45.07.31.31,0,0,1,0,.32A.27.27,0,0,1,185.48,259.72Z" style="fill:#2e353a"></path><path d="M167.13,263.5a9.24,9.24,0,0,1,10-8.41c7.16.53,11.13,9.84,11.61,16.09.54,6.95-6.69,11.38-13.21,8-4.37-2.26-5.21-5-7.73-11.33A9.38,9.38,0,0,1,167.13,263.5Z" style="fill:#ce7a63"></path><path d="M163.64,271.72c-9.38-11.85,2.14-15.26,2.14-15.26,3.61-5,9.56-6,15-3.93s3.84,5.75,1.85,6.11c3.72,4.92,1.59,7.37.36,7.72C184.94,278.74,173,283.57,163.64,271.72Z" style="fill:#263238;opacity:0.21"></path><path d="M171.89,324.05a37.1,37.1,0,0,1-5.45-1.12,7.44,7.44,0,0,1-.78-.31l-.08-1.31c-.21-3.92-.29-7.92-.38-11.93l-.2-12-6.92,0c0,4.09.08,8.14.26,12.21s.42,8.14.88,12.26l.24,1.56.12.78a6,6,0,0,0,.11.72,5.52,5.52,0,0,0,.27.67,4.61,4.61,0,0,0,.7,1,5.43,5.43,0,0,0,1.31,1,8.92,8.92,0,0,0,1.08.52,13.7,13.7,0,0,0,1.86.56,34.87,34.87,0,0,0,6.52.7,86.65,86.65,0,0,0,12.37-.6l-.07-3.39C179.76,325,175.75,324.64,171.89,324.05Z" style="fill:#ce7a63"></path><path d="M170.92,295.14c0,4.19-2.52,12-2.52,12L158,300.78c-.47-5.37.64-12.27,5.79-13.95C167.3,285.7,170.88,290.68,170.92,295.14Z" style="fill:#263238"></path><path d="M163.45,292.13l-2.39,2.36-.46,7.89,7.8,4.79s2.52-7.84,2.52-12a10.15,10.15,0,0,0-.59-3.19l-3.59-1.08Z" style="opacity:0.6000000000000001"></path><path d="M193.27,327.23a1.33,1.33,0,0,0-.7-1.75l-2.95-1.25a3.18,3.18,0,0,0-2-.14l-6.42,1.73-.79,2.17c1,2.49,5.25,2,5.25,2l3.05.94a2,2,0,0,0,2.16-.67l2.23-2.75A1.11,1.11,0,0,0,193.27,327.23Z" style="fill:#ce7a63"></path><path d="M188.59,286.73c-1.33-.23-2.73-.44-4.09-.6a88.39,88.39,0,0,0-12.6-.38c-2.07,0-4.1.19-5.88.38h-.14a5.89,5.89,0,0,0-5.06,6.61c2.52,18,3.62,25.63,2.89,35.9l27.82.84c3.24-16.76,4.56-26.75,5-32.63A9.55,9.55,0,0,0,188.59,286.73Z" style="fill:#263238"></path><polygon points="220.88 389.88 227.45 389.26 231.88 405.44 225.31 406.06 220.88 389.88" style="fill:#ce7a63"></polygon><path d="M173.14,328.63c-10.57,14-9.73,25.93,1.19,25.93,9.73,0,21.86.58,35-.26,2.89,21.19,13.93,45.88,13.93,45.88l7.29-.68s-6.65-31-7.16-52.65c-.32-13.09-37.28-12-37.28-12S179.63,328.67,173.14,328.63Z" style="fill:#263238"></path><path d="M173.14,328.63c-10.57,14-9.73,25.93,1.19,25.93,9.73,0,21.86.58,35-.26,2.89,21.19,13.93,45.88,13.93,45.88l7.29-.68s-6.65-31-7.16-52.65c-.32-13.09-37.28-12-37.28-12S179.63,328.67,173.14,328.63Z" style="fill:#fff;opacity:0.30000000000000004"></path><path d="M224.26,359.52c-.43-4.37-.74-8.68-.83-12.67-.32-13.09-37.28-12-37.28-12a29.3,29.3,0,0,0-2.57-2.08c-1.43.18-2.25.3-2.25.3s-5.58-.09-11.14-.13c-7.33,12-5.63,21.6,4.14,21.6,5.78,0,12.43.2,19.63.19,9.78-2.67,19.9-6,24.49-7.46A67.37,67.37,0,0,0,224.26,359.52Z" style="opacity:0.2"></path><path d="M163.8,326.78l28.18.84c.27,0,.46.16.46.33l-.32,2.52c0,.15-.24.26-.49.26L163,329.89c-.32,0-.54-.21-.44-.4l.79-2.47A.47.47,0,0,1,163.8,326.78Z" style="fill:#263238"></path><path d="M210.3,318.36c-3,.39-6.12.77-9.11,1a36.62,36.62,0,0,1-4.32.16,7.74,7.74,0,0,1-1.17-.12,24.15,24.15,0,0,1-.53-3.39c-.11-1.41-.14-2.83-.11-4.25s.16-2.92.31-4.36c.07-.73.16-1.49.27-2.18s.22-1.48.33-2.07l-6.75-1.44c-.2.92-.34,1.69-.46,2.52s-.21,1.62-.3,2.48a46.17,46.17,0,0,0-.23,5A31.2,31.2,0,0,0,189.89,322l.11.32.09.22.12.28a5.09,5.09,0,0,0,.3.5,4.35,4.35,0,0,0,1.41,1.29,6,6,0,0,0,2.13.71,12.84,12.84,0,0,0,3,.07,34.67,34.67,0,0,0,5-.8,65.69,65.69,0,0,0,9.19-2.88Z" style="fill:#ce7a63"></path><path d="M184.92,294.28c-2.2,3.08,2.2,11.48,2.2,11.48l8.7-.55s2.27-10.8-1.73-15.48C191.93,287.23,187.24,291.07,184.92,294.28Z" style="fill:#263238"></path><path d="M217.44,312.88a1.42,1.42,0,0,1,1.26,1.58l-.34,3.78a1.45,1.45,0,0,1-1,1.25l-3.44,1s-6.35,4-8.4,2.27l2.37-3.28,4.33-4.94a3.34,3.34,0,0,1,1.88-1.09l2.9-.58A1.41,1.41,0,0,1,217.44,312.88Z" style="fill:#ce7a63"></path><path d="M232.43,405c1.56,1.59,4.22,3.84,6.82,4.48,1.66.41,2.68,3.1-.48,2.78s-6.53-1-8.39-1.2c-3-.4-4.08-.23-6.5-.47h0a1.1,1.1,0,0,1-.93-1.24L224,404a.45.45,0,0,1,.51-.36l6.91.91A1.71,1.71,0,0,1,232.43,405Z" style="fill:#263238"></path><path d="M182.58,258.65s3.42,3.88,1.15,8.07c0,0-2.09,2.62-1.15,8.12s5.15,9.93-4.31,9.88c-8.9-.05-20.07,1.75-18.82-6.94,0,0-4.06-3.81.51-7.88,0,0-3.45-4.78.81-8.56,0,0-2.2-7.81,5.42-7.42,0,0,1.7-7.77,9.82-3.41,0,0,3.44-5.48,8.65,0,0,0,8.48.69,2.5,5.62C187.16,256.15,187.45,260.15,182.58,258.65Z" style="fill:#263238"></path><path d="M189,266.71a.84.84,0,0,1-.55-.21c-.76-.64-1.07-2.71-1.16-3.57l-4,1.89-.21-.46,5.55-2.59a.94.94,0,0,1,.88,0,1,1,0,0,1,.52.71c.22,1.33.35,3.06-.23,3.82a1,1,0,0,1-.7.39Zm-1.23-4c.09.92.4,2.9,1,3.41a.36.36,0,0,0,.25.09.49.49,0,0,0,.36-.2c.36-.47.41-1.72.12-3.43a.45.45,0,0,0-.25-.35.49.49,0,0,0-.44,0Z" style="fill:#15B2BC"></path><path d="M180,266.73a2.38,2.38,0,0,1,2.09-2.65c1.82-.19,3.22,2,3.62,3.51.44,1.72-.52,3.3-2.3,2.74a5.36,5.36,0,0,1-3.1-2.66A2.27,2.27,0,0,1,180,266.73Z" style="fill:#ce7a63"></path><polygon points="241.19 375.34 246.76 370.06 254.21 381.38 249.75 385.24 241.19 375.34" style="fill:#ce7a63"></polygon><path d="M166.34,328.86a2.94,2.94,0,0,0-2.88,2.22c-3.76,14.66.48,23.52,10.87,23.52,9.73,0,36.28-8.69,44.62-11.39,7,20.18,27.15,38.25,27.15,38.25l5.29-4.85S239.65,354,231.53,333.89c-4.66-11.55-49.7-4.88-49.7-4.88S172.87,328.86,166.34,328.86Z" style="fill:#263238"></path><path d="M166.34,328.86a2.94,2.94,0,0,0-2.88,2.22c-3.76,14.66.48,23.52,10.87,23.52,9.73,0,36.28-8.69,44.62-11.39,7,20.18,27.15,38.25,27.15,38.25l5.29-4.85S239.65,354,231.53,333.89c-4.66-11.55-49.7-4.88-49.7-4.88S172.87,328.86,166.34,328.86Z" style="fill:#fff;opacity:0.30000000000000004"></path><path d="M254.29,378.87c2.22-.17,5.43-1.86,7.45-3.62,1.54-1.36,3.32.2,1.78,2.31s-4.89,5.11-6.18,6.48c-2.11,2.23-2.5,3.31-4.25,5a1.11,1.11,0,0,1-1.55-.08l-3.48-4.29a.44.44,0,0,1,.05-.63l5.14-4.71A1.74,1.74,0,0,1,254.29,378.87Z" style="fill:#263238"></path><path d="M174.19,393.69V356h-6v37.78l-15.27,4a6,6,0,0,0-4.47,5.8v1.23a2.25,2.25,0,0,0,2.25,2.25h0a2.25,2.25,0,0,0,2.25-2.25h0a3.16,3.16,0,0,1,2.36-3.07l12.88-3.4v6.47a2.25,2.25,0,0,0,2.25,2.25h1.49a2.25,2.25,0,0,0,2.25-2.25V398.3L187,401.85a3.17,3.17,0,0,1,2.32,3.1h0a2.26,2.26,0,0,0,2.23,2.28h0a2.25,2.25,0,0,0,2.27-2.23l0-1.23a6,6,0,0,0-4.4-5.85Z" style="fill:#263238"></path><path d="M147,411.25a3.65,3.65,0,1,1,3.64,3.64A3.65,3.65,0,0,1,147,411.25Z" style="fill:#15B2BC"></path><path d="M188,411.25a3.65,3.65,0,1,1,3.65,3.64A3.65,3.65,0,0,1,188,411.25Z" style="fill:#15B2BC"></path><path d="M167.51,411.25a3.65,3.65,0,1,1,3.65,3.64A3.66,3.66,0,0,1,167.51,411.25Z" style="fill:#15B2BC"></path><rect x="168.2" y="356.03" width="5.99" height="8.51" style="isolation:isolate;opacity:0.6000000000000001"></rect><polygon points="163.73 399.58 167.51 398.58 167.51 393.99 163.73 394.99 163.73 399.58" style="isolation:isolate;opacity:0.6000000000000001"></polygon><polygon points="178.59 394.91 174.8 393.86 174.8 398.47 178.59 399.52 178.59 394.91" style="isolation:isolate;opacity:0.6000000000000001"></polygon><path d="M176.08,353.5h36.4a4.18,4.18,0,0,1,4.17,4.18H176.08Z" style="fill:#15B2BC"></path><path d="M176.08,353.5h36.4a4.18,4.18,0,0,1,4.17,4.18H176.08Z" style="opacity:0.5"></path><path d="M150.25,300h0c-12.79,0-21.9,9.54-21.23,22.24L130.49,350a8.06,8.06,0,0,0,8,7.64h51.4l-10.62-35.4C175.51,309.58,163.05,300,150.25,300Z" style="fill:#15B2BC"></path><path d="M150.25,300h0c-12.79,0-21.9,9.54-21.23,22.24L130.49,350a8.06,8.06,0,0,0,8,7.64h51.4l-10.62-35.4C175.51,309.58,163.05,300,150.25,300Z" style="opacity:0.1"></path><path d="M147.67,300.18c-11.42,1.2-19.27,10.27-18.65,22.1L130.49,350a8.06,8.06,0,0,0,8,7.64h46.22l-10.62-35.4C170.59,310.44,159.52,301.36,147.67,300.18Z" style="opacity:0.30000000000000004"></path><path d="M195.73,356.48h0a2,2,0,0,1,0-2.82l10.89-10.89a1.13,1.13,0,0,0-.8-1.93H182.48a2,2,0,0,1-2-2h0a2,2,0,0,1,2-2H205.6a5.33,5.33,0,0,1,4.73,2.69,5.12,5.12,0,0,1-.89,6.07l-10.89,10.88A2,2,0,0,1,195.73,356.48Z" style="fill:#263238"></path><path d="M210.33,339.53a5.33,5.33,0,0,0-4.73-2.69H182.48a2,2,0,0,0-2,2h0a2,2,0,0,0,2,2h23.34a1,1,0,0,1,.51.13h4.51A5.06,5.06,0,0,0,210.33,339.53Z" style="fill:#fff;opacity:0.2"></path></g></svg>