<svg width="156" height="180" viewBox="0 0 156 180" fill="none" xmlns="http://www.w3.org/2000/svg">
<path fill-rule="evenodd" clip-rule="evenodd" d="M72.1682 81.9512C72.7482 81.9512 73.3045 82.1825 73.7146 82.5941C74.1247 83.0058 74.3551 83.5642 74.3551 84.1463C74.3551 84.7285 74.1247 85.2869 73.7146 85.6985C73.3045 86.1102 72.7482 86.3415 72.1682 86.3415C71.5882 86.3415 71.032 86.1102 70.6218 85.6985C70.2117 85.2869 69.9813 84.7285 69.9813 84.1463C69.9813 83.5642 70.2117 83.0058 70.6218 82.5941C71.032 82.1825 71.5882 81.9512 72.1682 81.9512ZM60.5047 81.9512C61.0847 81.9512 61.6409 82.1825 62.0511 82.5941C62.4612 83.0058 62.6916 83.5642 62.6916 84.1463C62.6916 84.7285 62.4612 85.2869 62.0511 85.6985C61.6409 86.1102 61.0847 86.3415 60.5047 86.3415C59.9247 86.3415 59.3684 86.1102 58.9583 85.6985C58.5482 85.2869 58.3178 84.7285 58.3178 84.1463C58.3178 83.5642 58.5482 83.0058 58.9583 82.5941C59.3684 82.1825 59.9247 81.9512 60.5047 81.9512ZM48.8411 81.9512C49.4211 81.9512 49.9774 82.1825 50.3875 82.5941C50.7976 83.0058 51.028 83.5642 51.028 84.1463C51.028 84.7285 50.7976 85.2869 50.3875 85.6985C49.9774 86.1102 49.4211 86.3415 48.8411 86.3415C48.2611 86.3415 47.7049 86.1102 47.2947 85.6985C46.8846 85.2869 46.6542 84.7285 46.6542 84.1463C46.6542 83.5642 46.8846 83.0058 47.2947 82.5941C47.7049 82.1825 48.2611 81.9512 48.8411 81.9512ZM37.1776 81.9512C37.7576 81.9512 38.3138 82.1825 38.724 82.5941C39.1341 83.0058 39.3645 83.5642 39.3645 84.1463C39.3645 84.7285 39.1341 85.2869 38.724 85.6985C38.3138 86.1102 37.7576 86.3415 37.1776 86.3415C36.5976 86.3415 36.0413 86.1102 35.6312 85.6985C35.2211 85.2869 34.9907 84.7285 34.9907 84.1463C34.9907 83.5642 35.2211 83.0058 35.6312 82.5941C36.0413 82.1825 36.5976 81.9512 37.1776 81.9512ZM25.514 81.9512C26.094 81.9512 26.6503 82.1825 27.0604 82.5941C27.4705 83.0058 27.7009 83.5642 27.7009 84.1463C27.7009 84.7285 27.4705 85.2869 27.0604 85.6985C26.6503 86.1102 26.094 86.3415 25.514 86.3415C24.934 86.3415 24.3778 86.1102 23.9676 85.6985C23.5575 85.2869 23.3271 84.7285 23.3271 84.1463C23.3271 83.5642 23.5575 83.0058 23.9676 82.5941C24.3778 82.1825 24.934 81.9512 25.514 81.9512ZM13.8505 81.9512C14.4305 81.9512 14.9867 82.1825 15.3969 82.5941C15.807 83.0058 16.0374 83.5642 16.0374 84.1463C16.0374 84.7285 15.807 85.2869 15.3969 85.6985C14.9867 86.1102 14.4305 86.3415 13.8505 86.3415C13.2705 86.3415 12.7142 86.1102 12.3041 85.6985C11.894 85.2869 11.6636 84.7285 11.6636 84.1463C11.6636 83.5642 11.894 83.0058 12.3041 82.5941C12.7142 82.1825 13.2705 81.9512 13.8505 81.9512ZM2.18692 81.9512C2.76692 81.9512 3.32317 82.1825 3.7333 82.5941C4.14342 83.0058 4.37383 83.5642 4.37383 84.1463C4.37383 84.7285 4.14342 85.2869 3.7333 85.6985C3.32317 86.1102 2.76692 86.3415 2.18692 86.3415C1.60691 86.3415 1.05066 86.1102 0.640533 85.6985C0.230407 85.2869 0 84.7285 0 84.1463C0 83.5642 0.230407 83.0058 0.640533 82.5941C1.05066 82.1825 1.60691 81.9512 2.18692 81.9512ZM72.1682 70.2439C72.7482 70.2439 73.3045 70.4752 73.7146 70.8868C74.1247 71.2985 74.3551 71.8568 74.3551 72.439C74.3551 73.0212 74.1247 73.5795 73.7146 73.9912C73.3045 74.4029 72.7482 74.6341 72.1682 74.6341C71.5882 74.6341 71.032 74.4029 70.6218 73.9912C70.2117 73.5795 69.9813 73.0212 69.9813 72.439C69.9813 71.8568 70.2117 71.2985 70.6218 70.8868C71.032 70.4752 71.5882 70.2439 72.1682 70.2439ZM60.5047 70.2439C61.0847 70.2439 61.6409 70.4752 62.0511 70.8868C62.4612 71.2985 62.6916 71.8568 62.6916 72.439C62.6916 73.0212 62.4612 73.5795 62.0511 73.9912C61.6409 74.4029 61.0847 74.6341 60.5047 74.6341C59.9247 74.6341 59.3684 74.4029 58.9583 73.9912C58.5482 73.5795 58.3178 73.0212 58.3178 72.439C58.3178 71.8568 58.5482 71.2985 58.9583 70.8868C59.3684 70.4752 59.9247 70.2439 60.5047 70.2439ZM48.8411 70.2439C49.4211 70.2439 49.9774 70.4752 50.3875 70.8868C50.7976 71.2985 51.028 71.8568 51.028 72.439C51.028 73.0212 50.7976 73.5795 50.3875 73.9912C49.9774 74.4029 49.4211 74.6341 48.8411 74.6341C48.2611 74.6341 47.7049 74.4029 47.2947 73.9912C46.8846 73.5795 46.6542 73.0212 46.6542 72.439C46.6542 71.8568 46.8846 71.2985 47.2947 70.8868C47.7049 70.4752 48.2611 70.2439 48.8411 70.2439ZM37.1776 70.2439C37.7576 70.2439 38.3138 70.4752 38.724 70.8868C39.1341 71.2985 39.3645 71.8568 39.3645 72.439C39.3645 73.0212 39.1341 73.5795 38.724 73.9912C38.3138 74.4029 37.7576 74.6341 37.1776 74.6341C36.5976 74.6341 36.0413 74.4029 35.6312 73.9912C35.2211 73.5795 34.9907 73.0212 34.9907 72.439C34.9907 71.8568 35.2211 71.2985 35.6312 70.8868C36.0413 70.4752 36.5976 70.2439 37.1776 70.2439ZM25.514 70.2439C26.094 70.2439 26.6503 70.4752 27.0604 70.8868C27.4705 71.2985 27.7009 71.8568 27.7009 72.439C27.7009 73.0212 27.4705 73.5795 27.0604 73.9912C26.6503 74.4029 26.094 74.6341 25.514 74.6341C24.934 74.6341 24.3778 74.4029 23.9676 73.9912C23.5575 73.5795 23.3271 73.0212 23.3271 72.439C23.3271 71.8568 23.5575 71.2985 23.9676 70.8868C24.3778 70.4752 24.934 70.2439 25.514 70.2439ZM13.8505 70.2439C14.4305 70.2439 14.9867 70.4752 15.3969 70.8868C15.807 71.2985 16.0374 71.8568 16.0374 72.439C16.0374 73.0212 15.807 73.5795 15.3969 73.9912C14.9867 74.4029 14.4305 74.6341 13.8505 74.6341C13.2705 74.6341 12.7142 74.4029 12.3041 73.9912C11.894 73.5795 11.6636 73.0212 11.6636 72.439C11.6636 71.8568 11.894 71.2985 12.3041 70.8868C12.7142 70.4752 13.2705 70.2439 13.8505 70.2439ZM2.18692 70.2439C2.76692 70.2439 3.32317 70.4752 3.7333 70.8868C4.14342 71.2985 4.37383 71.8568 4.37383 72.439C4.37383 73.0212 4.14342 73.5795 3.7333 73.9912C3.32317 74.4029 2.76692 74.6341 2.18692 74.6341C1.60691 74.6341 1.05066 74.4029 0.640533 73.9912C0.230407 73.5795 0 73.0212 0 72.439C0 71.8568 0.230407 71.2985 0.640533 70.8868C1.05066 70.4752 1.60691 70.2439 2.18692 70.2439ZM72.1682 58.5366C72.7482 58.5366 73.3045 58.7679 73.7146 59.1795C74.1247 59.5912 74.3551 60.1495 74.3551 60.7317C74.3551 61.3139 74.1247 61.8722 73.7146 62.2839C73.3045 62.6956 72.7482 62.9268 72.1682 62.9268C71.5882 62.9268 71.032 62.6956 70.6218 62.2839C70.2117 61.8722 69.9813 61.3139 69.9813 60.7317C69.9813 60.1495 70.2117 59.5912 70.6218 59.1795C71.032 58.7679 71.5882 58.5366 72.1682 58.5366ZM60.5047 58.5366C61.0847 58.5366 61.6409 58.7679 62.0511 59.1795C62.4612 59.5912 62.6916 60.1495 62.6916 60.7317C62.6916 61.3139 62.4612 61.8722 62.0511 62.2839C61.6409 62.6956 61.0847 62.9268 60.5047 62.9268C59.9247 62.9268 59.3684 62.6956 58.9583 62.2839C58.5482 61.8722 58.3178 61.3139 58.3178 60.7317C58.3178 60.1495 58.5482 59.5912 58.9583 59.1795C59.3684 58.7679 59.9247 58.5366 60.5047 58.5366ZM48.8411 58.5366C49.4211 58.5366 49.9774 58.7679 50.3875 59.1795C50.7976 59.5912 51.028 60.1495 51.028 60.7317C51.028 61.3139 50.7976 61.8722 50.3875 62.2839C49.9774 62.6956 49.4211 62.9268 48.8411 62.9268C48.2611 62.9268 47.7049 62.6956 47.2947 62.2839C46.8846 61.8722 46.6542 61.3139 46.6542 60.7317C46.6542 60.1495 46.8846 59.5912 47.2947 59.1795C47.7049 58.7679 48.2611 58.5366 48.8411 58.5366ZM37.1776 58.5366C37.7576 58.5366 38.3138 58.7679 38.724 59.1795C39.1341 59.5912 39.3645 60.1495 39.3645 60.7317C39.3645 61.3139 39.1341 61.8722 38.724 62.2839C38.3138 62.6956 37.7576 62.9268 37.1776 62.9268C36.5976 62.9268 36.0413 62.6956 35.6312 62.2839C35.2211 61.8722 34.9907 61.3139 34.9907 60.7317C34.9907 60.1495 35.2211 59.5912 35.6312 59.1795C36.0413 58.7679 36.5976 58.5366 37.1776 58.5366ZM25.514 58.5366C26.094 58.5366 26.6503 58.7679 27.0604 59.1795C27.4705 59.5912 27.7009 60.1495 27.7009 60.7317C27.7009 61.3139 27.4705 61.8722 27.0604 62.2839C26.6503 62.6956 26.094 62.9268 25.514 62.9268C24.934 62.9268 24.3778 62.6956 23.9676 62.2839C23.5575 61.8722 23.3271 61.3139 23.3271 60.7317C23.3271 60.1495 23.5575 59.5912 23.9676 59.1795C24.3778 58.7679 24.934 58.5366 25.514 58.5366ZM13.8505 58.5366C14.4305 58.5366 14.9867 58.7679 15.3969 59.1795C15.807 59.5912 16.0374 60.1495 16.0374 60.7317C16.0374 61.3139 15.807 61.8722 15.3969 62.2839C14.9867 62.6956 14.4305 62.9268 13.8505 62.9268C13.2705 62.9268 12.7142 62.6956 12.3041 62.2839C11.894 61.8722 11.6636 61.3139 11.6636 60.7317C11.6636 60.1495 11.894 59.5912 12.3041 59.1795C12.7142 58.7679 13.2705 58.5366 13.8505 58.5366ZM2.18692 58.5366C2.76692 58.5366 3.32317 58.7679 3.7333 59.1795C4.14342 59.5912 4.37383 60.1495 4.37383 60.7317C4.37383 61.3139 4.14342 61.8722 3.7333 62.2839C3.32317 62.6956 2.76692 62.9268 2.18692 62.9268C1.60691 62.9268 1.05066 62.6956 0.640533 62.2839C0.230407 61.8722 0 61.3139 0 60.7317C0 60.1495 0.230407 59.5912 0.640533 59.1795C1.05066 58.7679 1.60691 58.5366 2.18692 58.5366ZM72.1682 46.8293C72.7482 46.8293 73.3045 47.0605 73.7146 47.4722C74.1247 47.8839 74.3551 48.4422 74.3551 49.0244C74.3551 49.6066 74.1247 50.1649 73.7146 50.5766C73.3045 50.9882 72.7482 51.2195 72.1682 51.2195C71.5882 51.2195 71.032 50.9882 70.6218 50.5766C70.2117 50.1649 69.9813 49.6066 69.9813 49.0244C69.9813 48.4422 70.2117 47.8839 70.6218 47.4722C71.032 47.0605 71.5882 46.8293 72.1682 46.8293ZM60.5047 46.8293C61.0847 46.8293 61.6409 47.0605 62.0511 47.4722C62.4612 47.8839 62.6916 48.4422 62.6916 49.0244C62.6916 49.6066 62.4612 50.1649 62.0511 50.5766C61.6409 50.9882 61.0847 51.2195 60.5047 51.2195C59.9247 51.2195 59.3684 50.9882 58.9583 50.5766C58.5482 50.1649 58.3178 49.6066 58.3178 49.0244C58.3178 48.4422 58.5482 47.8839 58.9583 47.4722C59.3684 47.0605 59.9247 46.8293 60.5047 46.8293ZM48.8411 46.8293C49.4211 46.8293 49.9774 47.0605 50.3875 47.4722C50.7976 47.8839 51.028 48.4422 51.028 49.0244C51.028 49.6066 50.7976 50.1649 50.3875 50.5766C49.9774 50.9882 49.4211 51.2195 48.8411 51.2195C48.2611 51.2195 47.7049 50.9882 47.2947 50.5766C46.8846 50.1649 46.6542 49.6066 46.6542 49.0244C46.6542 48.4422 46.8846 47.8839 47.2947 47.4722C47.7049 47.0605 48.2611 46.8293 48.8411 46.8293ZM37.1776 46.8293C37.7576 46.8293 38.3138 47.0605 38.724 47.4722C39.1341 47.8839 39.3645 48.4422 39.3645 49.0244C39.3645 49.6066 39.1341 50.1649 38.724 50.5766C38.3138 50.9882 37.7576 51.2195 37.1776 51.2195C36.5976 51.2195 36.0413 50.9882 35.6312 50.5766C35.2211 50.1649 34.9907 49.6066 34.9907 49.0244C34.9907 48.4422 35.2211 47.8839 35.6312 47.4722C36.0413 47.0605 36.5976 46.8293 37.1776 46.8293ZM25.514 46.8293C26.094 46.8293 26.6503 47.0605 27.0604 47.4722C27.4705 47.8839 27.7009 48.4422 27.7009 49.0244C27.7009 49.6066 27.4705 50.1649 27.0604 50.5766C26.6503 50.9882 26.094 51.2195 25.514 51.2195C24.934 51.2195 24.3778 50.9882 23.9676 50.5766C23.5575 50.1649 23.3271 49.6066 23.3271 49.0244C23.3271 48.4422 23.5575 47.8839 23.9676 47.4722C24.3778 47.0605 24.934 46.8293 25.514 46.8293ZM13.8505 46.8293C14.4305 46.8293 14.9867 47.0605 15.3969 47.4722C15.807 47.8839 16.0374 48.4422 16.0374 49.0244C16.0374 49.6066 15.807 50.1649 15.3969 50.5766C14.9867 50.9882 14.4305 51.2195 13.8505 51.2195C13.2705 51.2195 12.7142 50.9882 12.3041 50.5766C11.894 50.1649 11.6636 49.6066 11.6636 49.0244C11.6636 48.4422 11.894 47.8839 12.3041 47.4722C12.7142 47.0605 13.2705 46.8293 13.8505 46.8293ZM2.18692 46.8293C2.76692 46.8293 3.32317 47.0605 3.7333 47.4722C4.14342 47.8839 4.37383 48.4422 4.37383 49.0244C4.37383 49.6066 4.14342 50.1649 3.7333 50.5766C3.32317 50.9882 2.76692 51.2195 2.18692 51.2195C1.60691 51.2195 1.05066 50.9882 0.640533 50.5766C0.230407 50.1649 0 49.6066 0 49.0244C0 48.4422 0.230407 47.8839 0.640533 47.4722C1.05066 47.0605 1.60691 46.8293 2.18692 46.8293ZM72.1682 35.1219C72.7482 35.1219 73.3045 35.3532 73.7146 35.7649C74.1247 36.1766 74.3551 36.7349 74.3551 37.3171C74.3551 37.8993 74.1247 38.4576 73.7146 38.8693C73.3045 39.2809 72.7482 39.5122 72.1682 39.5122C71.5882 39.5122 71.032 39.2809 70.6218 38.8693C70.2117 38.4576 69.9813 37.8993 69.9813 37.3171C69.9813 36.7349 70.2117 36.1766 70.6218 35.7649C71.032 35.3532 71.5882 35.1219 72.1682 35.1219ZM60.5047 35.1219C61.0847 35.1219 61.6409 35.3532 62.0511 35.7649C62.4612 36.1766 62.6916 36.7349 62.6916 37.3171C62.6916 37.8993 62.4612 38.4576 62.0511 38.8693C61.6409 39.2809 61.0847 39.5122 60.5047 39.5122C59.9247 39.5122 59.3684 39.2809 58.9583 38.8693C58.5482 38.4576 58.3178 37.8993 58.3178 37.3171C58.3178 36.7349 58.5482 36.1766 58.9583 35.7649C59.3684 35.3532 59.9247 35.1219 60.5047 35.1219ZM48.8411 35.1219C49.4211 35.1219 49.9774 35.3532 50.3875 35.7649C50.7976 36.1766 51.028 36.7349 51.028 37.3171C51.028 37.8993 50.7976 38.4576 50.3875 38.8693C49.9774 39.2809 49.4211 39.5122 48.8411 39.5122C48.2611 39.5122 47.7049 39.2809 47.2947 38.8693C46.8846 38.4576 46.6542 37.8993 46.6542 37.3171C46.6542 36.7349 46.8846 36.1766 47.2947 35.7649C47.7049 35.3532 48.2611 35.1219 48.8411 35.1219ZM37.1776 35.1219C37.7576 35.1219 38.3138 35.3532 38.724 35.7649C39.1341 36.1766 39.3645 36.7349 39.3645 37.3171C39.3645 37.8993 39.1341 38.4576 38.724 38.8693C38.3138 39.2809 37.7576 39.5122 37.1776 39.5122C36.5976 39.5122 36.0413 39.2809 35.6312 38.8693C35.2211 38.4576 34.9907 37.8993 34.9907 37.3171C34.9907 36.7349 35.2211 36.1766 35.6312 35.7649C36.0413 35.3532 36.5976 35.1219 37.1776 35.1219ZM25.514 35.1219C26.094 35.1219 26.6503 35.3532 27.0604 35.7649C27.4705 36.1766 27.7009 36.7349 27.7009 37.3171C27.7009 37.8993 27.4705 38.4576 27.0604 38.8693C26.6503 39.2809 26.094 39.5122 25.514 39.5122C24.934 39.5122 24.3778 39.2809 23.9676 38.8693C23.5575 38.4576 23.3271 37.8993 23.3271 37.3171C23.3271 36.7349 23.5575 36.1766 23.9676 35.7649C24.3778 35.3532 24.934 35.1219 25.514 35.1219ZM13.8505 35.1219C14.4305 35.1219 14.9867 35.3532 15.3969 35.7649C15.807 36.1766 16.0374 36.7349 16.0374 37.3171C16.0374 37.8993 15.807 38.4576 15.3969 38.8693C14.9867 39.2809 14.4305 39.5122 13.8505 39.5122C13.2705 39.5122 12.7142 39.2809 12.3041 38.8693C11.894 38.4576 11.6636 37.8993 11.6636 37.3171C11.6636 36.7349 11.894 36.1766 12.3041 35.7649C12.7142 35.3532 13.2705 35.1219 13.8505 35.1219ZM2.18692 35.1219C2.76692 35.1219 3.32317 35.3532 3.7333 35.7649C4.14342 36.1766 4.37383 36.7349 4.37383 37.3171C4.37383 37.8993 4.14342 38.4576 3.7333 38.8693C3.32317 39.2809 2.76692 39.5122 2.18692 39.5122C1.60691 39.5122 1.05066 39.2809 0.640533 38.8693C0.230407 38.4576 0 37.8993 0 37.3171C0 36.7349 0.230407 36.1766 0.640533 35.7649C1.05066 35.3532 1.60691 35.1219 2.18692 35.1219ZM72.1682 23.4146C72.7482 23.4146 73.3045 23.6459 73.7146 24.0576C74.1247 24.4692 74.3551 25.0276 74.3551 25.6098C74.3551 26.1919 74.1247 26.7503 73.7146 27.1619C73.3045 27.5736 72.7482 27.8049 72.1682 27.8049C71.5882 27.8049 71.032 27.5736 70.6218 27.1619C70.2117 26.7503 69.9813 26.1919 69.9813 25.6098C69.9813 25.0276 70.2117 24.4692 70.6218 24.0576C71.032 23.6459 71.5882 23.4146 72.1682 23.4146ZM60.5047 23.4146C61.0847 23.4146 61.6409 23.6459 62.0511 24.0576C62.4612 24.4692 62.6916 25.0276 62.6916 25.6098C62.6916 26.1919 62.4612 26.7503 62.0511 27.1619C61.6409 27.5736 61.0847 27.8049 60.5047 27.8049C59.9247 27.8049 59.3684 27.5736 58.9583 27.1619C58.5482 26.7503 58.3178 26.1919 58.3178 25.6098C58.3178 25.0276 58.5482 24.4692 58.9583 24.0576C59.3684 23.6459 59.9247 23.4146 60.5047 23.4146ZM48.8411 23.4146C49.4211 23.4146 49.9774 23.6459 50.3875 24.0576C50.7976 24.4692 51.028 25.0276 51.028 25.6098C51.028 26.1919 50.7976 26.7503 50.3875 27.1619C49.9774 27.5736 49.4211 27.8049 48.8411 27.8049C48.2611 27.8049 47.7049 27.5736 47.2947 27.1619C46.8846 26.7503 46.6542 26.1919 46.6542 25.6098C46.6542 25.0276 46.8846 24.4692 47.2947 24.0576C47.7049 23.6459 48.2611 23.4146 48.8411 23.4146ZM37.1776 23.4146C37.7576 23.4146 38.3138 23.6459 38.724 24.0576C39.1341 24.4692 39.3645 25.0276 39.3645 25.6098C39.3645 26.1919 39.1341 26.7503 38.724 27.1619C38.3138 27.5736 37.7576 27.8049 37.1776 27.8049C36.5976 27.8049 36.0413 27.5736 35.6312 27.1619C35.2211 26.7503 34.9907 26.1919 34.9907 25.6098C34.9907 25.0276 35.2211 24.4692 35.6312 24.0576C36.0413 23.6459 36.5976 23.4146 37.1776 23.4146ZM25.514 23.4146C26.094 23.4146 26.6503 23.6459 27.0604 24.0576C27.4705 24.4692 27.7009 25.0276 27.7009 25.6098C27.7009 26.1919 27.4705 26.7503 27.0604 27.1619C26.6503 27.5736 26.094 27.8049 25.514 27.8049C24.934 27.8049 24.3778 27.5736 23.9676 27.1619C23.5575 26.7503 23.3271 26.1919 23.3271 25.6098C23.3271 25.0276 23.5575 24.4692 23.9676 24.0576C24.3778 23.6459 24.934 23.4146 25.514 23.4146ZM13.8505 23.4146C14.4305 23.4146 14.9867 23.6459 15.3969 24.0576C15.807 24.4692 16.0374 25.0276 16.0374 25.6098C16.0374 26.1919 15.807 26.7503 15.3969 27.1619C14.9867 27.5736 14.4305 27.8049 13.8505 27.8049C13.2705 27.8049 12.7142 27.5736 12.3041 27.1619C11.894 26.7503 11.6636 26.1919 11.6636 25.6098C11.6636 25.0276 11.894 24.4692 12.3041 24.0576C12.7142 23.6459 13.2705 23.4146 13.8505 23.4146ZM2.18692 23.4146C2.76692 23.4146 3.32317 23.6459 3.7333 24.0576C4.14342 24.4692 4.37383 25.0276 4.37383 25.6098C4.37383 26.1919 4.14342 26.7503 3.7333 27.1619C3.32317 27.5736 2.76692 27.8049 2.18692 27.8049C1.60691 27.8049 1.05066 27.5736 0.640533 27.1619C0.230407 26.7503 0 26.1919 0 25.6098C0 25.0276 0.230407 24.4692 0.640533 24.0576C1.05066 23.6459 1.60691 23.4146 2.18692 23.4146ZM72.1682 11.7073C72.7482 11.7073 73.3045 11.9386 73.7146 12.3503C74.1247 12.7619 74.3551 13.3203 74.3551 13.9024C74.3551 14.4846 74.1247 15.043 73.7146 15.4546C73.3045 15.8663 72.7482 16.0976 72.1682 16.0976C71.5882 16.0976 71.032 15.8663 70.6218 15.4546C70.2117 15.043 69.9813 14.4846 69.9813 13.9024C69.9813 13.3203 70.2117 12.7619 70.6218 12.3503C71.032 11.9386 71.5882 11.7073 72.1682 11.7073ZM60.5047 11.7073C61.0847 11.7073 61.6409 11.9386 62.0511 12.3503C62.4612 12.7619 62.6916 13.3203 62.6916 13.9024C62.6916 14.4846 62.4612 15.043 62.0511 15.4546C61.6409 15.8663 61.0847 16.0976 60.5047 16.0976C59.9247 16.0976 59.3684 15.8663 58.9583 15.4546C58.5482 15.043 58.3178 14.4846 58.3178 13.9024C58.3178 13.3203 58.5482 12.7619 58.9583 12.3503C59.3684 11.9386 59.9247 11.7073 60.5047 11.7073ZM48.8411 11.7073C49.4211 11.7073 49.9774 11.9386 50.3875 12.3503C50.7976 12.7619 51.028 13.3203 51.028 13.9024C51.028 14.4846 50.7976 15.043 50.3875 15.4546C49.9774 15.8663 49.4211 16.0976 48.8411 16.0976C48.2611 16.0976 47.7049 15.8663 47.2947 15.4546C46.8846 15.043 46.6542 14.4846 46.6542 13.9024C46.6542 13.3203 46.8846 12.7619 47.2947 12.3503C47.7049 11.9386 48.2611 11.7073 48.8411 11.7073ZM37.1776 11.7073C37.7576 11.7073 38.3138 11.9386 38.724 12.3503C39.1341 12.7619 39.3645 13.3203 39.3645 13.9024C39.3645 14.4846 39.1341 15.043 38.724 15.4546C38.3138 15.8663 37.7576 16.0976 37.1776 16.0976C36.5976 16.0976 36.0413 15.8663 35.6312 15.4546C35.2211 15.043 34.9907 14.4846 34.9907 13.9024C34.9907 13.3203 35.2211 12.7619 35.6312 12.3503C36.0413 11.9386 36.5976 11.7073 37.1776 11.7073ZM25.514 11.7073C26.094 11.7073 26.6503 11.9386 27.0604 12.3503C27.4705 12.7619 27.7009 13.3203 27.7009 13.9024C27.7009 14.4846 27.4705 15.043 27.0604 15.4546C26.6503 15.8663 26.094 16.0976 25.514 16.0976C24.934 16.0976 24.3778 15.8663 23.9676 15.4546C23.5575 15.043 23.3271 14.4846 23.3271 13.9024C23.3271 13.3203 23.5575 12.7619 23.9676 12.3503C24.3778 11.9386 24.934 11.7073 25.514 11.7073ZM13.8505 11.7073C14.4305 11.7073 14.9867 11.9386 15.3969 12.3503C15.807 12.7619 16.0374 13.3203 16.0374 13.9024C16.0374 14.4846 15.807 15.043 15.3969 15.4546C14.9867 15.8663 14.4305 16.0976 13.8505 16.0976C13.2705 16.0976 12.7142 15.8663 12.3041 15.4546C11.894 15.043 11.6636 14.4846 11.6636 13.9024C11.6636 13.3203 11.894 12.7619 12.3041 12.3503C12.7142 11.9386 13.2705 11.7073 13.8505 11.7073ZM2.18692 11.7073C2.76692 11.7073 3.32317 11.9386 3.7333 12.3503C4.14342 12.7619 4.37383 13.3203 4.37383 13.9024C4.37383 14.4846 4.14342 15.043 3.7333 15.4546C3.32317 15.8663 2.76692 16.0976 2.18692 16.0976C1.60691 16.0976 1.05066 15.8663 0.640533 15.4546C0.230407 15.043 0 14.4846 0 13.9024C0 13.3203 0.230407 12.7619 0.640533 12.3503C1.05066 11.9386 1.60691 11.7073 2.18692 11.7073ZM72.1682 0C72.7482 0 73.3045 0.231271 73.7146 0.642936C74.1247 1.0546 74.3551 1.61294 74.3551 2.19512C74.3551 2.7773 74.1247 3.33564 73.7146 3.74731C73.3045 4.15897 72.7482 4.39024 72.1682 4.39024C71.5882 4.39024 71.032 4.15897 70.6218 3.74731C70.2117 3.33564 69.9813 2.7773 69.9813 2.19512C69.9813 1.61294 70.2117 1.0546 70.6218 0.642936C71.032 0.231271 71.5882 0 72.1682 0V0ZM60.5047 0C61.0847 0 61.6409 0.231271 62.0511 0.642936C62.4612 1.0546 62.6916 1.61294 62.6916 2.19512C62.6916 2.7773 62.4612 3.33564 62.0511 3.74731C61.6409 4.15897 61.0847 4.39024 60.5047 4.39024C59.9247 4.39024 59.3684 4.15897 58.9583 3.74731C58.5482 3.33564 58.3178 2.7773 58.3178 2.19512C58.3178 1.61294 58.5482 1.0546 58.9583 0.642936C59.3684 0.231271 59.9247 0 60.5047 0V0ZM48.8411 0C49.4211 0 49.9774 0.231271 50.3875 0.642936C50.7976 1.0546 51.028 1.61294 51.028 2.19512C51.028 2.7773 50.7976 3.33564 50.3875 3.74731C49.9774 4.15897 49.4211 4.39024 48.8411 4.39024C48.2611 4.39024 47.7049 4.15897 47.2947 3.74731C46.8846 3.33564 46.6542 2.7773 46.6542 2.19512C46.6542 1.61294 46.8846 1.0546 47.2947 0.642936C47.7049 0.231271 48.2611 0 48.8411 0V0ZM37.1776 0C37.7576 0 38.3138 0.231271 38.724 0.642936C39.1341 1.0546 39.3645 1.61294 39.3645 2.19512C39.3645 2.7773 39.1341 3.33564 38.724 3.74731C38.3138 4.15897 37.7576 4.39024 37.1776 4.39024C36.5976 4.39024 36.0413 4.15897 35.6312 3.74731C35.2211 3.33564 34.9907 2.7773 34.9907 2.19512C34.9907 1.61294 35.2211 1.0546 35.6312 0.642936C36.0413 0.231271 36.5976 0 37.1776 0V0ZM25.514 0C26.094 0 26.6503 0.231271 27.0604 0.642936C27.4705 1.0546 27.7009 1.61294 27.7009 2.19512C27.7009 2.7773 27.4705 3.33564 27.0604 3.74731C26.6503 4.15897 26.094 4.39024 25.514 4.39024C24.934 4.39024 24.3778 4.15897 23.9676 3.74731C23.5575 3.33564 23.3271 2.7773 23.3271 2.19512C23.3271 1.61294 23.5575 1.0546 23.9676 0.642936C24.3778 0.231271 24.934 0 25.514 0V0ZM13.8505 0C14.4305 0 14.9867 0.231271 15.3969 0.642936C15.807 1.0546 16.0374 1.61294 16.0374 2.19512C16.0374 2.7773 15.807 3.33564 15.3969 3.74731C14.9867 4.15897 14.4305 4.39024 13.8505 4.39024C13.2705 4.39024 12.7142 4.15897 12.3041 3.74731C11.894 3.33564 11.6636 2.7773 11.6636 2.19512C11.6636 1.61294 11.894 1.0546 12.3041 0.642936C12.7142 0.231271 13.2705 0 13.8505 0V0ZM2.18692 0C2.76692 0 3.32317 0.231271 3.7333 0.642936C4.14342 1.0546 4.37383 1.61294 4.37383 2.19512C4.37383 2.7773 4.14342 3.33564 3.7333 3.74731C3.32317 4.15897 2.76692 4.39024 2.18692 4.39024C1.60691 4.39024 1.05066 4.15897 0.640533 3.74731C0.230407 3.33564 0 2.7773 0 2.19512C0 1.61294 0.230407 1.0546 0.640533 0.642936C1.05066 0.231271 1.60691 0 2.18692 0V0Z" fill="#E5E7EB"/>
<path fill-rule="evenodd" clip-rule="evenodd" d="M72.1682 175.61C72.7482 175.61 73.3045 175.841 73.7146 176.253C74.1247 176.664 74.3551 177.223 74.3551 177.805C74.3551 178.387 74.1247 178.945 73.7146 179.357C73.3045 179.769 72.7482 180 72.1682 180C71.5882 180 71.032 179.769 70.6218 179.357C70.2117 178.945 69.9813 178.387 69.9813 177.805C69.9813 177.223 70.2117 176.664 70.6218 176.253C71.032 175.841 71.5882 175.61 72.1682 175.61ZM60.5047 175.61C61.0847 175.61 61.6409 175.841 62.0511 176.253C62.4612 176.664 62.6916 177.223 62.6916 177.805C62.6916 178.387 62.4612 178.945 62.0511 179.357C61.6409 179.769 61.0847 180 60.5047 180C59.9247 180 59.3684 179.769 58.9583 179.357C58.5482 178.945 58.3178 178.387 58.3178 177.805C58.3178 177.223 58.5482 176.664 58.9583 176.253C59.3684 175.841 59.9247 175.61 60.5047 175.61ZM48.8411 175.61C49.4211 175.61 49.9774 175.841 50.3875 176.253C50.7976 176.664 51.028 177.223 51.028 177.805C51.028 178.387 50.7976 178.945 50.3875 179.357C49.9774 179.769 49.4211 180 48.8411 180C48.2611 180 47.7049 179.769 47.2947 179.357C46.8846 178.945 46.6542 178.387 46.6542 177.805C46.6542 177.223 46.8846 176.664 47.2947 176.253C47.7049 175.841 48.2611 175.61 48.8411 175.61ZM37.1776 175.61C37.7576 175.61 38.3138 175.841 38.724 176.253C39.1341 176.664 39.3645 177.223 39.3645 177.805C39.3645 178.387 39.1341 178.945 38.724 179.357C38.3138 179.769 37.7576 180 37.1776 180C36.5976 180 36.0413 179.769 35.6312 179.357C35.2211 178.945 34.9907 178.387 34.9907 177.805C34.9907 177.223 35.2211 176.664 35.6312 176.253C36.0413 175.841 36.5976 175.61 37.1776 175.61ZM25.514 175.61C26.094 175.61 26.6503 175.841 27.0604 176.253C27.4705 176.664 27.7009 177.223 27.7009 177.805C27.7009 178.387 27.4705 178.945 27.0604 179.357C26.6503 179.769 26.094 180 25.514 180C24.934 180 24.3778 179.769 23.9676 179.357C23.5575 178.945 23.3271 178.387 23.3271 177.805C23.3271 177.223 23.5575 176.664 23.9676 176.253C24.3778 175.841 24.934 175.61 25.514 175.61ZM13.8505 175.61C14.4305 175.61 14.9867 175.841 15.3969 176.253C15.807 176.664 16.0374 177.223 16.0374 177.805C16.0374 178.387 15.807 178.945 15.3969 179.357C14.9867 179.769 14.4305 180 13.8505 180C13.2705 180 12.7142 179.769 12.3041 179.357C11.894 178.945 11.6636 178.387 11.6636 177.805C11.6636 177.223 11.894 176.664 12.3041 176.253C12.7142 175.841 13.2705 175.61 13.8505 175.61ZM2.18692 175.61C2.76692 175.61 3.32317 175.841 3.7333 176.253C4.14342 176.664 4.37383 177.223 4.37383 177.805C4.37383 178.387 4.14342 178.945 3.7333 179.357C3.32317 179.769 2.76692 180 2.18692 180C1.60691 180 1.05066 179.769 0.640533 179.357C0.230407 178.945 0 178.387 0 177.805C0 177.223 0.230407 176.664 0.640533 176.253C1.05066 175.841 1.60691 175.61 2.18692 175.61ZM72.1682 163.902C72.7482 163.902 73.3045 164.134 73.7146 164.545C74.1247 164.957 74.3551 165.515 74.3551 166.098C74.3551 166.68 74.1247 167.238 73.7146 167.65C73.3045 168.061 72.7482 168.293 72.1682 168.293C71.5882 168.293 71.032 168.061 70.6218 167.65C70.2117 167.238 69.9813 166.68 69.9813 166.098C69.9813 165.515 70.2117 164.957 70.6218 164.545C71.032 164.134 71.5882 163.902 72.1682 163.902ZM60.5047 163.902C61.0847 163.902 61.6409 164.134 62.0511 164.545C62.4612 164.957 62.6916 165.515 62.6916 166.098C62.6916 166.68 62.4612 167.238 62.0511 167.65C61.6409 168.061 61.0847 168.293 60.5047 168.293C59.9247 168.293 59.3684 168.061 58.9583 167.65C58.5482 167.238 58.3178 166.68 58.3178 166.098C58.3178 165.515 58.5482 164.957 58.9583 164.545C59.3684 164.134 59.9247 163.902 60.5047 163.902ZM48.8411 163.902C49.4211 163.902 49.9774 164.134 50.3875 164.545C50.7976 164.957 51.028 165.515 51.028 166.098C51.028 166.68 50.7976 167.238 50.3875 167.65C49.9774 168.061 49.4211 168.293 48.8411 168.293C48.2611 168.293 47.7049 168.061 47.2947 167.65C46.8846 167.238 46.6542 166.68 46.6542 166.098C46.6542 165.515 46.8846 164.957 47.2947 164.545C47.7049 164.134 48.2611 163.902 48.8411 163.902ZM37.1776 163.902C37.7576 163.902 38.3138 164.134 38.724 164.545C39.1341 164.957 39.3645 165.515 39.3645 166.098C39.3645 166.68 39.1341 167.238 38.724 167.65C38.3138 168.061 37.7576 168.293 37.1776 168.293C36.5976 168.293 36.0413 168.061 35.6312 167.65C35.2211 167.238 34.9907 166.68 34.9907 166.098C34.9907 165.515 35.2211 164.957 35.6312 164.545C36.0413 164.134 36.5976 163.902 37.1776 163.902ZM25.514 163.902C26.094 163.902 26.6503 164.134 27.0604 164.545C27.4705 164.957 27.7009 165.515 27.7009 166.098C27.7009 166.68 27.4705 167.238 27.0604 167.65C26.6503 168.061 26.094 168.293 25.514 168.293C24.934 168.293 24.3778 168.061 23.9676 167.65C23.5575 167.238 23.3271 166.68 23.3271 166.098C23.3271 165.515 23.5575 164.957 23.9676 164.545C24.3778 164.134 24.934 163.902 25.514 163.902ZM13.8505 163.902C14.4305 163.902 14.9867 164.134 15.3969 164.545C15.807 164.957 16.0374 165.515 16.0374 166.098C16.0374 166.68 15.807 167.238 15.3969 167.65C14.9867 168.061 14.4305 168.293 13.8505 168.293C13.2705 168.293 12.7142 168.061 12.3041 167.65C11.894 167.238 11.6636 166.68 11.6636 166.098C11.6636 165.515 11.894 164.957 12.3041 164.545C12.7142 164.134 13.2705 163.902 13.8505 163.902ZM2.18692 163.902C2.76692 163.902 3.32317 164.134 3.7333 164.545C4.14342 164.957 4.37383 165.515 4.37383 166.098C4.37383 166.68 4.14342 167.238 3.7333 167.65C3.32317 168.061 2.76692 168.293 2.18692 168.293C1.60691 168.293 1.05066 168.061 0.640533 167.65C0.230407 167.238 0 166.68 0 166.098C0 165.515 0.230407 164.957 0.640533 164.545C1.05066 164.134 1.60691 163.902 2.18692 163.902ZM72.1682 152.195C72.7482 152.195 73.3045 152.426 73.7146 152.838C74.1247 153.25 74.3551 153.808 74.3551 154.39C74.3551 154.972 74.1247 155.531 73.7146 155.942C73.3045 156.354 72.7482 156.585 72.1682 156.585C71.5882 156.585 71.032 156.354 70.6218 155.942C70.2117 155.531 69.9813 154.972 69.9813 154.39C69.9813 153.808 70.2117 153.25 70.6218 152.838C71.032 152.426 71.5882 152.195 72.1682 152.195ZM60.5047 152.195C61.0847 152.195 61.6409 152.426 62.0511 152.838C62.4612 153.25 62.6916 153.808 62.6916 154.39C62.6916 154.972 62.4612 155.531 62.0511 155.942C61.6409 156.354 61.0847 156.585 60.5047 156.585C59.9247 156.585 59.3684 156.354 58.9583 155.942C58.5482 155.531 58.3178 154.972 58.3178 154.39C58.3178 153.808 58.5482 153.25 58.9583 152.838C59.3684 152.426 59.9247 152.195 60.5047 152.195ZM48.8411 152.195C49.4211 152.195 49.9774 152.426 50.3875 152.838C50.7976 153.25 51.028 153.808 51.028 154.39C51.028 154.972 50.7976 155.531 50.3875 155.942C49.9774 156.354 49.4211 156.585 48.8411 156.585C48.2611 156.585 47.7049 156.354 47.2947 155.942C46.8846 155.531 46.6542 154.972 46.6542 154.39C46.6542 153.808 46.8846 153.25 47.2947 152.838C47.7049 152.426 48.2611 152.195 48.8411 152.195ZM37.1776 152.195C37.7576 152.195 38.3138 152.426 38.724 152.838C39.1341 153.25 39.3645 153.808 39.3645 154.39C39.3645 154.972 39.1341 155.531 38.724 155.942C38.3138 156.354 37.7576 156.585 37.1776 156.585C36.5976 156.585 36.0413 156.354 35.6312 155.942C35.2211 155.531 34.9907 154.972 34.9907 154.39C34.9907 153.808 35.2211 153.25 35.6312 152.838C36.0413 152.426 36.5976 152.195 37.1776 152.195ZM25.514 152.195C26.094 152.195 26.6503 152.426 27.0604 152.838C27.4705 153.25 27.7009 153.808 27.7009 154.39C27.7009 154.972 27.4705 155.531 27.0604 155.942C26.6503 156.354 26.094 156.585 25.514 156.585C24.934 156.585 24.3778 156.354 23.9676 155.942C23.5575 155.531 23.3271 154.972 23.3271 154.39C23.3271 153.808 23.5575 153.25 23.9676 152.838C24.3778 152.426 24.934 152.195 25.514 152.195ZM13.8505 152.195C14.4305 152.195 14.9867 152.426 15.3969 152.838C15.807 153.25 16.0374 153.808 16.0374 154.39C16.0374 154.972 15.807 155.531 15.3969 155.942C14.9867 156.354 14.4305 156.585 13.8505 156.585C13.2705 156.585 12.7142 156.354 12.3041 155.942C11.894 155.531 11.6636 154.972 11.6636 154.39C11.6636 153.808 11.894 153.25 12.3041 152.838C12.7142 152.426 13.2705 152.195 13.8505 152.195ZM2.18692 152.195C2.76692 152.195 3.32317 152.426 3.7333 152.838C4.14342 153.25 4.37383 153.808 4.37383 154.39C4.37383 154.972 4.14342 155.531 3.7333 155.942C3.32317 156.354 2.76692 156.585 2.18692 156.585C1.60691 156.585 1.05066 156.354 0.640533 155.942C0.230407 155.531 0 154.972 0 154.39C0 153.808 0.230407 153.25 0.640533 152.838C1.05066 152.426 1.60691 152.195 2.18692 152.195ZM72.1682 140.488C72.7482 140.488 73.3045 140.719 73.7146 141.131C74.1247 141.542 74.3551 142.101 74.3551 142.683C74.3551 143.265 74.1247 143.823 73.7146 144.235C73.3045 144.647 72.7482 144.878 72.1682 144.878C71.5882 144.878 71.032 144.647 70.6218 144.235C70.2117 143.823 69.9813 143.265 69.9813 142.683C69.9813 142.101 70.2117 141.542 70.6218 141.131C71.032 140.719 71.5882 140.488 72.1682 140.488ZM60.5047 140.488C61.0847 140.488 61.6409 140.719 62.0511 141.131C62.4612 141.542 62.6916 142.101 62.6916 142.683C62.6916 143.265 62.4612 143.823 62.0511 144.235C61.6409 144.647 61.0847 144.878 60.5047 144.878C59.9247 144.878 59.3684 144.647 58.9583 144.235C58.5482 143.823 58.3178 143.265 58.3178 142.683C58.3178 142.101 58.5482 141.542 58.9583 141.131C59.3684 140.719 59.9247 140.488 60.5047 140.488ZM48.8411 140.488C49.4211 140.488 49.9774 140.719 50.3875 141.131C50.7976 141.542 51.028 142.101 51.028 142.683C51.028 143.265 50.7976 143.823 50.3875 144.235C49.9774 144.647 49.4211 144.878 48.8411 144.878C48.2611 144.878 47.7049 144.647 47.2947 144.235C46.8846 143.823 46.6542 143.265 46.6542 142.683C46.6542 142.101 46.8846 141.542 47.2947 141.131C47.7049 140.719 48.2611 140.488 48.8411 140.488ZM37.1776 140.488C37.7576 140.488 38.3138 140.719 38.724 141.131C39.1341 141.542 39.3645 142.101 39.3645 142.683C39.3645 143.265 39.1341 143.823 38.724 144.235C38.3138 144.647 37.7576 144.878 37.1776 144.878C36.5976 144.878 36.0413 144.647 35.6312 144.235C35.2211 143.823 34.9907 143.265 34.9907 142.683C34.9907 142.101 35.2211 141.542 35.6312 141.131C36.0413 140.719 36.5976 140.488 37.1776 140.488ZM25.514 140.488C26.094 140.488 26.6503 140.719 27.0604 141.131C27.4705 141.542 27.7009 142.101 27.7009 142.683C27.7009 143.265 27.4705 143.823 27.0604 144.235C26.6503 144.647 26.094 144.878 25.514 144.878C24.934 144.878 24.3778 144.647 23.9676 144.235C23.5575 143.823 23.3271 143.265 23.3271 142.683C23.3271 142.101 23.5575 141.542 23.9676 141.131C24.3778 140.719 24.934 140.488 25.514 140.488ZM13.8505 140.488C14.4305 140.488 14.9867 140.719 15.3969 141.131C15.807 141.542 16.0374 142.101 16.0374 142.683C16.0374 143.265 15.807 143.823 15.3969 144.235C14.9867 144.647 14.4305 144.878 13.8505 144.878C13.2705 144.878 12.7142 144.647 12.3041 144.235C11.894 143.823 11.6636 143.265 11.6636 142.683C11.6636 142.101 11.894 141.542 12.3041 141.131C12.7142 140.719 13.2705 140.488 13.8505 140.488ZM2.18692 140.488C2.76692 140.488 3.32317 140.719 3.7333 141.131C4.14342 141.542 4.37383 142.101 4.37383 142.683C4.37383 143.265 4.14342 143.823 3.7333 144.235C3.32317 144.647 2.76692 144.878 2.18692 144.878C1.60691 144.878 1.05066 144.647 0.640533 144.235C0.230407 143.823 0 143.265 0 142.683C0 142.101 0.230407 141.542 0.640533 141.131C1.05066 140.719 1.60691 140.488 2.18692 140.488ZM72.1682 128.78C72.7482 128.78 73.3045 129.012 73.7146 129.423C74.1247 129.835 74.3551 130.393 74.3551 130.976C74.3551 131.558 74.1247 132.116 73.7146 132.528C73.3045 132.939 72.7482 133.171 72.1682 133.171C71.5882 133.171 71.032 132.939 70.6218 132.528C70.2117 132.116 69.9813 131.558 69.9813 130.976C69.9813 130.393 70.2117 129.835 70.6218 129.423C71.032 129.012 71.5882 128.78 72.1682 128.78ZM60.5047 128.78C61.0847 128.78 61.6409 129.012 62.0511 129.423C62.4612 129.835 62.6916 130.393 62.6916 130.976C62.6916 131.558 62.4612 132.116 62.0511 132.528C61.6409 132.939 61.0847 133.171 60.5047 133.171C59.9247 133.171 59.3684 132.939 58.9583 132.528C58.5482 132.116 58.3178 131.558 58.3178 130.976C58.3178 130.393 58.5482 129.835 58.9583 129.423C59.3684 129.012 59.9247 128.78 60.5047 128.78ZM48.8411 128.78C49.4211 128.78 49.9774 129.012 50.3875 129.423C50.7976 129.835 51.028 130.393 51.028 130.976C51.028 131.558 50.7976 132.116 50.3875 132.528C49.9774 132.939 49.4211 133.171 48.8411 133.171C48.2611 133.171 47.7049 132.939 47.2947 132.528C46.8846 132.116 46.6542 131.558 46.6542 130.976C46.6542 130.393 46.8846 129.835 47.2947 129.423C47.7049 129.012 48.2611 128.78 48.8411 128.78ZM37.1776 128.78C37.7576 128.78 38.3138 129.012 38.724 129.423C39.1341 129.835 39.3645 130.393 39.3645 130.976C39.3645 131.558 39.1341 132.116 38.724 132.528C38.3138 132.939 37.7576 133.171 37.1776 133.171C36.5976 133.171 36.0413 132.939 35.6312 132.528C35.2211 132.116 34.9907 131.558 34.9907 130.976C34.9907 130.393 35.2211 129.835 35.6312 129.423C36.0413 129.012 36.5976 128.78 37.1776 128.78ZM25.514 128.78C26.094 128.78 26.6503 129.012 27.0604 129.423C27.4705 129.835 27.7009 130.393 27.7009 130.976C27.7009 131.558 27.4705 132.116 27.0604 132.528C26.6503 132.939 26.094 133.171 25.514 133.171C24.934 133.171 24.3778 132.939 23.9676 132.528C23.5575 132.116 23.3271 131.558 23.3271 130.976C23.3271 130.393 23.5575 129.835 23.9676 129.423C24.3778 129.012 24.934 128.78 25.514 128.78ZM13.8505 128.78C14.4305 128.78 14.9867 129.012 15.3969 129.423C15.807 129.835 16.0374 130.393 16.0374 130.976C16.0374 131.558 15.807 132.116 15.3969 132.528C14.9867 132.939 14.4305 133.171 13.8505 133.171C13.2705 133.171 12.7142 132.939 12.3041 132.528C11.894 132.116 11.6636 131.558 11.6636 130.976C11.6636 130.393 11.894 129.835 12.3041 129.423C12.7142 129.012 13.2705 128.78 13.8505 128.78ZM2.18692 128.78C2.76692 128.78 3.32317 129.012 3.7333 129.423C4.14342 129.835 4.37383 130.393 4.37383 130.976C4.37383 131.558 4.14342 132.116 3.7333 132.528C3.32317 132.939 2.76692 133.171 2.18692 133.171C1.60691 133.171 1.05066 132.939 0.640533 132.528C0.230407 132.116 0 131.558 0 130.976C0 130.393 0.230407 129.835 0.640533 129.423C1.05066 129.012 1.60691 128.78 2.18692 128.78ZM72.1682 117.073C72.7482 117.073 73.3045 117.304 73.7146 117.716C74.1247 118.128 74.3551 118.686 74.3551 119.268C74.3551 119.85 74.1247 120.409 73.7146 120.82C73.3045 121.232 72.7482 121.463 72.1682 121.463C71.5882 121.463 71.032 121.232 70.6218 120.82C70.2117 120.409 69.9813 119.85 69.9813 119.268C69.9813 118.686 70.2117 118.128 70.6218 117.716C71.032 117.304 71.5882 117.073 72.1682 117.073ZM60.5047 117.073C61.0847 117.073 61.6409 117.304 62.0511 117.716C62.4612 118.128 62.6916 118.686 62.6916 119.268C62.6916 119.85 62.4612 120.409 62.0511 120.82C61.6409 121.232 61.0847 121.463 60.5047 121.463C59.9247 121.463 59.3684 121.232 58.9583 120.82C58.5482 120.409 58.3178 119.85 58.3178 119.268C58.3178 118.686 58.5482 118.128 58.9583 117.716C59.3684 117.304 59.9247 117.073 60.5047 117.073ZM48.8411 117.073C49.4211 117.073 49.9774 117.304 50.3875 117.716C50.7976 118.128 51.028 118.686 51.028 119.268C51.028 119.85 50.7976 120.409 50.3875 120.82C49.9774 121.232 49.4211 121.463 48.8411 121.463C48.2611 121.463 47.7049 121.232 47.2947 120.82C46.8846 120.409 46.6542 119.85 46.6542 119.268C46.6542 118.686 46.8846 118.128 47.2947 117.716C47.7049 117.304 48.2611 117.073 48.8411 117.073ZM37.1776 117.073C37.7576 117.073 38.3138 117.304 38.724 117.716C39.1341 118.128 39.3645 118.686 39.3645 119.268C39.3645 119.85 39.1341 120.409 38.724 120.82C38.3138 121.232 37.7576 121.463 37.1776 121.463C36.5976 121.463 36.0413 121.232 35.6312 120.82C35.2211 120.409 34.9907 119.85 34.9907 119.268C34.9907 118.686 35.2211 118.128 35.6312 117.716C36.0413 117.304 36.5976 117.073 37.1776 117.073ZM25.514 117.073C26.094 117.073 26.6503 117.304 27.0604 117.716C27.4705 118.128 27.7009 118.686 27.7009 119.268C27.7009 119.85 27.4705 120.409 27.0604 120.82C26.6503 121.232 26.094 121.463 25.514 121.463C24.934 121.463 24.3778 121.232 23.9676 120.82C23.5575 120.409 23.3271 119.85 23.3271 119.268C23.3271 118.686 23.5575 118.128 23.9676 117.716C24.3778 117.304 24.934 117.073 25.514 117.073ZM13.8505 117.073C14.4305 117.073 14.9867 117.304 15.3969 117.716C15.807 118.128 16.0374 118.686 16.0374 119.268C16.0374 119.85 15.807 120.409 15.3969 120.82C14.9867 121.232 14.4305 121.463 13.8505 121.463C13.2705 121.463 12.7142 121.232 12.3041 120.82C11.894 120.409 11.6636 119.85 11.6636 119.268C11.6636 118.686 11.894 118.128 12.3041 117.716C12.7142 117.304 13.2705 117.073 13.8505 117.073ZM2.18692 117.073C2.76692 117.073 3.32317 117.304 3.7333 117.716C4.14342 118.128 4.37383 118.686 4.37383 119.268C4.37383 119.85 4.14342 120.409 3.7333 120.82C3.32317 121.232 2.76692 121.463 2.18692 121.463C1.60691 121.463 1.05066 121.232 0.640533 120.82C0.230407 120.409 0 119.85 0 119.268C0 118.686 0.230407 118.128 0.640533 117.716C1.05066 117.304 1.60691 117.073 2.18692 117.073ZM72.1682 105.366C72.7482 105.366 73.3045 105.597 73.7146 106.009C74.1247 106.42 74.3551 106.979 74.3551 107.561C74.3551 108.143 74.1247 108.701 73.7146 109.113C73.3045 109.525 72.7482 109.756 72.1682 109.756C71.5882 109.756 71.032 109.525 70.6218 109.113C70.2117 108.701 69.9813 108.143 69.9813 107.561C69.9813 106.979 70.2117 106.42 70.6218 106.009C71.032 105.597 71.5882 105.366 72.1682 105.366ZM60.5047 105.366C61.0847 105.366 61.6409 105.597 62.0511 106.009C62.4612 106.42 62.6916 106.979 62.6916 107.561C62.6916 108.143 62.4612 108.701 62.0511 109.113C61.6409 109.525 61.0847 109.756 60.5047 109.756C59.9247 109.756 59.3684 109.525 58.9583 109.113C58.5482 108.701 58.3178 108.143 58.3178 107.561C58.3178 106.979 58.5482 106.42 58.9583 106.009C59.3684 105.597 59.9247 105.366 60.5047 105.366ZM48.8411 105.366C49.4211 105.366 49.9774 105.597 50.3875 106.009C50.7976 106.42 51.028 106.979 51.028 107.561C51.028 108.143 50.7976 108.701 50.3875 109.113C49.9774 109.525 49.4211 109.756 48.8411 109.756C48.2611 109.756 47.7049 109.525 47.2947 109.113C46.8846 108.701 46.6542 108.143 46.6542 107.561C46.6542 106.979 46.8846 106.42 47.2947 106.009C47.7049 105.597 48.2611 105.366 48.8411 105.366ZM37.1776 105.366C37.7576 105.366 38.3138 105.597 38.724 106.009C39.1341 106.42 39.3645 106.979 39.3645 107.561C39.3645 108.143 39.1341 108.701 38.724 109.113C38.3138 109.525 37.7576 109.756 37.1776 109.756C36.5976 109.756 36.0413 109.525 35.6312 109.113C35.2211 108.701 34.9907 108.143 34.9907 107.561C34.9907 106.979 35.2211 106.42 35.6312 106.009C36.0413 105.597 36.5976 105.366 37.1776 105.366ZM25.514 105.366C26.094 105.366 26.6503 105.597 27.0604 106.009C27.4705 106.42 27.7009 106.979 27.7009 107.561C27.7009 108.143 27.4705 108.701 27.0604 109.113C26.6503 109.525 26.094 109.756 25.514 109.756C24.934 109.756 24.3778 109.525 23.9676 109.113C23.5575 108.701 23.3271 108.143 23.3271 107.561C23.3271 106.979 23.5575 106.42 23.9676 106.009C24.3778 105.597 24.934 105.366 25.514 105.366ZM13.8505 105.366C14.4305 105.366 14.9867 105.597 15.3969 106.009C15.807 106.42 16.0374 106.979 16.0374 107.561C16.0374 108.143 15.807 108.701 15.3969 109.113C14.9867 109.525 14.4305 109.756 13.8505 109.756C13.2705 109.756 12.7142 109.525 12.3041 109.113C11.894 108.701 11.6636 108.143 11.6636 107.561C11.6636 106.979 11.894 106.42 12.3041 106.009C12.7142 105.597 13.2705 105.366 13.8505 105.366ZM2.18692 105.366C2.76692 105.366 3.32317 105.597 3.7333 106.009C4.14342 106.42 4.37383 106.979 4.37383 107.561C4.37383 108.143 4.14342 108.701 3.7333 109.113C3.32317 109.525 2.76692 109.756 2.18692 109.756C1.60691 109.756 1.05066 109.525 0.640533 109.113C0.230407 108.701 0 108.143 0 107.561C0 106.979 0.230407 106.42 0.640533 106.009C1.05066 105.597 1.60691 105.366 2.18692 105.366ZM72.1682 93.6585C72.7482 93.6585 73.3045 93.8898 73.7146 94.3015C74.1247 94.7131 74.3551 95.2715 74.3551 95.8537C74.3551 96.4358 74.1247 96.9942 73.7146 97.4058C73.3045 97.8175 72.7482 98.0488 72.1682 98.0488C71.5882 98.0488 71.032 97.8175 70.6218 97.4058C70.2117 96.9942 69.9813 96.4358 69.9813 95.8537C69.9813 95.2715 70.2117 94.7131 70.6218 94.3015C71.032 93.8898 71.5882 93.6585 72.1682 93.6585V93.6585ZM60.5047 93.6585C61.0847 93.6585 61.6409 93.8898 62.0511 94.3015C62.4612 94.7131 62.6916 95.2715 62.6916 95.8537C62.6916 96.4358 62.4612 96.9942 62.0511 97.4058C61.6409 97.8175 61.0847 98.0488 60.5047 98.0488C59.9247 98.0488 59.3684 97.8175 58.9583 97.4058C58.5482 96.9942 58.3178 96.4358 58.3178 95.8537C58.3178 95.2715 58.5482 94.7131 58.9583 94.3015C59.3684 93.8898 59.9247 93.6585 60.5047 93.6585V93.6585ZM48.8411 93.6585C49.4211 93.6585 49.9774 93.8898 50.3875 94.3015C50.7976 94.7131 51.028 95.2715 51.028 95.8537C51.028 96.4358 50.7976 96.9942 50.3875 97.4058C49.9774 97.8175 49.4211 98.0488 48.8411 98.0488C48.2611 98.0488 47.7049 97.8175 47.2947 97.4058C46.8846 96.9942 46.6542 96.4358 46.6542 95.8537C46.6542 95.2715 46.8846 94.7131 47.2947 94.3015C47.7049 93.8898 48.2611 93.6585 48.8411 93.6585V93.6585ZM37.1776 93.6585C37.7576 93.6585 38.3138 93.8898 38.724 94.3015C39.1341 94.7131 39.3645 95.2715 39.3645 95.8537C39.3645 96.4358 39.1341 96.9942 38.724 97.4058C38.3138 97.8175 37.7576 98.0488 37.1776 98.0488C36.5976 98.0488 36.0413 97.8175 35.6312 97.4058C35.2211 96.9942 34.9907 96.4358 34.9907 95.8537C34.9907 95.2715 35.2211 94.7131 35.6312 94.3015C36.0413 93.8898 36.5976 93.6585 37.1776 93.6585V93.6585ZM25.514 93.6585C26.094 93.6585 26.6503 93.8898 27.0604 94.3015C27.4705 94.7131 27.7009 95.2715 27.7009 95.8537C27.7009 96.4358 27.4705 96.9942 27.0604 97.4058C26.6503 97.8175 26.094 98.0488 25.514 98.0488C24.934 98.0488 24.3778 97.8175 23.9676 97.4058C23.5575 96.9942 23.3271 96.4358 23.3271 95.8537C23.3271 95.2715 23.5575 94.7131 23.9676 94.3015C24.3778 93.8898 24.934 93.6585 25.514 93.6585V93.6585ZM13.8505 93.6585C14.4305 93.6585 14.9867 93.8898 15.3969 94.3015C15.807 94.7131 16.0374 95.2715 16.0374 95.8537C16.0374 96.4358 15.807 96.9942 15.3969 97.4058C14.9867 97.8175 14.4305 98.0488 13.8505 98.0488C13.2705 98.0488 12.7142 97.8175 12.3041 97.4058C11.894 96.9942 11.6636 96.4358 11.6636 95.8537C11.6636 95.2715 11.894 94.7131 12.3041 94.3015C12.7142 93.8898 13.2705 93.6585 13.8505 93.6585V93.6585ZM2.18692 93.6585C2.76692 93.6585 3.32317 93.8898 3.7333 94.3015C4.14342 94.7131 4.37383 95.2715 4.37383 95.8537C4.37383 96.4358 4.14342 96.9942 3.7333 97.4058C3.32317 97.8175 2.76692 98.0488 2.18692 98.0488C1.60691 98.0488 1.05066 97.8175 0.640533 97.4058C0.230407 96.9942 0 96.4358 0 95.8537C0 95.2715 0.230407 94.7131 0.640533 94.3015C1.05066 93.8898 1.60691 93.6585 2.18692 93.6585V93.6585Z" fill="#E5E7EB"/>
<path fill-rule="evenodd" clip-rule="evenodd" d="M153.813 81.9512C154.393 81.9512 154.949 82.1825 155.359 82.5941C155.77 83.0058 156 83.5642 156 84.1463C156 84.7285 155.77 85.2869 155.359 85.6985C154.949 86.1102 154.393 86.3415 153.813 86.3415C153.233 86.3415 152.677 86.1102 152.267 85.6985C151.857 85.2869 151.626 84.7285 151.626 84.1463C151.626 83.5642 151.857 83.0058 152.267 82.5941C152.677 82.1825 153.233 81.9512 153.813 81.9512ZM142.15 81.9512C142.73 81.9512 143.286 82.1825 143.696 82.5941C144.106 83.0058 144.336 83.5642 144.336 84.1463C144.336 84.7285 144.106 85.2869 143.696 85.6985C143.286 86.1102 142.73 86.3415 142.15 86.3415C141.57 86.3415 141.013 86.1102 140.603 85.6985C140.193 85.2869 139.963 84.7285 139.963 84.1463C139.963 83.5642 140.193 83.0058 140.603 82.5941C141.013 82.1825 141.57 81.9512 142.15 81.9512ZM130.486 81.9512C131.066 81.9512 131.622 82.1825 132.032 82.5941C132.442 83.0058 132.673 83.5642 132.673 84.1463C132.673 84.7285 132.442 85.2869 132.032 85.6985C131.622 86.1102 131.066 86.3415 130.486 86.3415C129.906 86.3415 129.35 86.1102 128.94 85.6985C128.529 85.2869 128.299 84.7285 128.299 84.1463C128.299 83.5642 128.529 83.0058 128.94 82.5941C129.35 82.1825 129.906 81.9512 130.486 81.9512ZM118.822 81.9512C119.402 81.9512 119.959 82.1825 120.369 82.5941C120.779 83.0058 121.009 83.5642 121.009 84.1463C121.009 84.7285 120.779 85.2869 120.369 85.6985C119.959 86.1102 119.402 86.3415 118.822 86.3415C118.242 86.3415 117.686 86.1102 117.276 85.6985C116.866 85.2869 116.635 84.7285 116.635 84.1463C116.635 83.5642 116.866 83.0058 117.276 82.5941C117.686 82.1825 118.242 81.9512 118.822 81.9512ZM107.159 81.9512C107.739 81.9512 108.295 82.1825 108.705 82.5941C109.115 83.0058 109.346 83.5642 109.346 84.1463C109.346 84.7285 109.115 85.2869 108.705 85.6985C108.295 86.1102 107.739 86.3415 107.159 86.3415C106.579 86.3415 106.023 86.1102 105.612 85.6985C105.202 85.2869 104.972 84.7285 104.972 84.1463C104.972 83.5642 105.202 83.0058 105.612 82.5941C106.023 82.1825 106.579 81.9512 107.159 81.9512ZM95.4953 81.9512C96.0753 81.9512 96.6316 82.1825 97.0417 82.5941C97.4518 83.0058 97.6822 83.5642 97.6822 84.1463C97.6822 84.7285 97.4518 85.2869 97.0417 85.6985C96.6316 86.1102 96.0753 86.3415 95.4953 86.3415C94.9153 86.3415 94.359 86.1102 93.9489 85.6985C93.5388 85.2869 93.3084 84.7285 93.3084 84.1463C93.3084 83.5642 93.5388 83.0058 93.9489 82.5941C94.359 82.1825 94.9153 81.9512 95.4953 81.9512ZM83.8318 81.9512C84.4118 81.9512 84.968 82.1825 85.3781 82.5941C85.7883 83.0058 86.0187 83.5642 86.0187 84.1463C86.0187 84.7285 85.7883 85.2869 85.3781 85.6985C84.968 86.1102 84.4118 86.3415 83.8318 86.3415C83.2517 86.3415 82.6955 86.1102 82.2854 85.6985C81.8752 85.2869 81.6448 84.7285 81.6448 84.1463C81.6448 83.5642 81.8752 83.0058 82.2854 82.5941C82.6955 82.1825 83.2517 81.9512 83.8318 81.9512ZM153.813 70.2439C154.393 70.2439 154.949 70.4752 155.359 70.8868C155.77 71.2985 156 71.8568 156 72.439C156 73.0212 155.77 73.5795 155.359 73.9912C154.949 74.4029 154.393 74.6341 153.813 74.6341C153.233 74.6341 152.677 74.4029 152.267 73.9912C151.857 73.5795 151.626 73.0212 151.626 72.439C151.626 71.8568 151.857 71.2985 152.267 70.8868C152.677 70.4752 153.233 70.2439 153.813 70.2439ZM142.15 70.2439C142.73 70.2439 143.286 70.4752 143.696 70.8868C144.106 71.2985 144.336 71.8568 144.336 72.439C144.336 73.0212 144.106 73.5795 143.696 73.9912C143.286 74.4029 142.73 74.6341 142.15 74.6341C141.57 74.6341 141.013 74.4029 140.603 73.9912C140.193 73.5795 139.963 73.0212 139.963 72.439C139.963 71.8568 140.193 71.2985 140.603 70.8868C141.013 70.4752 141.57 70.2439 142.15 70.2439ZM130.486 70.2439C131.066 70.2439 131.622 70.4752 132.032 70.8868C132.442 71.2985 132.673 71.8568 132.673 72.439C132.673 73.0212 132.442 73.5795 132.032 73.9912C131.622 74.4029 131.066 74.6341 130.486 74.6341C129.906 74.6341 129.35 74.4029 128.94 73.9912C128.529 73.5795 128.299 73.0212 128.299 72.439C128.299 71.8568 128.529 71.2985 128.94 70.8868C129.35 70.4752 129.906 70.2439 130.486 70.2439ZM118.822 70.2439C119.402 70.2439 119.959 70.4752 120.369 70.8868C120.779 71.2985 121.009 71.8568 121.009 72.439C121.009 73.0212 120.779 73.5795 120.369 73.9912C119.959 74.4029 119.402 74.6341 118.822 74.6341C118.242 74.6341 117.686 74.4029 117.276 73.9912C116.866 73.5795 116.635 73.0212 116.635 72.439C116.635 71.8568 116.866 71.2985 117.276 70.8868C117.686 70.4752 118.242 70.2439 118.822 70.2439ZM107.159 70.2439C107.739 70.2439 108.295 70.4752 108.705 70.8868C109.115 71.2985 109.346 71.8568 109.346 72.439C109.346 73.0212 109.115 73.5795 108.705 73.9912C108.295 74.4029 107.739 74.6341 107.159 74.6341C106.579 74.6341 106.023 74.4029 105.612 73.9912C105.202 73.5795 104.972 73.0212 104.972 72.439C104.972 71.8568 105.202 71.2985 105.612 70.8868C106.023 70.4752 106.579 70.2439 107.159 70.2439ZM95.4953 70.2439C96.0753 70.2439 96.6316 70.4752 97.0417 70.8868C97.4518 71.2985 97.6822 71.8568 97.6822 72.439C97.6822 73.0212 97.4518 73.5795 97.0417 73.9912C96.6316 74.4029 96.0753 74.6341 95.4953 74.6341C94.9153 74.6341 94.359 74.4029 93.9489 73.9912C93.5388 73.5795 93.3084 73.0212 93.3084 72.439C93.3084 71.8568 93.5388 71.2985 93.9489 70.8868C94.359 70.4752 94.9153 70.2439 95.4953 70.2439ZM83.8318 70.2439C84.4118 70.2439 84.968 70.4752 85.3781 70.8868C85.7883 71.2985 86.0187 71.8568 86.0187 72.439C86.0187 73.0212 85.7883 73.5795 85.3781 73.9912C84.968 74.4029 84.4118 74.6341 83.8318 74.6341C83.2517 74.6341 82.6955 74.4029 82.2854 73.9912C81.8752 73.5795 81.6448 73.0212 81.6448 72.439C81.6448 71.8568 81.8752 71.2985 82.2854 70.8868C82.6955 70.4752 83.2517 70.2439 83.8318 70.2439ZM153.813 58.5366C154.393 58.5366 154.949 58.7679 155.359 59.1795C155.77 59.5912 156 60.1495 156 60.7317C156 61.3139 155.77 61.8722 155.359 62.2839C154.949 62.6956 154.393 62.9268 153.813 62.9268C153.233 62.9268 152.677 62.6956 152.267 62.2839C151.857 61.8722 151.626 61.3139 151.626 60.7317C151.626 60.1495 151.857 59.5912 152.267 59.1795C152.677 58.7679 153.233 58.5366 153.813 58.5366ZM142.15 58.5366C142.73 58.5366 143.286 58.7679 143.696 59.1795C144.106 59.5912 144.336 60.1495 144.336 60.7317C144.336 61.3139 144.106 61.8722 143.696 62.2839C143.286 62.6956 142.73 62.9268 142.15 62.9268C141.57 62.9268 141.013 62.6956 140.603 62.2839C140.193 61.8722 139.963 61.3139 139.963 60.7317C139.963 60.1495 140.193 59.5912 140.603 59.1795C141.013 58.7679 141.57 58.5366 142.15 58.5366ZM130.486 58.5366C131.066 58.5366 131.622 58.7679 132.032 59.1795C132.442 59.5912 132.673 60.1495 132.673 60.7317C132.673 61.3139 132.442 61.8722 132.032 62.2839C131.622 62.6956 131.066 62.9268 130.486 62.9268C129.906 62.9268 129.35 62.6956 128.94 62.2839C128.529 61.8722 128.299 61.3139 128.299 60.7317C128.299 60.1495 128.529 59.5912 128.94 59.1795C129.35 58.7679 129.906 58.5366 130.486 58.5366ZM118.822 58.5366C119.402 58.5366 119.959 58.7679 120.369 59.1795C120.779 59.5912 121.009 60.1495 121.009 60.7317C121.009 61.3139 120.779 61.8722 120.369 62.2839C119.959 62.6956 119.402 62.9268 118.822 62.9268C118.242 62.9268 117.686 62.6956 117.276 62.2839C116.866 61.8722 116.635 61.3139 116.635 60.7317C116.635 60.1495 116.866 59.5912 117.276 59.1795C117.686 58.7679 118.242 58.5366 118.822 58.5366ZM107.159 58.5366C107.739 58.5366 108.295 58.7679 108.705 59.1795C109.115 59.5912 109.346 60.1495 109.346 60.7317C109.346 61.3139 109.115 61.8722 108.705 62.2839C108.295 62.6956 107.739 62.9268 107.159 62.9268C106.579 62.9268 106.023 62.6956 105.612 62.2839C105.202 61.8722 104.972 61.3139 104.972 60.7317C104.972 60.1495 105.202 59.5912 105.612 59.1795C106.023 58.7679 106.579 58.5366 107.159 58.5366ZM95.4953 58.5366C96.0753 58.5366 96.6316 58.7679 97.0417 59.1795C97.4518 59.5912 97.6822 60.1495 97.6822 60.7317C97.6822 61.3139 97.4518 61.8722 97.0417 62.2839C96.6316 62.6956 96.0753 62.9268 95.4953 62.9268C94.9153 62.9268 94.359 62.6956 93.9489 62.2839C93.5388 61.8722 93.3084 61.3139 93.3084 60.7317C93.3084 60.1495 93.5388 59.5912 93.9489 59.1795C94.359 58.7679 94.9153 58.5366 95.4953 58.5366ZM83.8318 58.5366C84.4118 58.5366 84.968 58.7679 85.3781 59.1795C85.7883 59.5912 86.0187 60.1495 86.0187 60.7317C86.0187 61.3139 85.7883 61.8722 85.3781 62.2839C84.968 62.6956 84.4118 62.9268 83.8318 62.9268C83.2517 62.9268 82.6955 62.6956 82.2854 62.2839C81.8752 61.8722 81.6448 61.3139 81.6448 60.7317C81.6448 60.1495 81.8752 59.5912 82.2854 59.1795C82.6955 58.7679 83.2517 58.5366 83.8318 58.5366ZM153.813 46.8293C154.393 46.8293 154.949 47.0605 155.359 47.4722C155.77 47.8839 156 48.4422 156 49.0244C156 49.6066 155.77 50.1649 155.359 50.5766C154.949 50.9882 154.393 51.2195 153.813 51.2195C153.233 51.2195 152.677 50.9882 152.267 50.5766C151.857 50.1649 151.626 49.6066 151.626 49.0244C151.626 48.4422 151.857 47.8839 152.267 47.4722C152.677 47.0605 153.233 46.8293 153.813 46.8293ZM142.15 46.8293C142.73 46.8293 143.286 47.0605 143.696 47.4722C144.106 47.8839 144.336 48.4422 144.336 49.0244C144.336 49.6066 144.106 50.1649 143.696 50.5766C143.286 50.9882 142.73 51.2195 142.15 51.2195C141.57 51.2195 141.013 50.9882 140.603 50.5766C140.193 50.1649 139.963 49.6066 139.963 49.0244C139.963 48.4422 140.193 47.8839 140.603 47.4722C141.013 47.0605 141.57 46.8293 142.15 46.8293ZM130.486 46.8293C131.066 46.8293 131.622 47.0605 132.032 47.4722C132.442 47.8839 132.673 48.4422 132.673 49.0244C132.673 49.6066 132.442 50.1649 132.032 50.5766C131.622 50.9882 131.066 51.2195 130.486 51.2195C129.906 51.2195 129.35 50.9882 128.94 50.5766C128.529 50.1649 128.299 49.6066 128.299 49.0244C128.299 48.4422 128.529 47.8839 128.94 47.4722C129.35 47.0605 129.906 46.8293 130.486 46.8293ZM118.822 46.8293C119.402 46.8293 119.959 47.0605 120.369 47.4722C120.779 47.8839 121.009 48.4422 121.009 49.0244C121.009 49.6066 120.779 50.1649 120.369 50.5766C119.959 50.9882 119.402 51.2195 118.822 51.2195C118.242 51.2195 117.686 50.9882 117.276 50.5766C116.866 50.1649 116.635 49.6066 116.635 49.0244C116.635 48.4422 116.866 47.8839 117.276 47.4722C117.686 47.0605 118.242 46.8293 118.822 46.8293ZM107.159 46.8293C107.739 46.8293 108.295 47.0605 108.705 47.4722C109.115 47.8839 109.346 48.4422 109.346 49.0244C109.346 49.6066 109.115 50.1649 108.705 50.5766C108.295 50.9882 107.739 51.2195 107.159 51.2195C106.579 51.2195 106.023 50.9882 105.612 50.5766C105.202 50.1649 104.972 49.6066 104.972 49.0244C104.972 48.4422 105.202 47.8839 105.612 47.4722C106.023 47.0605 106.579 46.8293 107.159 46.8293ZM95.4953 46.8293C96.0753 46.8293 96.6316 47.0605 97.0417 47.4722C97.4518 47.8839 97.6822 48.4422 97.6822 49.0244C97.6822 49.6066 97.4518 50.1649 97.0417 50.5766C96.6316 50.9882 96.0753 51.2195 95.4953 51.2195C94.9153 51.2195 94.359 50.9882 93.9489 50.5766C93.5388 50.1649 93.3084 49.6066 93.3084 49.0244C93.3084 48.4422 93.5388 47.8839 93.9489 47.4722C94.359 47.0605 94.9153 46.8293 95.4953 46.8293ZM83.8318 46.8293C84.4118 46.8293 84.968 47.0605 85.3781 47.4722C85.7883 47.8839 86.0187 48.4422 86.0187 49.0244C86.0187 49.6066 85.7883 50.1649 85.3781 50.5766C84.968 50.9882 84.4118 51.2195 83.8318 51.2195C83.2517 51.2195 82.6955 50.9882 82.2854 50.5766C81.8752 50.1649 81.6448 49.6066 81.6448 49.0244C81.6448 48.4422 81.8752 47.8839 82.2854 47.4722C82.6955 47.0605 83.2517 46.8293 83.8318 46.8293ZM153.813 35.1219C154.393 35.1219 154.949 35.3532 155.359 35.7649C155.77 36.1766 156 36.7349 156 37.3171C156 37.8993 155.77 38.4576 155.359 38.8693C154.949 39.2809 154.393 39.5122 153.813 39.5122C153.233 39.5122 152.677 39.2809 152.267 38.8693C151.857 38.4576 151.626 37.8993 151.626 37.3171C151.626 36.7349 151.857 36.1766 152.267 35.7649C152.677 35.3532 153.233 35.1219 153.813 35.1219ZM142.15 35.1219C142.73 35.1219 143.286 35.3532 143.696 35.7649C144.106 36.1766 144.336 36.7349 144.336 37.3171C144.336 37.8993 144.106 38.4576 143.696 38.8693C143.286 39.2809 142.73 39.5122 142.15 39.5122C141.57 39.5122 141.013 39.2809 140.603 38.8693C140.193 38.4576 139.963 37.8993 139.963 37.3171C139.963 36.7349 140.193 36.1766 140.603 35.7649C141.013 35.3532 141.57 35.1219 142.15 35.1219ZM130.486 35.1219C131.066 35.1219 131.622 35.3532 132.032 35.7649C132.442 36.1766 132.673 36.7349 132.673 37.3171C132.673 37.8993 132.442 38.4576 132.032 38.8693C131.622 39.2809 131.066 39.5122 130.486 39.5122C129.906 39.5122 129.35 39.2809 128.94 38.8693C128.529 38.4576 128.299 37.8993 128.299 37.3171C128.299 36.7349 128.529 36.1766 128.94 35.7649C129.35 35.3532 129.906 35.1219 130.486 35.1219ZM118.822 35.1219C119.402 35.1219 119.959 35.3532 120.369 35.7649C120.779 36.1766 121.009 36.7349 121.009 37.3171C121.009 37.8993 120.779 38.4576 120.369 38.8693C119.959 39.2809 119.402 39.5122 118.822 39.5122C118.242 39.5122 117.686 39.2809 117.276 38.8693C116.866 38.4576 116.635 37.8993 116.635 37.3171C116.635 36.7349 116.866 36.1766 117.276 35.7649C117.686 35.3532 118.242 35.1219 118.822 35.1219ZM107.159 35.1219C107.739 35.1219 108.295 35.3532 108.705 35.7649C109.115 36.1766 109.346 36.7349 109.346 37.3171C109.346 37.8993 109.115 38.4576 108.705 38.8693C108.295 39.2809 107.739 39.5122 107.159 39.5122C106.579 39.5122 106.023 39.2809 105.612 38.8693C105.202 38.4576 104.972 37.8993 104.972 37.3171C104.972 36.7349 105.202 36.1766 105.612 35.7649C106.023 35.3532 106.579 35.1219 107.159 35.1219ZM95.4953 35.1219C96.0753 35.1219 96.6316 35.3532 97.0417 35.7649C97.4518 36.1766 97.6822 36.7349 97.6822 37.3171C97.6822 37.8993 97.4518 38.4576 97.0417 38.8693C96.6316 39.2809 96.0753 39.5122 95.4953 39.5122C94.9153 39.5122 94.359 39.2809 93.9489 38.8693C93.5388 38.4576 93.3084 37.8993 93.3084 37.3171C93.3084 36.7349 93.5388 36.1766 93.9489 35.7649C94.359 35.3532 94.9153 35.1219 95.4953 35.1219ZM83.8318 35.1219C84.4118 35.1219 84.968 35.3532 85.3781 35.7649C85.7883 36.1766 86.0187 36.7349 86.0187 37.3171C86.0187 37.8993 85.7883 38.4576 85.3781 38.8693C84.968 39.2809 84.4118 39.5122 83.8318 39.5122C83.2517 39.5122 82.6955 39.2809 82.2854 38.8693C81.8752 38.4576 81.6448 37.8993 81.6448 37.3171C81.6448 36.7349 81.8752 36.1766 82.2854 35.7649C82.6955 35.3532 83.2517 35.1219 83.8318 35.1219ZM153.813 23.4146C154.393 23.4146 154.949 23.6459 155.359 24.0576C155.77 24.4692 156 25.0276 156 25.6098C156 26.1919 155.77 26.7503 155.359 27.1619C154.949 27.5736 154.393 27.8049 153.813 27.8049C153.233 27.8049 152.677 27.5736 152.267 27.1619C151.857 26.7503 151.626 26.1919 151.626 25.6098C151.626 25.0276 151.857 24.4692 152.267 24.0576C152.677 23.6459 153.233 23.4146 153.813 23.4146ZM142.15 23.4146C142.73 23.4146 143.286 23.6459 143.696 24.0576C144.106 24.4692 144.336 25.0276 144.336 25.6098C144.336 26.1919 144.106 26.7503 143.696 27.1619C143.286 27.5736 142.73 27.8049 142.15 27.8049C141.57 27.8049 141.013 27.5736 140.603 27.1619C140.193 26.7503 139.963 26.1919 139.963 25.6098C139.963 25.0276 140.193 24.4692 140.603 24.0576C141.013 23.6459 141.57 23.4146 142.15 23.4146ZM130.486 23.4146C131.066 23.4146 131.622 23.6459 132.032 24.0576C132.442 24.4692 132.673 25.0276 132.673 25.6098C132.673 26.1919 132.442 26.7503 132.032 27.1619C131.622 27.5736 131.066 27.8049 130.486 27.8049C129.906 27.8049 129.35 27.5736 128.94 27.1619C128.529 26.7503 128.299 26.1919 128.299 25.6098C128.299 25.0276 128.529 24.4692 128.94 24.0576C129.35 23.6459 129.906 23.4146 130.486 23.4146ZM118.822 23.4146C119.402 23.4146 119.959 23.6459 120.369 24.0576C120.779 24.4692 121.009 25.0276 121.009 25.6098C121.009 26.1919 120.779 26.7503 120.369 27.1619C119.959 27.5736 119.402 27.8049 118.822 27.8049C118.242 27.8049 117.686 27.5736 117.276 27.1619C116.866 26.7503 116.635 26.1919 116.635 25.6098C116.635 25.0276 116.866 24.4692 117.276 24.0576C117.686 23.6459 118.242 23.4146 118.822 23.4146ZM107.159 23.4146C107.739 23.4146 108.295 23.6459 108.705 24.0576C109.115 24.4692 109.346 25.0276 109.346 25.6098C109.346 26.1919 109.115 26.7503 108.705 27.1619C108.295 27.5736 107.739 27.8049 107.159 27.8049C106.579 27.8049 106.023 27.5736 105.612 27.1619C105.202 26.7503 104.972 26.1919 104.972 25.6098C104.972 25.0276 105.202 24.4692 105.612 24.0576C106.023 23.6459 106.579 23.4146 107.159 23.4146ZM95.4953 23.4146C96.0753 23.4146 96.6316 23.6459 97.0417 24.0576C97.4518 24.4692 97.6822 25.0276 97.6822 25.6098C97.6822 26.1919 97.4518 26.7503 97.0417 27.1619C96.6316 27.5736 96.0753 27.8049 95.4953 27.8049C94.9153 27.8049 94.359 27.5736 93.9489 27.1619C93.5388 26.7503 93.3084 26.1919 93.3084 25.6098C93.3084 25.0276 93.5388 24.4692 93.9489 24.0576C94.359 23.6459 94.9153 23.4146 95.4953 23.4146ZM83.8318 23.4146C84.4118 23.4146 84.968 23.6459 85.3781 24.0576C85.7883 24.4692 86.0187 25.0276 86.0187 25.6098C86.0187 26.1919 85.7883 26.7503 85.3781 27.1619C84.968 27.5736 84.4118 27.8049 83.8318 27.8049C83.2517 27.8049 82.6955 27.5736 82.2854 27.1619C81.8752 26.7503 81.6448 26.1919 81.6448 25.6098C81.6448 25.0276 81.8752 24.4692 82.2854 24.0576C82.6955 23.6459 83.2517 23.4146 83.8318 23.4146ZM153.813 11.7073C154.393 11.7073 154.949 11.9386 155.359 12.3503C155.77 12.7619 156 13.3203 156 13.9024C156 14.4846 155.77 15.043 155.359 15.4546C154.949 15.8663 154.393 16.0976 153.813 16.0976C153.233 16.0976 152.677 15.8663 152.267 15.4546C151.857 15.043 151.626 14.4846 151.626 13.9024C151.626 13.3203 151.857 12.7619 152.267 12.3503C152.677 11.9386 153.233 11.7073 153.813 11.7073ZM142.15 11.7073C142.73 11.7073 143.286 11.9386 143.696 12.3503C144.106 12.7619 144.336 13.3203 144.336 13.9024C144.336 14.4846 144.106 15.043 143.696 15.4546C143.286 15.8663 142.73 16.0976 142.15 16.0976C141.57 16.0976 141.013 15.8663 140.603 15.4546C140.193 15.043 139.963 14.4846 139.963 13.9024C139.963 13.3203 140.193 12.7619 140.603 12.3503C141.013 11.9386 141.57 11.7073 142.15 11.7073ZM130.486 11.7073C131.066 11.7073 131.622 11.9386 132.032 12.3503C132.442 12.7619 132.673 13.3203 132.673 13.9024C132.673 14.4846 132.442 15.043 132.032 15.4546C131.622 15.8663 131.066 16.0976 130.486 16.0976C129.906 16.0976 129.35 15.8663 128.94 15.4546C128.529 15.043 128.299 14.4846 128.299 13.9024C128.299 13.3203 128.529 12.7619 128.94 12.3503C129.35 11.9386 129.906 11.7073 130.486 11.7073ZM118.822 11.7073C119.402 11.7073 119.959 11.9386 120.369 12.3503C120.779 12.7619 121.009 13.3203 121.009 13.9024C121.009 14.4846 120.779 15.043 120.369 15.4546C119.959 15.8663 119.402 16.0976 118.822 16.0976C118.242 16.0976 117.686 15.8663 117.276 15.4546C116.866 15.043 116.635 14.4846 116.635 13.9024C116.635 13.3203 116.866 12.7619 117.276 12.3503C117.686 11.9386 118.242 11.7073 118.822 11.7073ZM107.159 11.7073C107.739 11.7073 108.295 11.9386 108.705 12.3503C109.115 12.7619 109.346 13.3203 109.346 13.9024C109.346 14.4846 109.115 15.043 108.705 15.4546C108.295 15.8663 107.739 16.0976 107.159 16.0976C106.579 16.0976 106.023 15.8663 105.612 15.4546C105.202 15.043 104.972 14.4846 104.972 13.9024C104.972 13.3203 105.202 12.7619 105.612 12.3503C106.023 11.9386 106.579 11.7073 107.159 11.7073ZM95.4953 11.7073C96.0753 11.7073 96.6316 11.9386 97.0417 12.3503C97.4518 12.7619 97.6822 13.3203 97.6822 13.9024C97.6822 14.4846 97.4518 15.043 97.0417 15.4546C96.6316 15.8663 96.0753 16.0976 95.4953 16.0976C94.9153 16.0976 94.359 15.8663 93.9489 15.4546C93.5388 15.043 93.3084 14.4846 93.3084 13.9024C93.3084 13.3203 93.5388 12.7619 93.9489 12.3503C94.359 11.9386 94.9153 11.7073 95.4953 11.7073ZM83.8318 11.7073C84.4118 11.7073 84.968 11.9386 85.3781 12.3503C85.7883 12.7619 86.0187 13.3203 86.0187 13.9024C86.0187 14.4846 85.7883 15.043 85.3781 15.4546C84.968 15.8663 84.4118 16.0976 83.8318 16.0976C83.2517 16.0976 82.6955 15.8663 82.2854 15.4546C81.8752 15.043 81.6448 14.4846 81.6448 13.9024C81.6448 13.3203 81.8752 12.7619 82.2854 12.3503C82.6955 11.9386 83.2517 11.7073 83.8318 11.7073ZM153.813 0C154.393 0 154.949 0.231271 155.359 0.642936C155.77 1.0546 156 1.61294 156 2.19512C156 2.7773 155.77 3.33564 155.359 3.74731C154.949 4.15897 154.393 4.39024 153.813 4.39024C153.233 4.39024 152.677 4.15897 152.267 3.74731C151.857 3.33564 151.626 2.7773 151.626 2.19512C151.626 1.61294 151.857 1.0546 152.267 0.642936C152.677 0.231271 153.233 0 153.813 0V0ZM142.15 0C142.73 0 143.286 0.231271 143.696 0.642936C144.106 1.0546 144.336 1.61294 144.336 2.19512C144.336 2.7773 144.106 3.33564 143.696 3.74731C143.286 4.15897 142.73 4.39024 142.15 4.39024C141.57 4.39024 141.013 4.15897 140.603 3.74731C140.193 3.33564 139.963 2.7773 139.963 2.19512C139.963 1.61294 140.193 1.0546 140.603 0.642936C141.013 0.231271 141.57 0 142.15 0V0ZM130.486 0C131.066 0 131.622 0.231271 132.032 0.642936C132.442 1.0546 132.673 1.61294 132.673 2.19512C132.673 2.7773 132.442 3.33564 132.032 3.74731C131.622 4.15897 131.066 4.39024 130.486 4.39024C129.906 4.39024 129.35 4.15897 128.94 3.74731C128.529 3.33564 128.299 2.7773 128.299 2.19512C128.299 1.61294 128.529 1.0546 128.94 0.642936C129.35 0.231271 129.906 0 130.486 0V0ZM118.822 0C119.402 0 119.959 0.231271 120.369 0.642936C120.779 1.0546 121.009 1.61294 121.009 2.19512C121.009 2.7773 120.779 3.33564 120.369 3.74731C119.959 4.15897 119.402 4.39024 118.822 4.39024C118.242 4.39024 117.686 4.15897 117.276 3.74731C116.866 3.33564 116.635 2.7773 116.635 2.19512C116.635 1.61294 116.866 1.0546 117.276 0.642936C117.686 0.231271 118.242 0 118.822 0V0ZM107.159 0C107.739 0 108.295 0.231271 108.705 0.642936C109.115 1.0546 109.346 1.61294 109.346 2.19512C109.346 2.7773 109.115 3.33564 108.705 3.74731C108.295 4.15897 107.739 4.39024 107.159 4.39024C106.579 4.39024 106.023 4.15897 105.612 3.74731C105.202 3.33564 104.972 2.7773 104.972 2.19512C104.972 1.61294 105.202 1.0546 105.612 0.642936C106.023 0.231271 106.579 0 107.159 0V0ZM95.4953 0C96.0753 0 96.6316 0.231271 97.0417 0.642936C97.4518 1.0546 97.6822 1.61294 97.6822 2.19512C97.6822 2.7773 97.4518 3.33564 97.0417 3.74731C96.6316 4.15897 96.0753 4.39024 95.4953 4.39024C94.9153 4.39024 94.359 4.15897 93.9489 3.74731C93.5388 3.33564 93.3084 2.7773 93.3084 2.19512C93.3084 1.61294 93.5388 1.0546 93.9489 0.642936C94.359 0.231271 94.9153 0 95.4953 0V0ZM83.8318 0C84.4118 0 84.968 0.231271 85.3781 0.642936C85.7883 1.0546 86.0187 1.61294 86.0187 2.19512C86.0187 2.7773 85.7883 3.33564 85.3781 3.74731C84.968 4.15897 84.4118 4.39024 83.8318 4.39024C83.2517 4.39024 82.6955 4.15897 82.2854 3.74731C81.8752 3.33564 81.6448 2.7773 81.6448 2.19512C81.6448 1.61294 81.8752 1.0546 82.2854 0.642936C82.6955 0.231271 83.2517 0 83.8318 0V0Z" fill="#E5E7EB"/>
<path fill-rule="evenodd" clip-rule="evenodd" d="M153.813 175.61C154.393 175.61 154.949 175.841 155.359 176.253C155.77 176.664 156 177.223 156 177.805C156 178.387 155.77 178.945 155.359 179.357C154.949 179.769 154.393 180 153.813 180C153.233 180 152.677 179.769 152.267 179.357C151.857 178.945 151.626 178.387 151.626 177.805C151.626 177.223 151.857 176.664 152.267 176.253C152.677 175.841 153.233 175.61 153.813 175.61ZM142.15 175.61C142.73 175.61 143.286 175.841 143.696 176.253C144.106 176.664 144.336 177.223 144.336 177.805C144.336 178.387 144.106 178.945 143.696 179.357C143.286 179.769 142.73 180 142.15 180C141.57 180 141.013 179.769 140.603 179.357C140.193 178.945 139.963 178.387 139.963 177.805C139.963 177.223 140.193 176.664 140.603 176.253C141.013 175.841 141.57 175.61 142.15 175.61ZM130.486 175.61C131.066 175.61 131.622 175.841 132.032 176.253C132.442 176.664 132.673 177.223 132.673 177.805C132.673 178.387 132.442 178.945 132.032 179.357C131.622 179.769 131.066 180 130.486 180C129.906 180 129.35 179.769 128.94 179.357C128.529 178.945 128.299 178.387 128.299 177.805C128.299 177.223 128.529 176.664 128.94 176.253C129.35 175.841 129.906 175.61 130.486 175.61ZM118.822 175.61C119.402 175.61 119.959 175.841 120.369 176.253C120.779 176.664 121.009 177.223 121.009 177.805C121.009 178.387 120.779 178.945 120.369 179.357C119.959 179.769 119.402 180 118.822 180C118.242 180 117.686 179.769 117.276 179.357C116.866 178.945 116.635 178.387 116.635 177.805C116.635 177.223 116.866 176.664 117.276 176.253C117.686 175.841 118.242 175.61 118.822 175.61ZM107.159 175.61C107.739 175.61 108.295 175.841 108.705 176.253C109.115 176.664 109.346 177.223 109.346 177.805C109.346 178.387 109.115 178.945 108.705 179.357C108.295 179.769 107.739 180 107.159 180C106.579 180 106.023 179.769 105.612 179.357C105.202 178.945 104.972 178.387 104.972 177.805C104.972 177.223 105.202 176.664 105.612 176.253C106.023 175.841 106.579 175.61 107.159 175.61ZM95.4953 175.61C96.0753 175.61 96.6316 175.841 97.0417 176.253C97.4518 176.664 97.6822 177.223 97.6822 177.805C97.6822 178.387 97.4518 178.945 97.0417 179.357C96.6316 179.769 96.0753 180 95.4953 180C94.9153 180 94.359 179.769 93.9489 179.357C93.5388 178.945 93.3084 178.387 93.3084 177.805C93.3084 177.223 93.5388 176.664 93.9489 176.253C94.359 175.841 94.9153 175.61 95.4953 175.61ZM83.8318 175.61C84.4118 175.61 84.968 175.841 85.3781 176.253C85.7883 176.664 86.0187 177.223 86.0187 177.805C86.0187 178.387 85.7883 178.945 85.3781 179.357C84.968 179.769 84.4118 180 83.8318 180C83.2517 180 82.6955 179.769 82.2854 179.357C81.8752 178.945 81.6448 178.387 81.6448 177.805C81.6448 177.223 81.8752 176.664 82.2854 176.253C82.6955 175.841 83.2517 175.61 83.8318 175.61ZM153.813 163.902C154.393 163.902 154.949 164.134 155.359 164.545C155.77 164.957 156 165.515 156 166.098C156 166.68 155.77 167.238 155.359 167.65C154.949 168.061 154.393 168.293 153.813 168.293C153.233 168.293 152.677 168.061 152.267 167.65C151.857 167.238 151.626 166.68 151.626 166.098C151.626 165.515 151.857 164.957 152.267 164.545C152.677 164.134 153.233 163.902 153.813 163.902ZM142.15 163.902C142.73 163.902 143.286 164.134 143.696 164.545C144.106 164.957 144.336 165.515 144.336 166.098C144.336 166.68 144.106 167.238 143.696 167.65C143.286 168.061 142.73 168.293 142.15 168.293C141.57 168.293 141.013 168.061 140.603 167.65C140.193 167.238 139.963 166.68 139.963 166.098C139.963 165.515 140.193 164.957 140.603 164.545C141.013 164.134 141.57 163.902 142.15 163.902ZM130.486 163.902C131.066 163.902 131.622 164.134 132.032 164.545C132.442 164.957 132.673 165.515 132.673 166.098C132.673 166.68 132.442 167.238 132.032 167.65C131.622 168.061 131.066 168.293 130.486 168.293C129.906 168.293 129.35 168.061 128.94 167.65C128.529 167.238 128.299 166.68 128.299 166.098C128.299 165.515 128.529 164.957 128.94 164.545C129.35 164.134 129.906 163.902 130.486 163.902ZM118.822 163.902C119.402 163.902 119.959 164.134 120.369 164.545C120.779 164.957 121.009 165.515 121.009 166.098C121.009 166.68 120.779 167.238 120.369 167.65C119.959 168.061 119.402 168.293 118.822 168.293C118.242 168.293 117.686 168.061 117.276 167.65C116.866 167.238 116.635 166.68 116.635 166.098C116.635 165.515 116.866 164.957 117.276 164.545C117.686 164.134 118.242 163.902 118.822 163.902ZM107.159 163.902C107.739 163.902 108.295 164.134 108.705 164.545C109.115 164.957 109.346 165.515 109.346 166.098C109.346 166.68 109.115 167.238 108.705 167.65C108.295 168.061 107.739 168.293 107.159 168.293C106.579 168.293 106.023 168.061 105.612 167.65C105.202 167.238 104.972 166.68 104.972 166.098C104.972 165.515 105.202 164.957 105.612 164.545C106.023 164.134 106.579 163.902 107.159 163.902ZM95.4953 163.902C96.0753 163.902 96.6316 164.134 97.0417 164.545C97.4518 164.957 97.6822 165.515 97.6822 166.098C97.6822 166.68 97.4518 167.238 97.0417 167.65C96.6316 168.061 96.0753 168.293 95.4953 168.293C94.9153 168.293 94.359 168.061 93.9489 167.65C93.5388 167.238 93.3084 166.68 93.3084 166.098C93.3084 165.515 93.5388 164.957 93.9489 164.545C94.359 164.134 94.9153 163.902 95.4953 163.902ZM83.8318 163.902C84.4118 163.902 84.968 164.134 85.3781 164.545C85.7883 164.957 86.0187 165.515 86.0187 166.098C86.0187 166.68 85.7883 167.238 85.3781 167.65C84.968 168.061 84.4118 168.293 83.8318 168.293C83.2517 168.293 82.6955 168.061 82.2854 167.65C81.8752 167.238 81.6448 166.68 81.6448 166.098C81.6448 165.515 81.8752 164.957 82.2854 164.545C82.6955 164.134 83.2517 163.902 83.8318 163.902ZM153.813 152.195C154.393 152.195 154.949 152.426 155.359 152.838C155.77 153.25 156 153.808 156 154.39C156 154.972 155.77 155.531 155.359 155.942C154.949 156.354 154.393 156.585 153.813 156.585C153.233 156.585 152.677 156.354 152.267 155.942C151.857 155.531 151.626 154.972 151.626 154.39C151.626 153.808 151.857 153.25 152.267 152.838C152.677 152.426 153.233 152.195 153.813 152.195ZM142.15 152.195C142.73 152.195 143.286 152.426 143.696 152.838C144.106 153.25 144.336 153.808 144.336 154.39C144.336 154.972 144.106 155.531 143.696 155.942C143.286 156.354 142.73 156.585 142.15 156.585C141.57 156.585 141.013 156.354 140.603 155.942C140.193 155.531 139.963 154.972 139.963 154.39C139.963 153.808 140.193 153.25 140.603 152.838C141.013 152.426 141.57 152.195 142.15 152.195ZM130.486 152.195C131.066 152.195 131.622 152.426 132.032 152.838C132.442 153.25 132.673 153.808 132.673 154.39C132.673 154.972 132.442 155.531 132.032 155.942C131.622 156.354 131.066 156.585 130.486 156.585C129.906 156.585 129.35 156.354 128.94 155.942C128.529 155.531 128.299 154.972 128.299 154.39C128.299 153.808 128.529 153.25 128.94 152.838C129.35 152.426 129.906 152.195 130.486 152.195ZM118.822 152.195C119.402 152.195 119.959 152.426 120.369 152.838C120.779 153.25 121.009 153.808 121.009 154.39C121.009 154.972 120.779 155.531 120.369 155.942C119.959 156.354 119.402 156.585 118.822 156.585C118.242 156.585 117.686 156.354 117.276 155.942C116.866 155.531 116.635 154.972 116.635 154.39C116.635 153.808 116.866 153.25 117.276 152.838C117.686 152.426 118.242 152.195 118.822 152.195ZM107.159 152.195C107.739 152.195 108.295 152.426 108.705 152.838C109.115 153.25 109.346 153.808 109.346 154.39C109.346 154.972 109.115 155.531 108.705 155.942C108.295 156.354 107.739 156.585 107.159 156.585C106.579 156.585 106.023 156.354 105.612 155.942C105.202 155.531 104.972 154.972 104.972 154.39C104.972 153.808 105.202 153.25 105.612 152.838C106.023 152.426 106.579 152.195 107.159 152.195ZM95.4953 152.195C96.0753 152.195 96.6316 152.426 97.0417 152.838C97.4518 153.25 97.6822 153.808 97.6822 154.39C97.6822 154.972 97.4518 155.531 97.0417 155.942C96.6316 156.354 96.0753 156.585 95.4953 156.585C94.9153 156.585 94.359 156.354 93.9489 155.942C93.5388 155.531 93.3084 154.972 93.3084 154.39C93.3084 153.808 93.5388 153.25 93.9489 152.838C94.359 152.426 94.9153 152.195 95.4953 152.195ZM83.8318 152.195C84.4118 152.195 84.968 152.426 85.3781 152.838C85.7883 153.25 86.0187 153.808 86.0187 154.39C86.0187 154.972 85.7883 155.531 85.3781 155.942C84.968 156.354 84.4118 156.585 83.8318 156.585C83.2517 156.585 82.6955 156.354 82.2854 155.942C81.8752 155.531 81.6448 154.972 81.6448 154.39C81.6448 153.808 81.8752 153.25 82.2854 152.838C82.6955 152.426 83.2517 152.195 83.8318 152.195ZM153.813 140.488C154.393 140.488 154.949 140.719 155.359 141.131C155.77 141.542 156 142.101 156 142.683C156 143.265 155.77 143.823 155.359 144.235C154.949 144.647 154.393 144.878 153.813 144.878C153.233 144.878 152.677 144.647 152.267 144.235C151.857 143.823 151.626 143.265 151.626 142.683C151.626 142.101 151.857 141.542 152.267 141.131C152.677 140.719 153.233 140.488 153.813 140.488ZM142.15 140.488C142.73 140.488 143.286 140.719 143.696 141.131C144.106 141.542 144.336 142.101 144.336 142.683C144.336 143.265 144.106 143.823 143.696 144.235C143.286 144.647 142.73 144.878 142.15 144.878C141.57 144.878 141.013 144.647 140.603 144.235C140.193 143.823 139.963 143.265 139.963 142.683C139.963 142.101 140.193 141.542 140.603 141.131C141.013 140.719 141.57 140.488 142.15 140.488ZM130.486 140.488C131.066 140.488 131.622 140.719 132.032 141.131C132.442 141.542 132.673 142.101 132.673 142.683C132.673 143.265 132.442 143.823 132.032 144.235C131.622 144.647 131.066 144.878 130.486 144.878C129.906 144.878 129.35 144.647 128.94 144.235C128.529 143.823 128.299 143.265 128.299 142.683C128.299 142.101 128.529 141.542 128.94 141.131C129.35 140.719 129.906 140.488 130.486 140.488ZM118.822 140.488C119.402 140.488 119.959 140.719 120.369 141.131C120.779 141.542 121.009 142.101 121.009 142.683C121.009 143.265 120.779 143.823 120.369 144.235C119.959 144.647 119.402 144.878 118.822 144.878C118.242 144.878 117.686 144.647 117.276 144.235C116.866 143.823 116.635 143.265 116.635 142.683C116.635 142.101 116.866 141.542 117.276 141.131C117.686 140.719 118.242 140.488 118.822 140.488ZM107.159 140.488C107.739 140.488 108.295 140.719 108.705 141.131C109.115 141.542 109.346 142.101 109.346 142.683C109.346 143.265 109.115 143.823 108.705 144.235C108.295 144.647 107.739 144.878 107.159 144.878C106.579 144.878 106.023 144.647 105.612 144.235C105.202 143.823 104.972 143.265 104.972 142.683C104.972 142.101 105.202 141.542 105.612 141.131C106.023 140.719 106.579 140.488 107.159 140.488ZM95.4953 140.488C96.0753 140.488 96.6316 140.719 97.0417 141.131C97.4518 141.542 97.6822 142.101 97.6822 142.683C97.6822 143.265 97.4518 143.823 97.0417 144.235C96.6316 144.647 96.0753 144.878 95.4953 144.878C94.9153 144.878 94.359 144.647 93.9489 144.235C93.5388 143.823 93.3084 143.265 93.3084 142.683C93.3084 142.101 93.5388 141.542 93.9489 141.131C94.359 140.719 94.9153 140.488 95.4953 140.488ZM83.8318 140.488C84.4118 140.488 84.968 140.719 85.3781 141.131C85.7883 141.542 86.0187 142.101 86.0187 142.683C86.0187 143.265 85.7883 143.823 85.3781 144.235C84.968 144.647 84.4118 144.878 83.8318 144.878C83.2517 144.878 82.6955 144.647 82.2854 144.235C81.8752 143.823 81.6448 143.265 81.6448 142.683C81.6448 142.101 81.8752 141.542 82.2854 141.131C82.6955 140.719 83.2517 140.488 83.8318 140.488ZM153.813 128.78C154.393 128.78 154.949 129.012 155.359 129.423C155.77 129.835 156 130.393 156 130.976C156 131.558 155.77 132.116 155.359 132.528C154.949 132.939 154.393 133.171 153.813 133.171C153.233 133.171 152.677 132.939 152.267 132.528C151.857 132.116 151.626 131.558 151.626 130.976C151.626 130.393 151.857 129.835 152.267 129.423C152.677 129.012 153.233 128.78 153.813 128.78ZM142.15 128.78C142.73 128.78 143.286 129.012 143.696 129.423C144.106 129.835 144.336 130.393 144.336 130.976C144.336 131.558 144.106 132.116 143.696 132.528C143.286 132.939 142.73 133.171 142.15 133.171C141.57 133.171 141.013 132.939 140.603 132.528C140.193 132.116 139.963 131.558 139.963 130.976C139.963 130.393 140.193 129.835 140.603 129.423C141.013 129.012 141.57 128.78 142.15 128.78ZM130.486 128.78C131.066 128.78 131.622 129.012 132.032 129.423C132.442 129.835 132.673 130.393 132.673 130.976C132.673 131.558 132.442 132.116 132.032 132.528C131.622 132.939 131.066 133.171 130.486 133.171C129.906 133.171 129.35 132.939 128.94 132.528C128.529 132.116 128.299 131.558 128.299 130.976C128.299 130.393 128.529 129.835 128.94 129.423C129.35 129.012 129.906 128.78 130.486 128.78ZM118.822 128.78C119.402 128.78 119.959 129.012 120.369 129.423C120.779 129.835 121.009 130.393 121.009 130.976C121.009 131.558 120.779 132.116 120.369 132.528C119.959 132.939 119.402 133.171 118.822 133.171C118.242 133.171 117.686 132.939 117.276 132.528C116.866 132.116 116.635 131.558 116.635 130.976C116.635 130.393 116.866 129.835 117.276 129.423C117.686 129.012 118.242 128.78 118.822 128.78ZM107.159 128.78C107.739 128.78 108.295 129.012 108.705 129.423C109.115 129.835 109.346 130.393 109.346 130.976C109.346 131.558 109.115 132.116 108.705 132.528C108.295 132.939 107.739 133.171 107.159 133.171C106.579 133.171 106.023 132.939 105.612 132.528C105.202 132.116 104.972 131.558 104.972 130.976C104.972 130.393 105.202 129.835 105.612 129.423C106.023 129.012 106.579 128.78 107.159 128.78ZM95.4953 128.78C96.0753 128.78 96.6316 129.012 97.0417 129.423C97.4518 129.835 97.6822 130.393 97.6822 130.976C97.6822 131.558 97.4518 132.116 97.0417 132.528C96.6316 132.939 96.0753 133.171 95.4953 133.171C94.9153 133.171 94.359 132.939 93.9489 132.528C93.5388 132.116 93.3084 131.558 93.3084 130.976C93.3084 130.393 93.5388 129.835 93.9489 129.423C94.359 129.012 94.9153 128.78 95.4953 128.78ZM83.8318 128.78C84.4118 128.78 84.968 129.012 85.3781 129.423C85.7883 129.835 86.0187 130.393 86.0187 130.976C86.0187 131.558 85.7883 132.116 85.3781 132.528C84.968 132.939 84.4118 133.171 83.8318 133.171C83.2517 133.171 82.6955 132.939 82.2854 132.528C81.8752 132.116 81.6448 131.558 81.6448 130.976C81.6448 130.393 81.8752 129.835 82.2854 129.423C82.6955 129.012 83.2517 128.78 83.8318 128.78ZM153.813 117.073C154.393 117.073 154.949 117.304 155.359 117.716C155.77 118.128 156 118.686 156 119.268C156 119.85 155.77 120.409 155.359 120.82C154.949 121.232 154.393 121.463 153.813 121.463C153.233 121.463 152.677 121.232 152.267 120.82C151.857 120.409 151.626 119.85 151.626 119.268C151.626 118.686 151.857 118.128 152.267 117.716C152.677 117.304 153.233 117.073 153.813 117.073ZM142.15 117.073C142.73 117.073 143.286 117.304 143.696 117.716C144.106 118.128 144.336 118.686 144.336 119.268C144.336 119.85 144.106 120.409 143.696 120.82C143.286 121.232 142.73 121.463 142.15 121.463C141.57 121.463 141.013 121.232 140.603 120.82C140.193 120.409 139.963 119.85 139.963 119.268C139.963 118.686 140.193 118.128 140.603 117.716C141.013 117.304 141.57 117.073 142.15 117.073ZM130.486 117.073C131.066 117.073 131.622 117.304 132.032 117.716C132.442 118.128 132.673 118.686 132.673 119.268C132.673 119.85 132.442 120.409 132.032 120.82C131.622 121.232 131.066 121.463 130.486 121.463C129.906 121.463 129.35 121.232 128.94 120.82C128.529 120.409 128.299 119.85 128.299 119.268C128.299 118.686 128.529 118.128 128.94 117.716C129.35 117.304 129.906 117.073 130.486 117.073ZM118.822 117.073C119.402 117.073 119.959 117.304 120.369 117.716C120.779 118.128 121.009 118.686 121.009 119.268C121.009 119.85 120.779 120.409 120.369 120.82C119.959 121.232 119.402 121.463 118.822 121.463C118.242 121.463 117.686 121.232 117.276 120.82C116.866 120.409 116.635 119.85 116.635 119.268C116.635 118.686 116.866 118.128 117.276 117.716C117.686 117.304 118.242 117.073 118.822 117.073ZM107.159 117.073C107.739 117.073 108.295 117.304 108.705 117.716C109.115 118.128 109.346 118.686 109.346 119.268C109.346 119.85 109.115 120.409 108.705 120.82C108.295 121.232 107.739 121.463 107.159 121.463C106.579 121.463 106.023 121.232 105.612 120.82C105.202 120.409 104.972 119.85 104.972 119.268C104.972 118.686 105.202 118.128 105.612 117.716C106.023 117.304 106.579 117.073 107.159 117.073ZM95.4953 117.073C96.0753 117.073 96.6316 117.304 97.0417 117.716C97.4518 118.128 97.6822 118.686 97.6822 119.268C97.6822 119.85 97.4518 120.409 97.0417 120.82C96.6316 121.232 96.0753 121.463 95.4953 121.463C94.9153 121.463 94.359 121.232 93.9489 120.82C93.5388 120.409 93.3084 119.85 93.3084 119.268C93.3084 118.686 93.5388 118.128 93.9489 117.716C94.359 117.304 94.9153 117.073 95.4953 117.073ZM83.8318 117.073C84.4118 117.073 84.968 117.304 85.3781 117.716C85.7883 118.128 86.0187 118.686 86.0187 119.268C86.0187 119.85 85.7883 120.409 85.3781 120.82C84.968 121.232 84.4118 121.463 83.8318 121.463C83.2517 121.463 82.6955 121.232 82.2854 120.82C81.8752 120.409 81.6448 119.85 81.6448 119.268C81.6448 118.686 81.8752 118.128 82.2854 117.716C82.6955 117.304 83.2517 117.073 83.8318 117.073ZM153.813 105.366C154.393 105.366 154.949 105.597 155.359 106.009C155.77 106.42 156 106.979 156 107.561C156 108.143 155.77 108.701 155.359 109.113C154.949 109.525 154.393 109.756 153.813 109.756C153.233 109.756 152.677 109.525 152.267 109.113C151.857 108.701 151.626 108.143 151.626 107.561C151.626 106.979 151.857 106.42 152.267 106.009C152.677 105.597 153.233 105.366 153.813 105.366ZM142.15 105.366C142.73 105.366 143.286 105.597 143.696 106.009C144.106 106.42 144.336 106.979 144.336 107.561C144.336 108.143 144.106 108.701 143.696 109.113C143.286 109.525 142.73 109.756 142.15 109.756C141.57 109.756 141.013 109.525 140.603 109.113C140.193 108.701 139.963 108.143 139.963 107.561C139.963 106.979 140.193 106.42 140.603 106.009C141.013 105.597 141.57 105.366 142.15 105.366ZM130.486 105.366C131.066 105.366 131.622 105.597 132.032 106.009C132.442 106.42 132.673 106.979 132.673 107.561C132.673 108.143 132.442 108.701 132.032 109.113C131.622 109.525 131.066 109.756 130.486 109.756C129.906 109.756 129.35 109.525 128.94 109.113C128.529 108.701 128.299 108.143 128.299 107.561C128.299 106.979 128.529 106.42 128.94 106.009C129.35 105.597 129.906 105.366 130.486 105.366ZM118.822 105.366C119.402 105.366 119.959 105.597 120.369 106.009C120.779 106.42 121.009 106.979 121.009 107.561C121.009 108.143 120.779 108.701 120.369 109.113C119.959 109.525 119.402 109.756 118.822 109.756C118.242 109.756 117.686 109.525 117.276 109.113C116.866 108.701 116.635 108.143 116.635 107.561C116.635 106.979 116.866 106.42 117.276 106.009C117.686 105.597 118.242 105.366 118.822 105.366ZM107.159 105.366C107.739 105.366 108.295 105.597 108.705 106.009C109.115 106.42 109.346 106.979 109.346 107.561C109.346 108.143 109.115 108.701 108.705 109.113C108.295 109.525 107.739 109.756 107.159 109.756C106.579 109.756 106.023 109.525 105.612 109.113C105.202 108.701 104.972 108.143 104.972 107.561C104.972 106.979 105.202 106.42 105.612 106.009C106.023 105.597 106.579 105.366 107.159 105.366ZM95.4953 105.366C96.0753 105.366 96.6316 105.597 97.0417 106.009C97.4518 106.42 97.6822 106.979 97.6822 107.561C97.6822 108.143 97.4518 108.701 97.0417 109.113C96.6316 109.525 96.0753 109.756 95.4953 109.756C94.9153 109.756 94.359 109.525 93.9489 109.113C93.5388 108.701 93.3084 108.143 93.3084 107.561C93.3084 106.979 93.5388 106.42 93.9489 106.009C94.359 105.597 94.9153 105.366 95.4953 105.366ZM83.8318 105.366C84.4118 105.366 84.968 105.597 85.3781 106.009C85.7883 106.42 86.0187 106.979 86.0187 107.561C86.0187 108.143 85.7883 108.701 85.3781 109.113C84.968 109.525 84.4118 109.756 83.8318 109.756C83.2517 109.756 82.6955 109.525 82.2854 109.113C81.8752 108.701 81.6448 108.143 81.6448 107.561C81.6448 106.979 81.8752 106.42 82.2854 106.009C82.6955 105.597 83.2517 105.366 83.8318 105.366ZM153.813 93.6585C154.393 93.6585 154.949 93.8898 155.359 94.3015C155.77 94.7131 156 95.2715 156 95.8537C156 96.4358 155.77 96.9942 155.359 97.4058C154.949 97.8175 154.393 98.0488 153.813 98.0488C153.233 98.0488 152.677 97.8175 152.267 97.4058C151.857 96.9942 151.626 96.4358 151.626 95.8537C151.626 95.2715 151.857 94.7131 152.267 94.3015C152.677 93.8898 153.233 93.6585 153.813 93.6585V93.6585ZM142.15 93.6585C142.73 93.6585 143.286 93.8898 143.696 94.3015C144.106 94.7131 144.336 95.2715 144.336 95.8537C144.336 96.4358 144.106 96.9942 143.696 97.4058C143.286 97.8175 142.73 98.0488 142.15 98.0488C141.57 98.0488 141.013 97.8175 140.603 97.4058C140.193 96.9942 139.963 96.4358 139.963 95.8537C139.963 95.2715 140.193 94.7131 140.603 94.3015C141.013 93.8898 141.57 93.6585 142.15 93.6585V93.6585ZM130.486 93.6585C131.066 93.6585 131.622 93.8898 132.032 94.3015C132.442 94.7131 132.673 95.2715 132.673 95.8537C132.673 96.4358 132.442 96.9942 132.032 97.4058C131.622 97.8175 131.066 98.0488 130.486 98.0488C129.906 98.0488 129.35 97.8175 128.94 97.4058C128.529 96.9942 128.299 96.4358 128.299 95.8537C128.299 95.2715 128.529 94.7131 128.94 94.3015C129.35 93.8898 129.906 93.6585 130.486 93.6585V93.6585ZM118.822 93.6585C119.402 93.6585 119.959 93.8898 120.369 94.3015C120.779 94.7131 121.009 95.2715 121.009 95.8537C121.009 96.4358 120.779 96.9942 120.369 97.4058C119.959 97.8175 119.402 98.0488 118.822 98.0488C118.242 98.0488 117.686 97.8175 117.276 97.4058C116.866 96.9942 116.635 96.4358 116.635 95.8537C116.635 95.2715 116.866 94.7131 117.276 94.3015C117.686 93.8898 118.242 93.6585 118.822 93.6585V93.6585ZM107.159 93.6585C107.739 93.6585 108.295 93.8898 108.705 94.3015C109.115 94.7131 109.346 95.2715 109.346 95.8537C109.346 96.4358 109.115 96.9942 108.705 97.4058C108.295 97.8175 107.739 98.0488 107.159 98.0488C106.579 98.0488 106.023 97.8175 105.612 97.4058C105.202 96.9942 104.972 96.4358 104.972 95.8537C104.972 95.2715 105.202 94.7131 105.612 94.3015C106.023 93.8898 106.579 93.6585 107.159 93.6585V93.6585ZM95.4953 93.6585C96.0753 93.6585 96.6316 93.8898 97.0417 94.3015C97.4518 94.7131 97.6822 95.2715 97.6822 95.8537C97.6822 96.4358 97.4518 96.9942 97.0417 97.4058C96.6316 97.8175 96.0753 98.0488 95.4953 98.0488C94.9153 98.0488 94.359 97.8175 93.9489 97.4058C93.5388 96.9942 93.3084 96.4358 93.3084 95.8537C93.3084 95.2715 93.5388 94.7131 93.9489 94.3015C94.359 93.8898 94.9153 93.6585 95.4953 93.6585V93.6585ZM83.8318 93.6585C84.4118 93.6585 84.968 93.8898 85.3781 94.3015C85.7883 94.7131 86.0187 95.2715 86.0187 95.8537C86.0187 96.4358 85.7883 96.9942 85.3781 97.4058C84.968 97.8175 84.4118 98.0488 83.8318 98.0488C83.2517 98.0488 82.6955 97.8175 82.2854 97.4058C81.8752 96.9942 81.6448 96.4358 81.6448 95.8537C81.6448 95.2715 81.8752 94.7131 82.2854 94.3015C82.6955 93.8898 83.2517 93.6585 83.8318 93.6585V93.6585Z" fill="#E5E7EB"/>
</svg>
